{"glyphs":{"0":{"ha":996,"x_min":33,"x_max":954,"o":"m 433 1001 q 464 1008 442 1007 q 511 1009 486 1010 q 560 1006 536 1008 q 594 1003 583 1004 q 667 988 629 999 q 741 959 706 976 q 807 918 776 942 q 858 865 838 894 q 930 710 906 799 q 954 528 954 622 q 931 343 954 435 q 861 177 908 251 q 743 53 814 103 q 578 -7 672 3 q 332 8 433 -22 q 167 97 231 38 q 72 240 103 157 q 38 413 42 322 q 54 594 33 503 q 113 764 75 686 q 202 899 150 842 q 314 976 254 956 q 373 993 343 988 q 433 1001 403 999 m 558 193 q 656 204 613 179 q 728 278 699 229 q 771 394 757 328 q 781 528 785 460 q 754 658 776 596 q 688 763 732 721 q 619 804 658 790 q 539 803 579 818 q 453 735 486 783 q 403 623 419 686 q 389 490 388 560 q 410 358 390 419 q 467 252 429 297 q 558 193 504 207 z "},"1":{"ha":607,"x_min":-17,"x_max":561,"o":"m 236 944 q 276 996 251 978 q 331 1021 301 1014 q 394 1024 361 1028 q 458 1013 426 1021 q 506 975 490 1004 q 524 916 521 947 q 529 854 528 885 q 533 598 535 724 q 543 342 531 472 q 555 230 549 286 q 550 118 561 174 q 516 57 543 82 q 451 19 489 32 q 372 6 414 6 q 293 22 331 7 q 228 66 256 36 q 193 142 200 96 q 188 267 185 193 q 200 421 190 342 q 221 576 210 500 q 240 706 232 651 q 117 649 172 653 q 30 670 63 646 q -10 735 -3 694 q 11 813 -17 776 q 43 840 24 829 q 85 860 63 851 q 128 876 107 868 q 168 896 150 885 q 236 944 206 921 z "},"2":{"ha":817,"x_min":32,"x_max":788,"o":"m 415 275 q 487 289 447 276 q 567 313 526 301 q 644 331 607 325 q 711 326 682 338 q 751 298 736 317 q 775 256 767 279 q 785 208 783 233 q 786 160 788 182 q 770 83 783 121 q 721 26 757 46 q 688 15 706 18 q 654 8 671 11 q 465 -2 563 -6 q 275 -4 368 1 q 219 -8 247 -6 q 163 -7 190 -10 q 124 -2 143 -6 q 88 13 104 1 q 50 60 58 31 q 52 168 32 119 q 113 260 72 217 q 207 348 154 304 q 307 442 260 392 q 388 551 354 492 q 422 689 421 611 q 413 756 424 722 q 379 817 403 790 q 340 844 361 838 q 280 842 308 857 q 238 797 251 828 q 231 731 225 768 q 241 659 236 694 q 240 594 246 624 q 201 551 235 565 q 168 545 188 546 q 130 549 149 544 q 95 563 111 554 q 71 586 79 572 q 59 622 63 601 q 54 658 56 642 q 67 809 47 742 q 129 924 86 876 q 237 1000 172 972 q 385 1032 301 1028 q 467 1024 426 1035 q 547 997 508 1013 q 638 935 604 975 q 685 844 671 894 q 697 739 700 794 q 679 628 694 683 q 639 524 664 574 q 583 436 614 474 q 543 395 568 417 q 493 353 518 374 q 447 312 468 332 q 415 275 425 292 z "},"3":{"ha":788,"x_min":32,"x_max":750,"o":"m 578 606 q 630 579 604 594 q 676 544 656 564 q 733 456 715 507 q 750 351 750 406 q 734 244 750 297 q 690 149 718 190 q 613 74 661 106 q 507 21 565 42 q 385 -8 449 0 q 261 -10 321 -17 q 151 16 201 -4 q 67 74 100 36 q 33 149 35 108 q 60 225 32 189 q 101 260 76 246 q 154 274 126 275 q 207 258 178 272 q 267 234 236 243 q 331 232 299 225 q 392 282 363 239 q 413 362 415 315 q 388 442 411 408 q 335 492 367 469 q 271 526 303 514 q 238 531 256 532 q 203 531 219 531 q 172 536 186 531 q 147 560 157 542 q 143 574 144 565 q 142 593 142 583 q 144 612 142 603 q 149 626 146 621 q 171 640 153 633 q 211 651 189 646 q 254 660 233 656 q 286 669 275 665 q 361 719 328 686 q 408 788 394 751 q 408 859 421 825 q 343 911 394 893 q 254 922 292 929 q 188 897 217 914 q 138 864 160 881 q 94 847 115 847 q 69 856 81 847 q 52 876 58 864 q 44 901 46 888 q 49 928 43 915 q 79 957 57 944 q 128 979 101 969 q 182 996 156 989 q 225 1006 208 1003 q 311 1019 268 1014 q 397 1023 354 1025 q 480 1009 439 1021 q 560 972 521 997 q 646 889 615 936 q 680 792 676 842 q 658 694 683 743 q 578 606 633 646 z "},"4":{"ha":799,"x_min":-8,"x_max":782,"o":"m 649 258 q 649 205 644 233 q 656 147 653 176 q 655 91 658 118 q 633 43 651 64 q 571 7 614 19 q 481 -6 528 -6 q 394 6 435 -7 q 336 46 353 18 q 328 91 328 60 q 334 158 329 122 q 345 226 339 193 q 353 278 351 258 q 297 270 333 275 q 219 263 261 265 q 135 264 178 261 q 60 278 93 267 q 10 312 28 289 q 0 374 -8 335 q 22 425 4 394 q 63 488 40 456 q 109 551 86 521 q 144 600 132 581 q 325 896 243 743 q 335 918 329 904 q 349 946 342 932 q 364 972 357 960 q 378 989 371 983 q 410 1001 390 999 q 449 999 429 1003 q 485 987 468 996 q 510 964 501 978 q 506 908 521 944 q 461 825 490 871 q 394 728 432 779 q 324 629 357 678 q 270 538 292 581 q 251 467 249 494 q 322 465 297 454 q 360 499 347 475 q 376 557 372 524 q 386 624 381 590 q 401 685 392 657 q 436 728 411 713 q 485 745 458 742 q 536 750 511 749 q 582 748 558 751 q 624 729 606 744 q 647 676 643 713 q 649 598 650 639 q 649 519 649 557 q 665 464 650 482 q 694 464 679 464 q 722 461 708 464 q 748 452 736 458 q 768 432 760 446 q 782 373 782 408 q 769 314 782 338 q 742 285 758 293 q 708 272 725 276 q 674 266 690 268 q 649 258 658 264 z "},"5":{"ha":814,"x_min":43,"x_max":782,"o":"m 581 -3 q 514 -20 556 -14 q 422 -28 472 -26 q 318 -28 372 -31 q 216 -16 264 -25 q 131 9 168 -7 q 75 47 93 25 q 51 94 58 68 q 43 149 43 121 q 51 197 43 168 q 74 254 60 226 q 109 301 89 282 q 153 321 129 321 q 192 313 169 321 q 241 296 215 306 q 294 277 267 286 q 344 267 321 268 q 385 266 360 265 q 438 271 411 267 q 487 283 464 275 q 518 306 510 290 q 526 330 525 317 q 525 354 526 343 q 490 430 518 407 q 420 461 461 453 q 331 468 379 469 q 238 469 283 467 q 156 483 193 471 q 100 529 118 494 q 86 583 92 546 q 78 667 81 619 q 78 766 76 714 q 84 863 79 818 q 99 942 89 908 q 122 989 108 976 q 149 1000 133 999 q 179 1004 165 1001 q 312 1018 244 1015 q 446 1025 379 1021 q 508 1028 472 1026 q 581 1024 544 1029 q 649 1007 618 1019 q 694 968 679 994 q 706 930 704 951 q 701 888 707 908 q 685 848 696 867 q 661 817 675 829 q 591 789 633 792 q 502 791 549 786 q 410 803 456 796 q 332 804 365 810 q 282 773 299 799 q 275 688 265 747 q 300 649 281 660 q 349 638 319 639 q 415 640 378 636 q 492 642 451 643 q 573 634 532 642 q 651 601 614 626 q 733 503 703 568 q 773 363 764 438 q 769 215 782 288 q 719 97 756 143 q 657 39 693 63 q 581 -3 621 15 z "},"6":{"ha":796,"x_min":35,"x_max":769,"o":"m 344 613 q 533 658 451 667 q 667 603 614 650 q 744 483 719 557 q 765 328 769 408 q 727 174 761 249 q 629 53 693 100 q 550 16 596 29 q 455 -1 504 3 q 357 -3 406 -6 q 269 6 308 -1 q 144 63 192 18 q 71 169 96 107 q 40 302 46 231 q 42 439 35 374 q 72 574 49 508 q 126 703 96 640 q 176 785 143 736 q 249 879 208 833 q 334 960 290 925 q 415 1001 378 994 q 468 996 440 1006 q 517 967 496 986 q 546 922 538 947 q 538 871 554 897 q 489 822 518 839 q 431 783 460 806 q 378 723 403 761 q 344 613 354 685 m 396 139 q 459 146 431 128 q 507 197 488 164 q 535 274 526 231 q 539 358 543 318 q 516 428 535 397 q 461 468 497 460 q 401 458 428 476 q 355 406 374 439 q 328 331 336 374 q 324 250 319 289 q 345 180 328 211 q 396 139 363 149 z "},"7":{"ha":706,"x_min":22,"x_max":717,"o":"m 568 994 q 599 994 582 993 q 634 994 617 994 q 667 991 651 994 q 693 978 682 988 q 715 932 713 960 q 707 871 717 904 q 680 802 697 838 q 643 733 663 767 q 606 672 624 700 q 579 626 589 644 q 464 368 511 504 q 449 317 457 350 q 432 247 442 285 q 410 168 422 208 q 385 93 399 128 q 358 34 372 58 q 328 3 343 10 q 285 -6 313 -4 q 228 -5 258 -7 q 170 2 199 -3 q 125 11 142 7 q 75 35 94 19 q 58 86 56 51 q 75 152 60 107 q 110 247 90 197 q 151 342 131 297 q 182 410 171 388 q 242 524 211 468 q 301 639 274 581 q 350 738 325 689 q 404 835 375 788 q 330 836 381 836 q 225 838 279 836 q 126 841 171 839 q 67 849 81 843 q 47 860 56 853 q 32 878 38 867 q 24 924 22 897 q 39 967 25 950 q 99 993 56 986 q 192 1001 142 1000 q 291 998 243 1001 q 364 994 339 994 q 408 996 378 994 q 472 999 439 997 q 532 999 504 1000 q 568 994 560 999 z "},"8":{"ha":772,"x_min":42,"x_max":736,"o":"m 583 494 q 658 423 624 463 q 713 336 692 383 q 734 228 736 282 q 709 126 732 174 q 644 44 686 79 q 546 -7 601 10 q 419 -26 489 -24 q 283 -15 350 -29 q 160 35 217 0 q 74 128 103 69 q 45 226 49 176 q 56 323 42 276 q 99 411 69 369 q 168 486 128 453 q 76 642 99 569 q 66 776 54 715 q 118 883 78 836 q 215 958 158 929 q 336 997 271 986 q 464 995 401 1007 q 579 949 526 983 q 663 853 632 914 q 684 733 693 792 q 651 624 675 674 q 604 541 628 575 q 583 494 581 507 m 397 646 q 429 725 428 689 q 415 785 431 761 q 373 815 399 808 q 324 808 347 822 q 305 773 307 799 q 313 720 303 747 q 345 671 324 693 q 397 646 367 649 m 319 385 q 289 312 292 353 q 302 240 286 271 q 348 200 318 210 q 415 222 378 190 q 438 271 440 243 q 419 324 436 299 q 374 367 401 350 q 319 385 346 385 z "},"9":{"ha":847,"x_min":35,"x_max":819,"o":"m 518 483 q 374 394 454 422 q 207 394 294 367 q 119 456 150 413 q 77 558 88 500 q 75 680 67 615 q 105 804 83 744 q 159 913 126 864 q 232 986 192 961 q 359 1030 290 1022 q 493 1026 428 1038 q 556 1012 525 1021 q 614 983 586 1003 q 678 932 647 960 q 732 869 708 904 q 802 682 785 789 q 803 467 819 575 q 738 258 786 358 q 613 88 690 157 q 433 -8 536 19 q 201 4 329 -35 q 159 16 179 11 q 121 28 139 21 q 86 47 103 35 q 56 82 69 60 q 40 162 35 114 q 70 251 46 210 q 134 317 94 293 q 221 326 174 342 q 273 297 250 317 q 321 261 296 276 q 376 248 342 247 q 433 260 410 249 q 480 299 463 272 q 506 357 497 325 q 516 422 514 389 q 518 483 518 456 m 358 596 q 419 604 393 589 q 460 645 444 619 q 481 704 476 671 q 478 767 485 738 q 451 817 471 796 q 399 842 432 839 q 359 828 378 843 q 326 787 340 813 q 305 731 313 761 q 300 672 297 700 q 316 622 303 643 q 358 596 329 601 z "},"\u0000":{"ha":0,"x_min":0,"x_max":0,"o":""},"\r":{"ha":417,"x_min":0,"x_max":0,"o":""}," ":{"ha":417,"x_min":0,"x_max":0,"o":""},"!":{"ha":465,"x_min":40,"x_max":418,"o":"m 322 313 q 285 282 313 290 q 226 278 257 274 q 168 298 194 282 q 136 339 142 314 q 97 423 113 375 q 69 522 81 471 q 52 624 58 574 q 43 718 46 675 q 43 799 40 758 q 61 878 46 839 q 105 944 76 917 q 168 985 133 971 q 240 1001 203 1000 q 311 989 278 1003 q 369 945 344 975 q 406 869 394 915 q 417 772 417 821 q 415 674 418 722 q 408 586 413 638 q 394 483 404 535 q 366 385 383 431 q 322 313 349 339 m 340 14 q 300 -6 324 1 q 251 -15 276 -14 q 203 -10 226 -17 q 165 13 181 -4 q 142 56 149 31 q 138 109 135 82 q 151 160 140 136 q 182 200 163 185 q 249 227 215 225 q 310 217 282 229 q 358 179 338 204 q 385 125 378 154 q 382 66 392 96 q 340 14 372 36 z "},"\"":{"ha":626,"x_min":33,"x_max":597,"o":"m 468 626 q 451 622 461 624 q 431 619 442 619 q 411 620 421 618 q 396 626 401 622 q 388 647 393 628 q 378 693 383 665 q 366 753 372 721 q 356 814 360 785 q 349 865 351 843 q 346 894 346 888 q 351 925 347 910 q 363 953 354 940 q 418 1000 382 982 q 508 1004 463 1024 q 565 957 544 988 q 591 888 585 926 q 591 808 597 850 q 568 731 585 767 q 526 666 551 694 q 468 626 500 638 m 156 621 q 139 617 149 618 q 119 615 129 615 q 99 615 108 614 q 83 621 89 617 q 76 642 81 624 q 65 688 71 661 q 54 747 60 715 q 44 808 49 779 q 36 860 39 838 q 33 889 33 882 q 50 949 33 921 q 75 976 60 964 q 106 996 90 988 q 150 1008 128 1008 q 196 999 172 1008 q 253 953 233 983 q 279 883 274 922 q 278 803 285 844 q 253 725 271 763 q 211 660 236 688 q 156 621 186 632 z "},"«":{"ha":626,"x_min":33,"x_max":597,"o":"m 468 626 q 451 622 461 624 q 431 619 442 619 q 411 620 421 618 q 396 626 401 622 q 388 647 393 628 q 378 693 383 665 q 366 753 372 721 q 356 814 360 785 q 349 865 351 843 q 346 894 346 888 q 351 925 347 910 q 363 953 354 940 q 418 1000 382 982 q 508 1004 463 1024 q 565 957 544 988 q 591 888 585 926 q 591 808 597 850 q 568 731 585 767 q 526 666 551 694 q 468 626 500 638 m 156 621 q 139 617 149 618 q 119 615 129 615 q 99 615 108 614 q 83 621 89 617 q 76 642 81 624 q 65 688 71 661 q 54 747 60 715 q 44 808 49 779 q 36 860 39 838 q 33 889 33 882 q 50 949 33 921 q 75 976 60 964 q 106 996 90 988 q 150 1008 128 1008 q 196 999 172 1008 q 253 953 233 983 q 279 883 274 922 q 278 803 285 844 q 253 725 271 763 q 211 660 236 688 q 156 621 186 632 z "},"»":{"ha":626,"x_min":33,"x_max":597,"o":"m 468 626 q 451 622 461 624 q 431 619 442 619 q 411 620 421 618 q 396 626 401 622 q 388 647 393 628 q 378 693 383 665 q 366 753 372 721 q 356 814 360 785 q 349 865 351 843 q 346 894 346 888 q 351 925 347 910 q 363 953 354 940 q 418 1000 382 982 q 508 1004 463 1024 q 565 957 544 988 q 591 888 585 926 q 591 808 597 850 q 568 731 585 767 q 526 666 551 694 q 468 626 500 638 m 156 621 q 139 617 149 618 q 119 615 129 615 q 99 615 108 614 q 83 621 89 617 q 76 642 81 624 q 65 688 71 661 q 54 747 60 715 q 44 808 49 779 q 36 860 39 838 q 33 889 33 882 q 50 949 33 921 q 75 976 60 964 q 106 996 90 988 q 150 1008 128 1008 q 196 999 172 1008 q 253 953 233 983 q 279 883 274 922 q 278 803 285 844 q 253 725 271 763 q 211 660 236 688 q 156 621 186 632 z "},"„":{"ha":626,"x_min":33,"x_max":597,"o":"m 468 626 q 451 622 461 624 q 431 619 442 619 q 411 620 421 618 q 396 626 401 622 q 388 647 393 628 q 378 693 383 665 q 366 753 372 721 q 356 814 360 785 q 349 865 351 843 q 346 894 346 888 q 351 925 347 910 q 363 953 354 940 q 418 1000 382 982 q 508 1004 463 1024 q 565 957 544 988 q 591 888 585 926 q 591 808 597 850 q 568 731 585 767 q 526 666 551 694 q 468 626 500 638 m 156 621 q 139 617 149 618 q 119 615 129 615 q 99 615 108 614 q 83 621 89 617 q 76 642 81 624 q 65 688 71 661 q 54 747 60 715 q 44 808 49 779 q 36 860 39 838 q 33 889 33 882 q 50 949 33 921 q 75 976 60 964 q 106 996 90 988 q 150 1008 128 1008 q 196 999 172 1008 q 253 953 233 983 q 279 883 274 922 q 278 803 285 844 q 253 725 271 763 q 211 660 236 688 q 156 621 186 632 z "},"‟":{"ha":626,"x_min":33,"x_max":597,"o":"m 468 626 q 451 622 461 624 q 431 619 442 619 q 411 620 421 618 q 396 626 401 622 q 388 647 393 628 q 378 693 383 665 q 366 753 372 721 q 356 814 360 785 q 349 865 351 843 q 346 894 346 888 q 351 925 347 910 q 363 953 354 940 q 418 1000 382 982 q 508 1004 463 1024 q 565 957 544 988 q 591 888 585 926 q 591 808 597 850 q 568 731 585 767 q 526 666 551 694 q 468 626 500 638 m 156 621 q 139 617 149 618 q 119 615 129 615 q 99 615 108 614 q 83 621 89 617 q 76 642 81 624 q 65 688 71 661 q 54 747 60 715 q 44 808 49 779 q 36 860 39 838 q 33 889 33 882 q 50 949 33 921 q 75 976 60 964 q 106 996 90 988 q 150 1008 128 1008 q 196 999 172 1008 q 253 953 233 983 q 279 883 274 922 q 278 803 285 844 q 253 725 271 763 q 211 660 236 688 q 156 621 186 632 z "},"#":{"ha":1011,"x_min":28,"x_max":976,"o":"m 722 253 q 719 199 721 232 q 711 130 717 165 q 695 64 706 94 q 667 21 685 33 q 622 1 647 6 q 569 -1 596 -4 q 518 14 542 3 q 479 43 494 25 q 461 92 463 63 q 466 152 460 121 q 483 214 472 183 q 500 265 493 244 q 445 271 472 268 q 390 276 418 274 q 382 223 385 250 q 376 169 379 196 q 367 115 372 142 q 351 63 361 88 q 309 15 339 31 q 245 -1 279 0 q 179 11 211 -3 q 132 53 147 25 q 122 106 119 75 q 135 168 125 136 q 159 230 146 200 q 181 282 172 260 q 148 281 168 282 q 106 281 128 279 q 67 286 85 282 q 40 300 49 290 q 28 337 29 313 q 33 385 28 361 q 51 430 39 410 q 78 457 63 450 q 103 460 88 461 q 135 455 118 458 q 169 447 153 451 q 196 442 185 443 l 208 493 q 185 493 200 493 q 156 493 171 493 q 126 494 140 493 q 107 497 113 494 q 76 526 83 506 q 74 571 69 547 q 89 617 78 594 q 115 651 100 640 q 144 662 128 661 q 176 659 160 663 q 210 649 193 656 q 240 640 226 643 q 253 719 247 681 q 269 797 258 758 q 304 856 281 833 q 358 890 328 879 q 419 899 388 900 q 477 888 451 899 q 519 856 503 876 q 536 810 536 836 q 529 769 536 793 q 513 719 522 744 q 493 669 503 693 q 475 629 483 646 q 524 624 500 626 q 574 624 549 622 q 586 692 578 653 q 607 769 594 731 q 637 843 619 808 q 675 899 654 878 q 731 932 699 922 q 796 944 764 942 q 887 936 857 951 q 924 892 917 921 q 923 826 932 864 q 897 750 914 789 q 858 675 879 711 q 824 615 838 639 q 857 616 838 615 q 895 615 876 617 q 931 608 914 614 q 958 592 947 603 q 973 559 969 579 q 974 518 976 539 q 960 480 971 497 q 935 454 950 463 q 897 445 919 446 q 852 447 875 444 q 807 455 829 450 q 768 463 785 460 l 749 410 q 785 410 761 410 q 835 409 810 410 q 883 407 861 408 q 915 401 906 406 q 945 372 936 393 q 953 325 954 350 q 943 277 953 300 q 918 242 933 254 q 879 231 906 232 q 823 235 853 231 q 765 244 793 239 q 722 253 738 250 m 424 417 q 460 414 443 415 q 497 410 478 413 q 508 448 503 429 q 521 486 514 467 q 483 487 501 486 q 444 489 464 488 q 435 453 439 471 q 424 417 431 435 z "},"$":{"ha":767,"x_min":35,"x_max":728,"o":"m 489 79 q 496 47 492 64 q 502 14 500 31 q 501 -19 504 -3 q 488 -47 499 -35 q 444 -72 472 -65 q 390 -75 417 -79 q 340 -55 363 -71 q 313 -11 318 -39 q 313 33 308 11 q 324 75 318 54 q 235 75 281 72 q 148 93 189 78 q 78 139 107 108 q 39 222 49 169 q 40 275 35 249 q 60 324 46 301 q 95 361 74 346 q 144 383 117 376 q 208 380 178 392 q 269 351 238 368 q 333 317 300 333 q 406 301 365 301 q 423 303 413 301 q 436 314 433 306 q 433 336 440 324 q 415 360 426 349 q 390 379 403 371 q 368 390 376 388 q 288 426 331 403 q 205 478 244 449 q 133 544 165 508 q 88 619 101 581 q 80 727 71 665 q 118 844 89 789 q 192 938 147 899 q 290 976 236 976 q 296 1051 286 1022 q 324 1097 306 1081 q 363 1119 342 1114 q 406 1119 385 1124 q 442 1105 426 1115 q 461 1081 457 1094 q 460 1030 468 1057 q 446 981 453 1003 q 556 985 499 985 q 661 960 613 985 q 705 915 689 946 q 724 849 721 885 q 719 776 728 813 q 692 711 711 739 q 640 670 672 683 q 567 669 608 657 q 516 692 539 676 q 469 719 493 707 q 451 724 456 719 q 431 725 446 729 q 404 675 399 703 q 438 615 410 647 q 507 547 465 583 q 590 473 549 511 q 666 394 632 435 q 711 311 700 353 q 706 213 724 263 q 649 135 689 164 q 573 95 614 110 q 489 79 532 81 z "},"%":{"ha":950,"x_min":29,"x_max":925,"o":"m 296 607 q 199 577 244 576 q 117 600 153 578 q 60 663 82 622 q 34 751 39 703 q 45 851 29 799 q 101 951 61 904 q 123 974 111 963 q 149 992 135 985 q 181 1002 164 999 q 213 1006 197 1006 q 314 980 274 1004 q 376 919 354 956 q 401 836 397 882 q 393 747 404 790 q 357 665 382 703 q 296 607 332 628 m 676 997 q 740 990 707 1000 q 794 957 774 981 q 825 886 825 924 q 809 812 825 849 q 768 741 793 775 q 722 681 743 707 q 600 492 651 589 q 511 286 549 396 q 473 173 492 229 q 422 65 454 117 q 369 4 399 25 q 292 -14 340 -17 q 230 -2 263 -12 q 170 27 197 8 q 125 73 143 46 q 106 133 107 100 q 121 197 106 167 q 189 310 149 257 q 265 415 229 363 q 346 538 307 476 q 419 667 385 600 q 485 798 454 732 q 557 926 517 864 q 578 953 565 939 q 608 980 592 968 q 642 997 625 992 q 676 997 660 1003 m 213 740 q 237 745 225 733 q 256 776 249 757 q 264 817 264 796 q 251 853 264 839 q 223 858 238 869 q 201 823 208 846 q 194 775 193 800 q 213 740 196 750 m 818 31 q 755 8 789 13 q 688 10 721 3 q 627 35 656 17 q 581 83 599 54 q 556 167 558 118 q 566 266 553 217 q 606 356 579 315 q 671 415 633 396 q 735 429 703 431 q 837 402 797 426 q 898 340 876 378 q 922 258 919 303 q 914 169 925 213 q 878 88 903 125 q 818 31 853 51 m 733 164 q 757 168 744 157 q 777 198 769 179 q 785 239 785 217 q 772 276 785 261 q 744 281 758 293 q 722 247 729 269 q 715 198 714 224 q 733 164 717 172 z "},"&":{"ha":1057,"x_min":22,"x_max":1029,"o":"m 685 63 q 606 29 643 43 q 524 4 568 15 q 399 -16 461 -11 q 275 -11 338 -21 q 147 38 200 0 q 65 126 94 75 q 28 235 35 176 q 41 349 22 294 q 102 450 60 404 q 214 521 144 496 q 155 615 168 560 q 151 729 142 671 q 189 842 161 788 q 254 932 217 896 q 318 972 282 960 q 390 993 354 985 q 467 1006 421 1000 q 560 1010 513 1011 q 651 1001 608 1010 q 719 971 694 992 q 763 901 753 942 q 761 823 772 860 q 719 763 750 786 q 639 744 688 739 q 569 776 599 750 q 513 829 539 803 q 463 869 488 856 q 407 860 438 882 q 365 805 379 840 q 357 736 350 769 q 378 693 363 707 q 413 671 393 679 q 452 655 432 663 q 488 631 472 647 q 506 567 511 604 q 479 507 501 531 q 440 476 463 489 q 398 448 418 463 q 363 415 378 433 q 343 367 347 396 q 345 308 340 339 q 364 251 350 276 q 415 207 382 219 q 483 196 447 194 q 554 212 519 197 q 611 249 589 226 q 639 292 629 267 q 656 340 649 317 q 568 352 603 338 q 516 390 533 367 q 497 440 499 413 q 507 492 494 468 q 544 530 519 515 q 606 543 569 544 q 678 535 642 540 q 750 533 714 529 q 809 547 779 538 q 869 565 839 557 q 928 572 899 572 q 988 553 958 571 q 1021 504 1013 538 q 1023 435 1029 471 q 997 372 1017 400 q 947 338 978 343 q 906 336 926 333 q 866 344 885 339 q 829 353 847 349 q 796 354 811 357 q 794 327 790 343 q 803 301 799 311 q 842 253 817 269 q 894 228 867 238 q 947 212 921 219 q 992 190 974 204 q 1015 148 1010 175 q 1006 74 1019 121 q 949 6 990 24 q 860 -8 908 -12 q 765 16 811 -4 q 690 64 718 36 l 685 63 z "},"'":{"ha":314,"x_min":33,"x_max":285,"o":"m 156 629 q 139 625 149 626 q 119 623 129 624 q 99 624 108 622 q 83 629 89 625 q 76 651 81 632 q 65 697 71 669 q 54 756 60 724 q 44 817 49 788 q 36 868 39 846 q 33 897 33 890 q 50 957 33 929 q 75 984 60 972 q 106 1004 90 996 q 150 1017 128 1017 q 196 1007 172 1017 q 253 961 233 992 q 279 892 274 931 q 278 812 285 853 q 253 733 271 771 q 211 668 236 696 q 156 629 186 640 z "},"‚":{"ha":314,"x_min":33,"x_max":285,"o":"m 156 629 q 139 625 149 626 q 119 623 129 624 q 99 624 108 622 q 83 629 89 625 q 76 651 81 632 q 65 697 71 669 q 54 756 60 724 q 44 817 49 788 q 36 868 39 846 q 33 897 33 890 q 50 957 33 929 q 75 984 60 972 q 106 1004 90 996 q 150 1017 128 1017 q 196 1007 172 1017 q 253 961 233 992 q 279 892 274 931 q 278 812 285 853 q 253 733 271 771 q 211 668 236 696 q 156 629 186 640 z "},"‛":{"ha":314,"x_min":33,"x_max":285,"o":"m 156 629 q 139 625 149 626 q 119 623 129 624 q 99 624 108 622 q 83 629 89 625 q 76 651 81 632 q 65 697 71 669 q 54 756 60 724 q 44 817 49 788 q 36 868 39 846 q 33 897 33 890 q 50 957 33 929 q 75 984 60 972 q 106 1004 90 996 q 150 1017 128 1017 q 196 1007 172 1017 q 253 961 233 992 q 279 892 274 931 q 278 812 285 853 q 253 733 271 771 q 211 668 236 696 q 156 629 186 640 z "},"›":{"ha":314,"x_min":33,"x_max":285,"o":"m 156 629 q 139 625 149 626 q 119 623 129 624 q 99 624 108 622 q 83 629 89 625 q 76 651 81 632 q 65 697 71 669 q 54 756 60 724 q 44 817 49 788 q 36 868 39 846 q 33 897 33 890 q 50 957 33 929 q 75 984 60 972 q 106 1004 90 996 q 150 1017 128 1017 q 196 1007 172 1017 q 253 961 233 992 q 279 892 274 931 q 278 812 285 853 q 253 733 271 771 q 211 668 236 696 q 156 629 186 640 z "},"(":{"ha":517,"x_min":33,"x_max":539,"o":"m 406 -42 q 366 -41 386 -44 q 326 -31 346 -37 q 178 52 238 -1 q 85 175 118 106 q 42 325 51 244 q 46 490 33 406 q 89 655 58 574 q 166 808 119 736 q 272 935 213 879 q 403 1024 332 992 q 439 1037 417 1029 q 483 1045 461 1044 q 520 1036 504 1046 q 538 1000 536 1026 q 517 954 539 985 q 465 890 494 924 q 406 824 435 857 q 365 772 378 792 q 323 674 338 726 q 301 569 308 622 q 303 369 288 471 q 369 179 319 267 q 394 145 378 164 q 425 107 410 126 q 453 69 440 88 q 468 38 465 51 q 453 -13 472 10 q 406 -42 433 -36 z "},")":{"ha":517,"x_min":-24,"x_max":482,"o":"m 114 -19 q 75 -33 99 -26 q 29 -40 51 -40 q -8 -29 7 -40 q -21 13 -24 -18 q 3 55 -19 26 q 54 117 25 83 q 112 181 83 150 q 151 232 140 213 q 194 330 179 278 q 215 435 208 382 q 213 635 229 533 q 147 824 196 736 q 123 857 139 838 q 92 896 107 876 q 63 934 76 915 q 49 967 50 953 q 57 1015 43 999 q 94 1038 71 1032 q 144 1042 117 1044 q 190 1035 171 1040 q 337 953 278 1006 q 430 831 396 900 q 473 681 464 761 q 471 516 482 600 q 429 351 460 432 q 352 198 399 269 q 245 70 306 126 q 114 -19 185 14 z "},"*":{"ha":565,"x_min":29,"x_max":532,"o":"m 328 682 q 331 647 328 671 q 336 599 335 624 q 334 553 338 574 q 318 532 331 533 q 289 528 307 529 q 254 530 271 528 q 226 540 238 532 q 217 565 215 549 q 225 624 219 596 q 232 683 231 653 q 200 657 225 678 q 148 618 175 636 q 98 592 121 600 q 71 604 75 585 q 51 633 61 618 q 35 663 42 647 q 49 692 29 674 q 97 730 69 711 q 152 765 125 749 q 189 789 179 782 q 125 829 158 811 q 57 863 92 847 q 43 878 46 868 q 47 899 40 888 q 54 912 49 901 q 67 933 60 922 q 81 954 74 944 q 90 965 88 964 q 120 958 99 969 q 166 931 142 947 q 212 899 190 915 q 242 875 233 882 q 239 930 242 903 q 233 985 236 957 q 249 1006 232 999 q 286 1015 265 1014 q 326 1010 307 1015 q 347 992 344 1004 q 348 970 349 986 q 346 936 347 954 q 343 901 344 918 q 342 874 342 883 q 404 912 372 893 q 468 947 436 931 q 494 942 482 954 q 515 910 507 929 q 525 870 524 890 q 517 843 526 850 q 449 808 488 822 q 379 775 411 793 q 449 731 415 753 q 519 686 483 708 q 531 663 532 678 q 521 631 529 647 q 501 599 513 614 q 482 576 489 583 q 450 579 472 567 q 403 612 428 592 q 358 653 379 632 q 328 682 336 674 z "},"+":{"ha":674,"x_min":15,"x_max":658,"o":"m 439 299 q 444 256 440 282 q 450 205 447 231 q 452 156 453 179 q 443 118 451 132 q 417 96 435 104 q 379 83 400 88 q 338 78 358 79 q 303 79 317 76 q 270 88 288 82 q 243 107 253 94 q 233 147 233 119 q 235 208 232 175 q 241 272 238 240 q 244 321 244 303 q 203 315 229 319 q 151 309 178 311 q 100 308 124 307 q 64 315 76 308 q 44 335 51 322 q 32 361 36 347 q 26 449 15 421 q 67 488 38 478 q 138 495 96 497 q 222 493 179 493 q 213 544 218 515 q 207 602 207 574 q 215 656 207 631 q 246 697 224 682 q 299 718 265 711 q 366 722 332 725 q 427 706 400 719 q 461 663 454 692 q 464 621 465 643 q 458 575 463 599 q 449 528 454 551 q 440 488 444 506 q 494 495 465 492 q 551 498 524 499 q 603 490 579 497 q 641 467 626 483 q 657 424 656 451 q 643 357 658 397 q 621 325 638 339 q 585 310 608 315 q 534 302 561 304 q 481 299 507 300 q 439 299 456 299 z "},",":{"ha":382,"x_min":24,"x_max":353,"o":"m 207 -24 q 130 -40 165 -44 q 70 -12 94 -35 q 35 44 46 10 q 30 113 24 78 q 62 181 36 149 q 138 235 88 214 q 229 247 189 256 q 297 211 269 239 q 339 141 325 183 q 351 51 353 99 q 333 -44 350 4 q 279 -132 315 -93 q 260 -147 274 -137 q 233 -167 247 -157 q 203 -183 218 -176 q 182 -190 189 -190 q 161 -174 165 -190 q 163 -146 157 -157 q 188 -86 176 -117 q 207 -24 200 -56 z "},"-":{"ha":768,"x_min":25,"x_max":744,"o":"m 665 282 q 615 278 646 276 q 550 283 585 279 q 483 290 515 286 q 428 296 450 294 q 312 294 369 300 q 196 283 254 289 q 142 281 169 281 q 89 292 114 282 q 40 342 54 306 q 28 417 25 378 q 51 489 31 457 q 110 525 72 521 q 175 531 133 528 q 268 535 217 533 q 376 539 319 538 q 483 540 432 540 q 574 540 533 540 q 638 536 615 539 q 670 528 654 533 q 700 513 686 524 q 735 458 725 493 q 740 388 744 424 q 717 322 736 351 q 665 282 699 292 z "},".":{"ha":379,"x_min":25,"x_max":354,"o":"m 272 17 q 181 -2 232 -4 q 90 22 129 0 q 38 88 51 44 q 32 178 25 132 q 65 264 39 225 q 133 315 92 303 q 233 323 190 333 q 303 285 276 313 q 342 220 331 258 q 350 142 354 182 q 326 69 346 103 q 272 17 307 35 z "},"/":{"ha":513,"x_min":-12,"x_max":542,"o":"m 199 -94 q 148 -101 179 -106 q 86 -83 117 -97 q 31 -50 56 -69 q -3 -10 6 -31 q -8 40 -12 14 q 4 90 -3 67 q 74 298 38 194 q 147 506 111 401 q 217 715 183 610 q 275 926 250 819 q 285 969 279 942 q 299 1024 292 996 q 314 1076 306 1051 q 329 1113 322 1101 q 377 1144 346 1138 q 440 1143 408 1150 q 500 1119 472 1136 q 536 1076 528 1101 q 541 1049 542 1063 q 538 1021 540 1035 q 511 917 531 976 q 468 796 492 858 q 421 674 444 733 q 381 568 397 614 q 315 318 339 447 q 263 64 290 189 q 249 8 256 36 q 232 -49 243 -21 q 219 -74 226 -61 q 199 -94 211 -87 z "},":":{"ha":421,"x_min":32,"x_max":388,"o":"m 306 461 q 214 442 265 440 q 124 465 163 443 q 72 531 85 488 q 66 622 58 575 q 100 707 74 668 q 167 758 126 746 q 267 765 225 775 q 337 728 310 756 q 376 663 364 701 q 383 586 388 625 q 360 513 379 547 q 306 461 340 479 m 281 10 q 189 -10 240 -11 q 99 14 138 -10 q 46 81 60 36 q 40 171 32 125 q 74 256 47 217 q 142 307 100 294 q 241 315 199 325 q 311 278 283 304 q 351 213 339 251 q 358 136 363 175 q 335 63 354 97 q 281 10 315 28 z "},";":{"ha":407,"x_min":36,"x_max":371,"o":"m 289 461 q 197 442 249 440 q 106 465 144 443 q 53 531 67 488 q 48 622 40 575 q 82 707 56 668 q 149 758 108 746 q 249 767 207 776 q 319 730 292 757 q 358 664 346 703 q 367 586 371 625 q 343 513 363 547 q 289 461 324 479 m 219 -24 q 142 -40 178 -44 q 83 -12 107 -35 q 47 44 58 10 q 42 113 36 78 q 74 181 49 149 q 150 235 100 214 q 242 247 201 256 q 310 211 282 239 q 351 141 338 183 q 364 51 365 99 q 345 -44 363 4 q 292 -132 328 -93 q 273 -147 286 -137 q 245 -167 260 -157 q 216 -183 231 -176 q 194 -190 201 -190 q 174 -174 178 -190 q 175 -146 169 -157 q 201 -86 189 -117 q 219 -24 213 -56 z "},"<":{"ha":564,"x_min":21,"x_max":538,"o":"m 229 322 q 356 269 292 299 q 478 208 419 240 q 527 150 517 186 q 506 78 538 114 q 481 59 494 67 q 451 54 467 51 q 408 72 439 56 q 342 110 378 89 q 274 153 307 132 q 224 182 240 174 q 158 209 192 199 q 90 232 124 219 q 63 244 75 238 q 40 264 50 251 q 22 314 24 286 q 35 365 21 342 q 67 398 43 379 q 121 436 92 417 q 179 475 150 456 q 225 511 208 494 q 255 547 239 525 q 288 589 271 568 q 322 627 304 610 q 358 651 339 644 q 431 648 396 665 q 490 597 467 631 q 521 524 514 564 q 508 456 528 485 q 456 409 492 429 q 381 373 421 389 q 299 344 340 357 q 229 322 258 332 z "},"=":{"ha":797,"x_min":36,"x_max":763,"o":"m 683 460 q 635 456 667 456 q 568 461 603 457 q 500 469 533 465 q 446 475 467 474 q 365 474 413 478 q 268 465 317 469 q 176 461 219 461 q 107 471 132 461 q 56 521 71 485 q 44 596 42 557 q 69 667 47 635 q 128 704 90 699 q 189 710 147 707 q 283 715 231 713 q 392 718 335 717 q 502 719 450 719 q 595 719 554 719 q 656 715 636 718 q 688 708 672 713 q 717 692 704 703 q 752 636 742 671 q 758 565 763 601 q 735 499 754 529 q 683 460 717 469 m 676 132 q 628 128 660 128 q 562 133 597 129 q 493 142 526 138 q 439 147 460 146 q 358 146 406 150 q 261 138 310 142 q 169 133 213 133 q 100 143 125 133 q 51 193 65 157 q 39 268 36 229 q 63 339 42 307 q 121 376 83 371 q 181 382 140 379 q 274 387 222 385 q 385 390 326 389 q 495 392 443 392 q 588 391 547 392 q 649 388 629 390 q 681 380 665 385 q 711 364 697 375 q 744 310 735 344 q 750 238 754 275 q 728 172 746 201 q 676 132 710 142 z "},">":{"ha":564,"x_min":29,"x_max":546,"o":"m 335 322 q 265 345 306 333 q 183 373 224 357 q 108 409 143 389 q 56 456 74 429 q 44 529 35 486 q 81 606 54 572 q 147 654 108 640 q 225 642 186 668 q 265 606 247 626 q 300 563 283 585 q 335 518 317 540 q 375 479 353 496 q 416 452 392 467 q 464 422 440 438 q 507 390 488 407 q 535 354 526 372 q 541 302 546 329 q 517 256 536 275 q 479 234 500 240 q 438 221 458 228 q 295 156 360 196 q 161 74 231 115 q 135 60 149 67 q 107 54 122 54 q 76 63 90 54 q 42 107 54 76 q 40 163 29 138 q 88 206 49 182 q 174 253 126 231 q 268 295 222 276 q 335 322 314 314 z "},"?":{"ha":728,"x_min":29,"x_max":710,"o":"m 394 408 q 399 365 397 388 q 396 322 401 343 q 350 274 388 288 q 269 265 313 261 q 186 287 225 268 q 136 335 147 306 q 128 385 128 356 q 135 444 128 414 q 156 502 143 475 q 185 544 168 529 q 238 569 207 565 q 302 572 269 572 q 365 576 335 572 q 419 604 396 581 q 444 652 439 624 q 441 708 449 681 q 414 758 433 736 q 367 785 394 779 q 317 777 340 790 q 272 744 294 764 q 228 704 250 724 q 183 676 207 685 q 110 674 140 663 q 60 714 79 686 q 35 780 42 742 q 35 856 29 818 q 59 928 40 894 q 108 978 78 961 q 180 1005 143 997 q 256 1015 217 1013 q 399 1014 326 1022 q 538 974 472 1006 q 583 943 563 961 q 622 904 604 925 q 676 816 654 865 q 703 715 697 767 q 685 591 710 644 q 617 500 661 538 q 514 440 572 463 q 394 408 456 417 m 354 21 q 295 -10 328 -3 q 232 -10 263 -17 q 176 13 201 -4 q 139 55 150 31 q 135 110 128 79 q 178 174 143 140 q 233 202 201 196 q 296 201 265 208 q 351 176 326 194 q 388 134 376 158 q 392 80 399 110 q 354 21 386 50 z "},"@":{"ha":1178,"x_min":33,"x_max":1151,"o":"m 771 592 q 781 531 781 568 q 780 454 781 493 q 783 384 779 415 q 806 344 788 353 q 826 343 815 340 q 848 353 838 346 q 867 369 858 360 q 881 385 876 378 q 901 431 894 406 q 910 479 907 456 q 890 639 919 571 q 807 751 861 707 q 683 815 753 796 q 539 826 613 833 q 397 782 465 818 q 281 681 329 746 q 222 521 228 608 q 243 350 215 433 q 328 217 271 264 q 456 145 385 169 q 608 113 528 121 q 763 97 689 104 q 816 70 799 93 q 834 20 833 47 q 822 -31 835 -7 q 783 -61 808 -56 q 717 -68 756 -67 q 639 -68 679 -69 q 560 -62 599 -67 q 493 -54 521 -58 q 288 20 376 -35 q 143 151 200 75 q 60 319 86 228 q 39 504 33 411 q 83 685 44 597 q 193 842 121 772 q 372 956 265 911 q 622 1006 479 1000 q 732 1006 676 1008 q 840 986 788 1003 q 994 896 931 957 q 1095 757 1058 835 q 1142 591 1132 679 q 1132 422 1151 503 q 1063 272 1113 340 q 935 167 1014 204 q 833 138 888 143 q 728 150 778 133 q 663 192 694 161 q 619 256 631 222 q 574 228 597 240 q 522 213 550 215 q 414 230 457 206 q 347 297 371 254 q 318 396 324 340 q 324 506 313 451 q 361 608 335 561 q 426 683 388 656 q 500 716 461 707 q 578 720 539 725 q 656 698 618 715 q 724 654 693 681 q 753 626 735 643 q 771 592 772 608 m 517 389 q 551 383 535 375 q 581 413 568 392 q 599 460 593 433 q 603 511 606 488 q 590 549 601 535 q 556 558 579 564 q 519 532 535 554 q 497 483 503 510 q 494 429 490 456 q 517 389 499 403 z "},"A":{"ha":844,"x_min":4,"x_max":835,"o":"m 214 306 q 197 240 207 281 q 174 156 186 199 q 148 76 163 113 q 118 22 133 39 q 92 4 107 11 q 60 -3 76 -3 q 31 3 44 -4 q 11 29 18 11 q 14 106 4 46 q 42 248 24 167 q 87 423 61 329 q 137 602 113 517 q 182 754 161 688 q 214 849 203 821 q 249 915 228 885 q 300 968 269 944 q 411 1013 353 1008 q 531 999 469 1018 q 626 935 590 979 q 669 865 653 903 q 696 788 685 826 q 728 616 719 703 q 753 442 736 529 q 788 299 768 369 q 822 156 807 228 q 831 106 828 132 q 825 57 835 81 q 797 26 817 38 q 757 8 776 14 q 702 -3 736 3 q 633 -8 668 -8 q 567 1 597 -7 q 525 33 538 10 q 508 87 515 51 q 494 161 500 122 q 485 238 489 200 q 478 299 481 275 q 346 302 411 301 q 214 306 281 303 m 446 490 q 441 544 444 504 q 431 628 438 585 q 417 706 425 671 q 399 749 408 742 q 382 749 390 754 q 367 738 374 743 q 331 690 347 722 q 301 619 314 657 q 281 545 289 582 q 267 483 272 508 q 356 488 311 486 q 446 490 401 489 z "},"À":{"ha":844,"x_min":4,"x_max":835,"o":"m 214 306 q 197 240 207 281 q 174 156 186 199 q 148 76 163 113 q 118 22 133 39 q 92 4 107 11 q 60 -3 76 -3 q 31 3 44 -4 q 11 29 18 11 q 14 106 4 46 q 42 248 24 167 q 87 423 61 329 q 137 602 113 517 q 182 754 161 688 q 214 849 203 821 q 249 915 228 885 q 300 968 269 944 q 411 1013 353 1008 q 531 999 469 1018 q 626 935 590 979 q 669 865 653 903 q 696 788 685 826 q 728 616 719 703 q 753 442 736 529 q 788 299 768 369 q 822 156 807 228 q 831 106 828 132 q 825 57 835 81 q 797 26 817 38 q 757 8 776 14 q 702 -3 736 3 q 633 -8 668 -8 q 567 1 597 -7 q 525 33 538 10 q 508 87 515 51 q 494 161 500 122 q 485 238 489 200 q 478 299 481 275 q 346 302 411 301 q 214 306 281 303 m 446 490 q 441 544 444 504 q 431 628 438 585 q 417 706 425 671 q 399 749 408 742 q 382 749 390 754 q 367 738 374 743 q 331 690 347 722 q 301 619 314 657 q 281 545 289 582 q 267 483 272 508 q 356 488 311 486 q 446 490 401 489 z "},"Á":{"ha":844,"x_min":4,"x_max":835,"o":"m 214 306 q 197 240 207 281 q 174 156 186 199 q 148 76 163 113 q 118 22 133 39 q 92 4 107 11 q 60 -3 76 -3 q 31 3 44 -4 q 11 29 18 11 q 14 106 4 46 q 42 248 24 167 q 87 423 61 329 q 137 602 113 517 q 182 754 161 688 q 214 849 203 821 q 249 915 228 885 q 300 968 269 944 q 411 1013 353 1008 q 531 999 469 1018 q 626 935 590 979 q 669 865 653 903 q 696 788 685 826 q 728 616 719 703 q 753 442 736 529 q 788 299 768 369 q 822 156 807 228 q 831 106 828 132 q 825 57 835 81 q 797 26 817 38 q 757 8 776 14 q 702 -3 736 3 q 633 -8 668 -8 q 567 1 597 -7 q 525 33 538 10 q 508 87 515 51 q 494 161 500 122 q 485 238 489 200 q 478 299 481 275 q 346 302 411 301 q 214 306 281 303 m 446 490 q 441 544 444 504 q 431 628 438 585 q 417 706 425 671 q 399 749 408 742 q 382 749 390 754 q 367 738 374 743 q 331 690 347 722 q 301 619 314 657 q 281 545 289 582 q 267 483 272 508 q 356 488 311 486 q 446 490 401 489 z "},"Â":{"ha":844,"x_min":4,"x_max":835,"o":"m 214 306 q 197 240 207 281 q 174 156 186 199 q 148 76 163 113 q 118 22 133 39 q 92 4 107 11 q 60 -3 76 -3 q 31 3 44 -4 q 11 29 18 11 q 14 106 4 46 q 42 248 24 167 q 87 423 61 329 q 137 602 113 517 q 182 754 161 688 q 214 849 203 821 q 249 915 228 885 q 300 968 269 944 q 411 1013 353 1008 q 531 999 469 1018 q 626 935 590 979 q 669 865 653 903 q 696 788 685 826 q 728 616 719 703 q 753 442 736 529 q 788 299 768 369 q 822 156 807 228 q 831 106 828 132 q 825 57 835 81 q 797 26 817 38 q 757 8 776 14 q 702 -3 736 3 q 633 -8 668 -8 q 567 1 597 -7 q 525 33 538 10 q 508 87 515 51 q 494 161 500 122 q 485 238 489 200 q 478 299 481 275 q 346 302 411 301 q 214 306 281 303 m 446 490 q 441 544 444 504 q 431 628 438 585 q 417 706 425 671 q 399 749 408 742 q 382 749 390 754 q 367 738 374 743 q 331 690 347 722 q 301 619 314 657 q 281 545 289 582 q 267 483 272 508 q 356 488 311 486 q 446 490 401 489 z "},"Ã":{"ha":844,"x_min":4,"x_max":835,"o":"m 214 306 q 197 240 207 281 q 174 156 186 199 q 148 76 163 113 q 118 22 133 39 q 92 4 107 11 q 60 -3 76 -3 q 31 3 44 -4 q 11 29 18 11 q 14 106 4 46 q 42 248 24 167 q 87 423 61 329 q 137 602 113 517 q 182 754 161 688 q 214 849 203 821 q 249 915 228 885 q 300 968 269 944 q 411 1013 353 1008 q 531 999 469 1018 q 626 935 590 979 q 669 865 653 903 q 696 788 685 826 q 728 616 719 703 q 753 442 736 529 q 788 299 768 369 q 822 156 807 228 q 831 106 828 132 q 825 57 835 81 q 797 26 817 38 q 757 8 776 14 q 702 -3 736 3 q 633 -8 668 -8 q 567 1 597 -7 q 525 33 538 10 q 508 87 515 51 q 494 161 500 122 q 485 238 489 200 q 478 299 481 275 q 346 302 411 301 q 214 306 281 303 m 446 490 q 441 544 444 504 q 431 628 438 585 q 417 706 425 671 q 399 749 408 742 q 382 749 390 754 q 367 738 374 743 q 331 690 347 722 q 301 619 314 657 q 281 545 289 582 q 267 483 272 508 q 356 488 311 486 q 446 490 401 489 z "},"Ä":{"ha":844,"x_min":4,"x_max":835,"o":"m 214 306 q 197 240 207 281 q 174 156 186 199 q 148 76 163 113 q 118 22 133 39 q 92 4 107 11 q 60 -3 76 -3 q 31 3 44 -4 q 11 29 18 11 q 14 106 4 46 q 42 248 24 167 q 87 423 61 329 q 137 602 113 517 q 182 754 161 688 q 214 849 203 821 q 249 915 228 885 q 300 968 269 944 q 411 1013 353 1008 q 531 999 469 1018 q 626 935 590 979 q 669 865 653 903 q 696 788 685 826 q 728 616 719 703 q 753 442 736 529 q 788 299 768 369 q 822 156 807 228 q 831 106 828 132 q 825 57 835 81 q 797 26 817 38 q 757 8 776 14 q 702 -3 736 3 q 633 -8 668 -8 q 567 1 597 -7 q 525 33 538 10 q 508 87 515 51 q 494 161 500 122 q 485 238 489 200 q 478 299 481 275 q 346 302 411 301 q 214 306 281 303 m 446 490 q 441 544 444 504 q 431 628 438 585 q 417 706 425 671 q 399 749 408 742 q 382 749 390 754 q 367 738 374 743 q 331 690 347 722 q 301 619 314 657 q 281 545 289 582 q 267 483 272 508 q 356 488 311 486 q 446 490 401 489 z "},"Å":{"ha":844,"x_min":4,"x_max":835,"o":"m 214 306 q 197 240 207 281 q 174 156 186 199 q 148 76 163 113 q 118 22 133 39 q 92 4 107 11 q 60 -3 76 -3 q 31 3 44 -4 q 11 29 18 11 q 14 106 4 46 q 42 248 24 167 q 87 423 61 329 q 137 602 113 517 q 182 754 161 688 q 214 849 203 821 q 249 915 228 885 q 300 968 269 944 q 411 1013 353 1008 q 531 999 469 1018 q 626 935 590 979 q 669 865 653 903 q 696 788 685 826 q 728 616 719 703 q 753 442 736 529 q 788 299 768 369 q 822 156 807 228 q 831 106 828 132 q 825 57 835 81 q 797 26 817 38 q 757 8 776 14 q 702 -3 736 3 q 633 -8 668 -8 q 567 1 597 -7 q 525 33 538 10 q 508 87 515 51 q 494 161 500 122 q 485 238 489 200 q 478 299 481 275 q 346 302 411 301 q 214 306 281 303 m 446 490 q 441 544 444 504 q 431 628 438 585 q 417 706 425 671 q 399 749 408 742 q 382 749 390 754 q 367 738 374 743 q 331 690 347 722 q 301 619 314 657 q 281 545 289 582 q 267 483 272 508 q 356 488 311 486 q 446 490 401 489 z "},"B":{"ha":911,"x_min":49,"x_max":899,"o":"m 382 69 q 315 5 358 21 q 219 -12 271 -11 q 113 10 149 -14 q 63 72 76 33 q 51 161 49 111 q 58 264 54 211 q 70 528 69 396 q 61 792 71 660 q 53 852 58 821 q 51 913 49 883 q 88 979 54 956 q 166 1010 122 1003 q 251 1012 210 1018 q 313 988 293 1006 q 332 958 325 975 q 343 925 339 942 q 503 1006 424 993 q 647 995 582 1019 q 758 917 713 971 q 817 798 804 864 q 806 663 831 732 q 706 536 781 593 q 825 444 781 500 q 884 327 869 389 q 885 203 899 265 q 831 94 872 142 q 724 20 790 47 q 567 1 657 -7 q 382 69 465 10 m 354 782 q 365 688 361 735 q 371 592 369 640 q 506 628 460 596 q 564 700 551 660 q 561 781 576 740 q 515 840 546 821 q 440 850 483 860 q 354 782 397 840 m 379 225 q 479 171 435 176 q 553 185 524 165 q 598 244 583 206 q 610 326 613 283 q 588 406 608 368 q 526 461 567 443 q 454 476 492 476 q 381 468 417 475 q 385 347 381 410 q 379 225 390 283 z "},"C":{"ha":744,"x_min":29,"x_max":738,"o":"m 613 81 q 509 24 567 44 q 393 3 451 4 q 217 42 288 1 q 104 148 146 82 q 46 299 63 214 q 32 474 29 383 q 51 656 33 563 q 110 825 68 749 q 221 951 151 901 q 399 1003 290 1001 q 484 999 442 1004 q 567 978 526 993 q 633 939 596 967 q 696 876 669 911 q 730 801 722 840 q 710 728 738 763 q 668 704 694 710 q 622 711 642 699 q 598 740 607 721 q 578 781 589 760 q 555 817 568 801 q 521 833 542 832 q 488 824 506 833 q 455 801 471 815 q 426 772 439 788 q 407 743 414 756 q 383 688 392 717 q 372 628 375 658 q 368 567 371 608 q 365 474 365 525 q 369 370 364 424 q 385 275 374 317 q 419 209 397 233 q 475 192 440 185 q 514 207 497 196 q 546 232 531 218 q 576 258 561 246 q 611 279 592 271 q 669 279 646 293 q 697 234 693 265 q 681 161 700 203 q 613 81 663 119 z "},"Ç":{"ha":744,"x_min":29,"x_max":738,"o":"m 613 81 q 509 24 567 44 q 393 3 451 4 q 217 42 288 1 q 104 148 146 82 q 46 299 63 214 q 32 474 29 383 q 51 656 33 563 q 110 825 68 749 q 221 951 151 901 q 399 1003 290 1001 q 484 999 442 1004 q 567 978 526 993 q 633 939 596 967 q 696 876 669 911 q 730 801 722 840 q 710 728 738 763 q 668 704 694 710 q 622 711 642 699 q 598 740 607 721 q 578 781 589 760 q 555 817 568 801 q 521 833 542 832 q 488 824 506 833 q 455 801 471 815 q 426 772 439 788 q 407 743 414 756 q 383 688 392 717 q 372 628 375 658 q 368 567 371 608 q 365 474 365 525 q 369 370 364 424 q 385 275 374 317 q 419 209 397 233 q 475 192 440 185 q 514 207 497 196 q 546 232 531 218 q 576 258 561 246 q 611 279 592 271 q 669 279 646 293 q 697 234 693 265 q 681 161 700 203 q 613 81 663 119 z "},"D":{"ha":968,"x_min":47,"x_max":938,"o":"m 361 67 q 308 -1 349 19 q 218 -22 267 -22 q 125 -4 169 -22 q 63 43 81 14 q 49 83 51 61 q 47 124 47 104 q 55 307 47 215 q 69 492 63 399 q 78 676 76 585 q 67 860 79 768 q 64 872 65 867 q 65 885 63 878 q 61 924 63 904 q 71 963 60 944 q 125 994 82 982 q 218 1005 168 1007 q 313 982 268 1003 q 374 914 357 961 q 442 941 406 933 q 515 951 479 949 q 685 924 603 957 q 829 828 768 892 q 898 719 875 779 q 929 595 921 660 q 936 465 938 531 q 931 336 935 399 q 871 133 924 211 q 738 24 818 56 q 560 3 658 -8 q 361 67 461 14 m 369 754 q 377 703 375 733 q 379 639 379 672 q 379 574 379 606 q 379 519 379 542 q 390 414 381 469 q 411 310 400 358 q 462 214 425 243 q 540 185 499 185 q 619 216 581 186 q 675 299 657 246 q 699 433 694 354 q 687 588 703 511 q 631 724 671 664 q 524 804 592 785 q 483 808 504 810 q 441 799 461 806 q 402 780 421 792 q 369 754 383 768 z "},"E":{"ha":822,"x_min":36,"x_max":803,"o":"m 335 408 q 355 328 329 350 q 424 303 381 306 q 522 308 468 300 q 628 318 576 315 q 722 308 681 321 q 783 253 764 296 q 794 204 792 233 q 793 144 796 175 q 782 86 790 114 q 760 42 774 58 q 688 -1 731 6 q 647 -3 679 -3 q 572 -4 615 -4 q 477 -3 528 -4 q 381 -1 426 -1 q 303 1 336 0 q 260 4 269 3 q 183 28 219 10 q 118 78 146 46 q 66 181 85 117 q 42 324 47 246 q 40 486 36 401 q 56 651 44 571 q 85 799 68 731 q 121 913 101 867 q 136 944 126 928 q 159 974 146 961 q 188 997 172 988 q 222 1006 203 1006 q 258 1009 240 1006 q 294 1014 276 1013 q 397 1017 328 1015 q 540 1018 465 1019 q 681 1010 615 1017 q 771 992 746 1004 q 792 969 785 985 q 801 935 800 953 q 799 899 803 917 q 786 868 794 881 q 760 850 778 856 q 721 843 742 844 q 680 842 700 842 q 647 843 660 843 q 534 849 590 846 q 421 850 478 851 q 388 760 401 806 q 369 667 374 715 q 444 671 397 668 q 537 670 490 674 q 622 653 583 667 q 674 607 661 639 q 683 563 681 588 q 683 514 686 539 q 669 467 679 489 q 642 432 658 446 q 582 411 622 417 q 496 406 542 406 q 407 410 450 407 q 339 415 364 414 l 335 408 l 335 408 z "},"È":{"ha":822,"x_min":36,"x_max":803,"o":"m 335 408 q 355 328 329 350 q 424 303 381 306 q 522 308 468 300 q 628 318 576 315 q 722 308 681 321 q 783 253 764 296 q 794 204 792 233 q 793 144 796 175 q 782 86 790 114 q 760 42 774 58 q 688 -1 731 6 q 647 -3 679 -3 q 572 -4 615 -4 q 477 -3 528 -4 q 381 -1 426 -1 q 303 1 336 0 q 260 4 269 3 q 183 28 219 10 q 118 78 146 46 q 66 181 85 117 q 42 324 47 246 q 40 486 36 401 q 56 651 44 571 q 85 799 68 731 q 121 913 101 867 q 136 944 126 928 q 159 974 146 961 q 188 997 172 988 q 222 1006 203 1006 q 258 1009 240 1006 q 294 1014 276 1013 q 397 1017 328 1015 q 540 1018 465 1019 q 681 1010 615 1017 q 771 992 746 1004 q 792 969 785 985 q 801 935 800 953 q 799 899 803 917 q 786 868 794 881 q 760 850 778 856 q 721 843 742 844 q 680 842 700 842 q 647 843 660 843 q 534 849 590 846 q 421 850 478 851 q 388 760 401 806 q 369 667 374 715 q 444 671 397 668 q 537 670 490 674 q 622 653 583 667 q 674 607 661 639 q 683 563 681 588 q 683 514 686 539 q 669 467 679 489 q 642 432 658 446 q 582 411 622 417 q 496 406 542 406 q 407 410 450 407 q 339 415 364 414 l 335 408 l 335 408 z "},"É":{"ha":822,"x_min":36,"x_max":803,"o":"m 335 408 q 355 328 329 350 q 424 303 381 306 q 522 308 468 300 q 628 318 576 315 q 722 308 681 321 q 783 253 764 296 q 794 204 792 233 q 793 144 796 175 q 782 86 790 114 q 760 42 774 58 q 688 -1 731 6 q 647 -3 679 -3 q 572 -4 615 -4 q 477 -3 528 -4 q 381 -1 426 -1 q 303 1 336 0 q 260 4 269 3 q 183 28 219 10 q 118 78 146 46 q 66 181 85 117 q 42 324 47 246 q 40 486 36 401 q 56 651 44 571 q 85 799 68 731 q 121 913 101 867 q 136 944 126 928 q 159 974 146 961 q 188 997 172 988 q 222 1006 203 1006 q 258 1009 240 1006 q 294 1014 276 1013 q 397 1017 328 1015 q 540 1018 465 1019 q 681 1010 615 1017 q 771 992 746 1004 q 792 969 785 985 q 801 935 800 953 q 799 899 803 917 q 786 868 794 881 q 760 850 778 856 q 721 843 742 844 q 680 842 700 842 q 647 843 660 843 q 534 849 590 846 q 421 850 478 851 q 388 760 401 806 q 369 667 374 715 q 444 671 397 668 q 537 670 490 674 q 622 653 583 667 q 674 607 661 639 q 683 563 681 588 q 683 514 686 539 q 669 467 679 489 q 642 432 658 446 q 582 411 622 417 q 496 406 542 406 q 407 410 450 407 q 339 415 364 414 l 335 408 l 335 408 z "},"Ê":{"ha":822,"x_min":36,"x_max":803,"o":"m 335 408 q 355 328 329 350 q 424 303 381 306 q 522 308 468 300 q 628 318 576 315 q 722 308 681 321 q 783 253 764 296 q 794 204 792 233 q 793 144 796 175 q 782 86 790 114 q 760 42 774 58 q 688 -1 731 6 q 647 -3 679 -3 q 572 -4 615 -4 q 477 -3 528 -4 q 381 -1 426 -1 q 303 1 336 0 q 260 4 269 3 q 183 28 219 10 q 118 78 146 46 q 66 181 85 117 q 42 324 47 246 q 40 486 36 401 q 56 651 44 571 q 85 799 68 731 q 121 913 101 867 q 136 944 126 928 q 159 974 146 961 q 188 997 172 988 q 222 1006 203 1006 q 258 1009 240 1006 q 294 1014 276 1013 q 397 1017 328 1015 q 540 1018 465 1019 q 681 1010 615 1017 q 771 992 746 1004 q 792 969 785 985 q 801 935 800 953 q 799 899 803 917 q 786 868 794 881 q 760 850 778 856 q 721 843 742 844 q 680 842 700 842 q 647 843 660 843 q 534 849 590 846 q 421 850 478 851 q 388 760 401 806 q 369 667 374 715 q 444 671 397 668 q 537 670 490 674 q 622 653 583 667 q 674 607 661 639 q 683 563 681 588 q 683 514 686 539 q 669 467 679 489 q 642 432 658 446 q 582 411 622 417 q 496 406 542 406 q 407 410 450 407 q 339 415 364 414 l 335 408 l 335 408 z "},"Ë":{"ha":822,"x_min":36,"x_max":803,"o":"m 335 408 q 355 328 329 350 q 424 303 381 306 q 522 308 468 300 q 628 318 576 315 q 722 308 681 321 q 783 253 764 296 q 794 204 792 233 q 793 144 796 175 q 782 86 790 114 q 760 42 774 58 q 688 -1 731 6 q 647 -3 679 -3 q 572 -4 615 -4 q 477 -3 528 -4 q 381 -1 426 -1 q 303 1 336 0 q 260 4 269 3 q 183 28 219 10 q 118 78 146 46 q 66 181 85 117 q 42 324 47 246 q 40 486 36 401 q 56 651 44 571 q 85 799 68 731 q 121 913 101 867 q 136 944 126 928 q 159 974 146 961 q 188 997 172 988 q 222 1006 203 1006 q 258 1009 240 1006 q 294 1014 276 1013 q 397 1017 328 1015 q 540 1018 465 1019 q 681 1010 615 1017 q 771 992 746 1004 q 792 969 785 985 q 801 935 800 953 q 799 899 803 917 q 786 868 794 881 q 760 850 778 856 q 721 843 742 844 q 680 842 700 842 q 647 843 660 843 q 534 849 590 846 q 421 850 478 851 q 388 760 401 806 q 369 667 374 715 q 444 671 397 668 q 537 670 490 674 q 622 653 583 667 q 674 607 661 639 q 683 563 681 588 q 683 514 686 539 q 669 467 679 489 q 642 432 658 446 q 582 411 622 417 q 496 406 542 406 q 407 410 450 407 q 339 415 364 414 l 335 408 l 335 408 z "},"F":{"ha":707,"x_min":42,"x_max":701,"o":"m 351 488 q 366 320 358 404 q 374 153 374 236 q 336 27 374 63 q 208 -3 299 -8 q 155 3 181 -1 q 104 19 129 7 q 75 40 89 28 q 53 67 61 51 q 42 127 42 86 q 47 215 42 168 q 60 306 53 261 q 69 375 67 350 q 79 598 81 486 q 74 821 78 710 q 71 892 72 857 q 85 960 69 926 q 109 988 93 978 q 144 1003 125 999 q 209 1008 165 1008 q 303 1004 253 1007 q 402 999 354 1001 q 479 996 450 996 q 524 998 494 996 q 583 1001 553 1000 q 641 999 614 1001 q 679 989 668 997 q 697 960 693 981 q 701 931 700 947 q 699 897 701 914 q 690 865 696 881 q 674 842 683 850 q 645 834 668 838 q 589 828 622 831 q 517 824 556 825 q 444 821 479 822 q 383 819 410 819 q 346 821 356 819 q 349 745 347 783 q 350 669 350 707 q 410 674 368 671 q 497 680 451 678 q 581 681 542 682 q 631 672 619 681 q 648 640 643 664 q 653 590 653 617 q 648 538 653 563 q 635 503 643 514 q 585 483 624 488 q 501 480 547 479 q 413 483 456 481 q 351 488 371 486 z "},"G":{"ha":861,"x_min":26,"x_max":835,"o":"m 613 343 q 576 343 597 344 q 534 341 556 342 q 493 342 513 340 q 464 353 474 344 q 449 376 453 361 q 446 407 446 390 q 450 439 446 424 q 458 465 454 454 q 492 504 468 489 q 549 519 508 514 q 634 524 589 524 q 720 521 679 524 q 779 514 761 518 q 803 503 792 511 q 822 485 815 496 q 832 452 829 472 q 834 410 835 432 q 831 366 833 388 q 828 331 829 344 q 806 219 822 275 q 760 117 790 164 q 686 38 731 69 q 579 -3 642 6 q 468 -8 526 -10 q 353 8 410 -6 q 244 46 296 21 q 153 110 192 71 q 80 223 108 153 q 39 376 51 293 q 31 546 26 458 q 56 713 35 633 q 116 856 78 793 q 211 953 154 919 q 309 992 251 976 q 428 1010 367 1007 q 552 1003 490 1013 q 665 968 614 993 q 751 901 717 943 q 792 797 785 858 q 796 762 794 776 q 778 732 797 747 q 747 716 765 721 q 711 714 728 711 q 683 729 699 715 q 652 761 668 743 q 621 796 636 779 q 594 821 606 813 q 556 842 578 835 q 510 849 533 849 q 465 841 488 849 q 426 818 443 833 q 399 781 408 803 q 383 735 390 758 q 372 670 376 711 q 363 580 367 629 q 360 478 360 531 q 363 377 360 425 q 372 290 365 329 q 390 232 378 251 q 420 199 401 214 q 461 173 439 183 q 507 160 483 163 q 551 164 531 157 q 585 193 569 169 q 610 246 601 217 q 621 302 619 275 q 613 343 622 329 z "},"H":{"ha":925,"x_min":46,"x_max":881,"o":"m 515 589 q 517 638 517 604 q 519 711 518 671 q 520 795 519 751 q 523 877 521 839 q 528 943 525 915 q 536 981 531 971 q 570 1004 544 994 q 631 1019 596 1014 q 705 1025 665 1025 q 779 1019 744 1025 q 840 1003 814 1014 q 874 975 865 992 q 880 946 879 964 q 878 909 881 928 q 874 872 876 890 q 869 840 871 853 q 849 567 850 703 q 857 292 849 431 q 866 185 860 239 q 868 76 872 131 q 853 15 865 42 q 800 -22 839 -11 q 715 -33 761 -33 q 627 -23 669 -32 q 564 1 585 -14 q 534 60 540 18 q 530 150 528 101 q 538 246 532 199 q 543 321 543 293 q 488 319 518 318 q 425 322 457 319 q 361 327 393 325 q 301 328 329 329 q 308 263 303 306 q 318 174 314 219 q 323 88 322 128 q 317 31 324 47 q 288 -5 306 7 q 244 -21 269 -17 q 201 -24 228 -24 q 147 -22 175 -25 q 95 -12 119 -19 q 60 10 71 -4 q 46 52 46 29 q 49 97 46 75 q 63 264 56 181 q 72 432 69 347 q 73 621 75 526 q 68 810 71 715 q 65 882 68 846 q 64 953 63 918 q 68 972 64 960 q 78 988 72 983 q 93 994 85 993 q 108 994 101 994 q 195 997 156 994 q 263 988 235 999 q 307 949 292 978 q 322 861 322 921 q 316 725 321 793 q 308 589 311 657 q 413 594 361 592 q 515 589 464 597 z "},"I":{"ha":422,"x_min":35,"x_max":383,"o":"m 249 -6 q 203 -8 231 -7 q 147 -5 175 -8 q 94 7 119 -1 q 58 31 69 15 q 39 90 42 56 q 38 184 35 136 q 49 280 42 232 q 64 376 56 328 q 78 469 72 424 q 83 624 88 544 q 78 778 78 703 q 81 857 78 818 q 97 933 85 896 q 134 984 108 971 q 196 1001 160 997 q 231 1003 210 1003 q 273 1001 251 1003 q 314 994 294 999 q 346 983 333 990 q 376 940 369 969 q 381 874 383 910 q 373 804 379 839 q 364 749 367 769 q 348 613 353 681 q 346 476 343 546 q 351 378 347 435 q 359 263 356 321 q 361 150 363 204 q 349 58 360 96 q 310 10 338 22 q 249 -6 283 -3 z "},"Ì":{"ha":422,"x_min":35,"x_max":383,"o":"m 249 -6 q 203 -8 231 -7 q 147 -5 175 -8 q 94 7 119 -1 q 58 31 69 15 q 39 90 42 56 q 38 184 35 136 q 49 280 42 232 q 64 376 56 328 q 78 469 72 424 q 83 624 88 544 q 78 778 78 703 q 81 857 78 818 q 97 933 85 896 q 134 984 108 971 q 196 1001 160 997 q 231 1003 210 1003 q 273 1001 251 1003 q 314 994 294 999 q 346 983 333 990 q 376 940 369 969 q 381 874 383 910 q 373 804 379 839 q 364 749 367 769 q 348 613 353 681 q 346 476 343 546 q 351 378 347 435 q 359 263 356 321 q 361 150 363 204 q 349 58 360 96 q 310 10 338 22 q 249 -6 283 -3 z "},"Í":{"ha":422,"x_min":35,"x_max":383,"o":"m 249 -6 q 203 -8 231 -7 q 147 -5 175 -8 q 94 7 119 -1 q 58 31 69 15 q 39 90 42 56 q 38 184 35 136 q 49 280 42 232 q 64 376 56 328 q 78 469 72 424 q 83 624 88 544 q 78 778 78 703 q 81 857 78 818 q 97 933 85 896 q 134 984 108 971 q 196 1001 160 997 q 231 1003 210 1003 q 273 1001 251 1003 q 314 994 294 999 q 346 983 333 990 q 376 940 369 969 q 381 874 383 910 q 373 804 379 839 q 364 749 367 769 q 348 613 353 681 q 346 476 343 546 q 351 378 347 435 q 359 263 356 321 q 361 150 363 204 q 349 58 360 96 q 310 10 338 22 q 249 -6 283 -3 z "},"Î":{"ha":422,"x_min":35,"x_max":383,"o":"m 249 -6 q 203 -8 231 -7 q 147 -5 175 -8 q 94 7 119 -1 q 58 31 69 15 q 39 90 42 56 q 38 184 35 136 q 49 280 42 232 q 64 376 56 328 q 78 469 72 424 q 83 624 88 544 q 78 778 78 703 q 81 857 78 818 q 97 933 85 896 q 134 984 108 971 q 196 1001 160 997 q 231 1003 210 1003 q 273 1001 251 1003 q 314 994 294 999 q 346 983 333 990 q 376 940 369 969 q 381 874 383 910 q 373 804 379 839 q 364 749 367 769 q 348 613 353 681 q 346 476 343 546 q 351 378 347 435 q 359 263 356 321 q 361 150 363 204 q 349 58 360 96 q 310 10 338 22 q 249 -6 283 -3 z "},"Ï":{"ha":422,"x_min":35,"x_max":383,"o":"m 249 -6 q 203 -8 231 -7 q 147 -5 175 -8 q 94 7 119 -1 q 58 31 69 15 q 39 90 42 56 q 38 184 35 136 q 49 280 42 232 q 64 376 56 328 q 78 469 72 424 q 83 624 88 544 q 78 778 78 703 q 81 857 78 818 q 97 933 85 896 q 134 984 108 971 q 196 1001 160 997 q 231 1003 210 1003 q 273 1001 251 1003 q 314 994 294 999 q 346 983 333 990 q 376 940 369 969 q 381 874 383 910 q 373 804 379 839 q 364 749 367 769 q 348 613 353 681 q 346 476 343 546 q 351 378 347 435 q 359 263 356 321 q 361 150 363 204 q 349 58 360 96 q 310 10 338 22 q 249 -6 283 -3 z "},"J":{"ha":751,"x_min":-3,"x_max":711,"o":"m 56 354 q 70 365 60 361 q 92 372 81 369 q 116 376 104 375 q 136 378 128 378 q 193 376 164 381 q 239 344 222 372 q 250 313 246 332 q 258 274 254 293 q 268 238 263 254 q 283 213 274 221 q 303 206 293 204 q 324 213 314 207 q 341 228 333 219 q 354 244 349 236 q 383 330 376 279 q 388 440 390 381 q 378 563 386 499 q 362 688 369 626 q 350 803 354 749 q 353 901 346 858 q 363 940 356 921 q 385 971 369 958 q 442 997 403 988 q 524 1006 481 1006 q 605 998 567 1007 q 658 968 643 989 q 688 898 676 943 q 704 797 699 853 q 710 678 710 740 q 709 558 711 617 q 703 450 707 500 q 696 369 699 400 q 676 252 689 311 q 631 142 663 193 q 530 38 593 81 q 394 -24 467 -4 q 249 -37 322 -43 q 119 3 176 -31 q 30 99 63 36 q 6 260 -3 163 q 19 313 8 286 q 56 354 31 340 z "},"K":{"ha":907,"x_min":46,"x_max":910,"o":"m 421 372 q 425 300 422 339 q 428 222 428 261 q 423 144 428 182 q 407 75 418 106 q 365 23 394 44 q 299 -8 336 1 q 219 -17 261 -18 q 142 -3 178 -17 q 82 37 107 11 q 51 103 57 63 q 51 178 46 140 q 60 254 56 217 q 74 495 72 372 q 65 736 76 618 q 60 788 64 757 q 55 851 57 818 q 55 913 53 883 q 68 958 57 942 q 94 985 78 975 q 128 1000 110 994 q 167 1008 147 1006 q 204 1010 188 1010 q 312 998 271 1013 q 375 955 353 983 q 405 888 397 926 q 412 803 413 849 q 406 708 411 757 q 399 610 400 658 q 558 769 488 682 q 704 942 629 857 q 726 964 715 953 q 753 981 738 975 q 787 983 771 988 q 815 969 803 979 q 835 942 828 958 q 842 910 842 926 q 807 819 842 874 q 725 710 772 765 q 628 607 678 654 q 551 538 579 560 q 669 390 601 457 q 814 268 736 324 q 863 234 835 253 q 899 192 890 215 q 892 124 910 160 q 842 60 875 88 q 767 20 808 32 q 689 26 726 8 q 607 89 646 47 q 535 180 568 131 q 472 280 501 229 q 421 372 443 331 z "},"L":{"ha":715,"x_min":50,"x_max":728,"o":"m 665 7 q 620 -1 647 0 q 564 -3 593 -3 q 507 -1 535 -3 q 460 0 479 0 q 393 -1 428 0 q 324 -3 358 -3 q 256 -2 289 -4 q 192 7 222 0 q 105 67 133 21 q 65 173 76 114 q 53 294 53 232 q 54 400 54 356 q 52 499 54 449 q 57 599 50 550 q 60 680 61 632 q 57 778 58 728 q 60 873 56 828 q 81 946 64 918 q 135 993 100 978 q 181 1004 151 1000 q 242 1009 210 1008 q 303 1006 274 1010 q 349 994 332 1003 q 399 920 386 975 q 408 790 411 865 q 393 630 406 715 q 371 463 381 544 q 358 315 361 382 q 372 211 356 247 q 431 164 390 171 q 518 160 471 157 q 611 168 565 164 q 686 156 657 172 q 719 120 710 142 q 724 76 728 99 q 705 35 719 54 q 665 7 690 15 z "},"M":{"ha":1286,"x_min":8,"x_max":1263,"o":"m 186 976 q 231 1001 201 997 q 285 1008 261 1006 q 342 1010 313 1011 q 400 1003 372 1010 q 454 962 432 994 q 492 888 476 929 q 516 806 507 847 q 529 736 525 764 q 561 551 544 644 q 601 368 578 458 q 606 355 603 363 q 615 340 610 347 q 627 327 621 332 q 640 322 633 322 q 689 371 665 325 q 735 485 713 417 q 778 634 757 554 q 818 785 799 714 q 856 910 838 857 q 890 976 874 963 q 926 994 906 990 q 965 1001 946 999 q 999 1003 978 1003 q 1044 1002 1021 1003 q 1087 998 1067 1001 q 1118 988 1107 994 q 1145 958 1136 976 q 1160 919 1154 939 q 1176 840 1171 881 q 1183 757 1181 799 q 1188 674 1186 715 q 1192 592 1189 632 q 1218 377 1200 482 q 1256 164 1236 272 q 1262 110 1261 138 q 1250 57 1263 82 q 1199 13 1238 29 q 1118 -7 1161 -3 q 1035 -3 1075 -11 q 978 25 994 4 q 960 53 968 36 q 947 90 953 71 q 938 128 942 110 q 931 163 933 147 q 908 326 915 244 q 897 492 900 408 q 871 398 886 454 q 837 283 856 342 q 797 172 818 224 q 754 92 775 119 q 725 65 740 74 q 692 53 710 57 q 656 51 675 50 q 618 51 638 51 q 467 92 518 54 q 390 189 415 129 q 352 324 364 249 q 321 479 340 400 l 289 304 q 277 237 283 275 q 260 160 271 199 q 234 88 250 121 q 194 35 218 54 q 161 17 181 24 q 121 8 142 10 q 80 10 100 7 q 46 24 60 14 q 17 63 22 40 q 18 142 8 90 q 43 252 28 194 q 76 364 58 310 q 101 450 93 418 q 131 584 119 517 q 154 719 143 651 q 168 824 161 772 q 175 929 175 876 q 175 954 175 940 q 186 976 175 968 z "},"N":{"ha":1003,"x_min":38,"x_max":974,"o":"m 422 842 q 551 910 485 885 q 693 922 617 935 q 796 882 750 914 q 914 755 876 829 q 963 595 951 681 q 966 420 974 510 q 949 249 958 331 q 944 197 946 229 q 938 131 942 165 q 930 67 935 97 q 919 24 925 38 q 909 1 915 14 q 892 -17 903 -12 q 856 -19 885 -19 q 794 -17 828 -19 q 731 -13 761 -15 q 690 -10 701 -11 q 638 3 661 -6 q 610 47 614 13 q 616 140 606 81 q 640 269 626 199 q 664 417 653 340 q 674 560 675 493 q 653 677 672 626 q 589 749 635 728 q 525 756 558 763 q 465 731 492 749 q 417 661 433 708 q 394 553 401 614 q 385 423 386 492 q 383 288 385 354 q 378 163 382 221 q 360 65 374 104 q 326 20 350 38 q 270 -5 301 3 q 204 -10 239 -12 q 138 1 169 -8 q 83 28 107 11 q 49 71 58 46 q 38 126 38 97 q 42 183 39 156 q 58 344 49 264 q 74 506 67 424 q 83 726 82 617 q 88 946 83 835 l 89 960 q 94 974 93 967 q 100 989 94 982 q 130 1006 108 1000 q 180 1014 151 1013 q 241 1013 208 1015 q 303 1001 274 1010 q 358 978 333 992 q 394 944 382 964 q 415 895 410 921 q 422 842 419 869 z "},"Ñ":{"ha":1003,"x_min":38,"x_max":974,"o":"m 422 842 q 551 910 485 885 q 693 922 617 935 q 796 882 750 914 q 914 755 876 829 q 963 595 951 681 q 966 420 974 510 q 949 249 958 331 q 944 197 946 229 q 938 131 942 165 q 930 67 935 97 q 919 24 925 38 q 909 1 915 14 q 892 -17 903 -12 q 856 -19 885 -19 q 794 -17 828 -19 q 731 -13 761 -15 q 690 -10 701 -11 q 638 3 661 -6 q 610 47 614 13 q 616 140 606 81 q 640 269 626 199 q 664 417 653 340 q 674 560 675 493 q 653 677 672 626 q 589 749 635 728 q 525 756 558 763 q 465 731 492 749 q 417 661 433 708 q 394 553 401 614 q 385 423 386 492 q 383 288 385 354 q 378 163 382 221 q 360 65 374 104 q 326 20 350 38 q 270 -5 301 3 q 204 -10 239 -12 q 138 1 169 -8 q 83 28 107 11 q 49 71 58 46 q 38 126 38 97 q 42 183 39 156 q 58 344 49 264 q 74 506 67 424 q 83 726 82 617 q 88 946 83 835 l 89 960 q 94 974 93 967 q 100 989 94 982 q 130 1006 108 1000 q 180 1014 151 1013 q 241 1013 208 1015 q 303 1001 274 1010 q 358 978 333 992 q 394 944 382 964 q 415 895 410 921 q 422 842 419 869 z "},"O":{"ha":958,"x_min":24,"x_max":933,"o":"m 707 53 q 599 7 657 21 q 482 -7 540 -7 q 280 34 365 -7 q 138 142 194 75 q 53 296 81 208 q 24 478 25 383 q 50 667 24 572 q 129 846 76 763 q 166 897 146 872 q 211 940 186 921 q 272 974 235 958 q 349 1000 308 989 q 430 1016 390 1011 q 499 1019 469 1021 q 610 1002 554 1015 q 715 965 665 989 q 806 903 764 940 q 875 813 847 865 q 919 689 904 757 q 933 548 933 621 q 919 402 933 475 q 876 263 904 329 q 805 142 847 197 q 707 53 763 88 m 574 246 q 683 274 638 238 q 753 372 728 311 q 783 508 779 433 q 770 650 788 583 q 713 765 753 717 q 607 821 672 813 q 499 792 543 829 q 429 694 454 754 q 400 558 404 633 q 413 417 396 483 q 470 303 431 351 q 574 246 510 254 z "},"Ò":{"ha":958,"x_min":24,"x_max":933,"o":"m 707 53 q 599 7 657 21 q 482 -7 540 -7 q 280 34 365 -7 q 138 142 194 75 q 53 296 81 208 q 24 478 25 383 q 50 667 24 572 q 129 846 76 763 q 166 897 146 872 q 211 940 186 921 q 272 974 235 958 q 349 1000 308 989 q 430 1016 390 1011 q 499 1019 469 1021 q 610 1002 554 1015 q 715 965 665 989 q 806 903 764 940 q 875 813 847 865 q 919 689 904 757 q 933 548 933 621 q 919 402 933 475 q 876 263 904 329 q 805 142 847 197 q 707 53 763 88 m 574 246 q 683 274 638 238 q 753 372 728 311 q 783 508 779 433 q 770 650 788 583 q 713 765 753 717 q 607 821 672 813 q 499 792 543 829 q 429 694 454 754 q 400 558 404 633 q 413 417 396 483 q 470 303 431 351 q 574 246 510 254 z "},"Ó":{"ha":958,"x_min":24,"x_max":933,"o":"m 707 53 q 599 7 657 21 q 482 -7 540 -7 q 280 34 365 -7 q 138 142 194 75 q 53 296 81 208 q 24 478 25 383 q 50 667 24 572 q 129 846 76 763 q 166 897 146 872 q 211 940 186 921 q 272 974 235 958 q 349 1000 308 989 q 430 1016 390 1011 q 499 1019 469 1021 q 610 1002 554 1015 q 715 965 665 989 q 806 903 764 940 q 875 813 847 865 q 919 689 904 757 q 933 548 933 621 q 919 402 933 475 q 876 263 904 329 q 805 142 847 197 q 707 53 763 88 m 574 246 q 683 274 638 238 q 753 372 728 311 q 783 508 779 433 q 770 650 788 583 q 713 765 753 717 q 607 821 672 813 q 499 792 543 829 q 429 694 454 754 q 400 558 404 633 q 413 417 396 483 q 470 303 431 351 q 574 246 510 254 z "},"Ô":{"ha":958,"x_min":24,"x_max":933,"o":"m 707 53 q 599 7 657 21 q 482 -7 540 -7 q 280 34 365 -7 q 138 142 194 75 q 53 296 81 208 q 24 478 25 383 q 50 667 24 572 q 129 846 76 763 q 166 897 146 872 q 211 940 186 921 q 272 974 235 958 q 349 1000 308 989 q 430 1016 390 1011 q 499 1019 469 1021 q 610 1002 554 1015 q 715 965 665 989 q 806 903 764 940 q 875 813 847 865 q 919 689 904 757 q 933 548 933 621 q 919 402 933 475 q 876 263 904 329 q 805 142 847 197 q 707 53 763 88 m 574 246 q 683 274 638 238 q 753 372 728 311 q 783 508 779 433 q 770 650 788 583 q 713 765 753 717 q 607 821 672 813 q 499 792 543 829 q 429 694 454 754 q 400 558 404 633 q 413 417 396 483 q 470 303 431 351 q 574 246 510 254 z "},"Õ":{"ha":958,"x_min":24,"x_max":933,"o":"m 707 53 q 599 7 657 21 q 482 -7 540 -7 q 280 34 365 -7 q 138 142 194 75 q 53 296 81 208 q 24 478 25 383 q 50 667 24 572 q 129 846 76 763 q 166 897 146 872 q 211 940 186 921 q 272 974 235 958 q 349 1000 308 989 q 430 1016 390 1011 q 499 1019 469 1021 q 610 1002 554 1015 q 715 965 665 989 q 806 903 764 940 q 875 813 847 865 q 919 689 904 757 q 933 548 933 621 q 919 402 933 475 q 876 263 904 329 q 805 142 847 197 q 707 53 763 88 m 574 246 q 683 274 638 238 q 753 372 728 311 q 783 508 779 433 q 770 650 788 583 q 713 765 753 717 q 607 821 672 813 q 499 792 543 829 q 429 694 454 754 q 400 558 404 633 q 413 417 396 483 q 470 303 431 351 q 574 246 510 254 z "},"Ö":{"ha":958,"x_min":24,"x_max":933,"o":"m 707 53 q 599 7 657 21 q 482 -7 540 -7 q 280 34 365 -7 q 138 142 194 75 q 53 296 81 208 q 24 478 25 383 q 50 667 24 572 q 129 846 76 763 q 166 897 146 872 q 211 940 186 921 q 272 974 235 958 q 349 1000 308 989 q 430 1016 390 1011 q 499 1019 469 1021 q 610 1002 554 1015 q 715 965 665 989 q 806 903 764 940 q 875 813 847 865 q 919 689 904 757 q 933 548 933 621 q 919 402 933 475 q 876 263 904 329 q 805 142 847 197 q 707 53 763 88 m 574 246 q 683 274 638 238 q 753 372 728 311 q 783 508 779 433 q 770 650 788 583 q 713 765 753 717 q 607 821 672 813 q 499 792 543 829 q 429 694 454 754 q 400 558 404 633 q 413 417 396 483 q 470 303 431 351 q 574 246 510 254 z "},"Ø":{"ha":958,"x_min":24,"x_max":933,"o":"m 707 53 q 599 7 657 21 q 482 -7 540 -7 q 280 34 365 -7 q 138 142 194 75 q 53 296 81 208 q 24 478 25 383 q 50 667 24 572 q 129 846 76 763 q 166 897 146 872 q 211 940 186 921 q 272 974 235 958 q 349 1000 308 989 q 430 1016 390 1011 q 499 1019 469 1021 q 610 1002 554 1015 q 715 965 665 989 q 806 903 764 940 q 875 813 847 865 q 919 689 904 757 q 933 548 933 621 q 919 402 933 475 q 876 263 904 329 q 805 142 847 197 q 707 53 763 88 m 574 246 q 683 274 638 238 q 753 372 728 311 q 783 508 779 433 q 770 650 788 583 q 713 765 753 717 q 607 821 672 813 q 499 792 543 829 q 429 694 454 754 q 400 558 404 633 q 413 417 396 483 q 470 303 431 351 q 574 246 510 254 z "},"P":{"ha":840,"x_min":42,"x_max":828,"o":"m 382 288 q 392 201 388 247 q 388 110 396 154 q 358 33 381 67 q 285 -15 335 -1 q 214 -26 251 -25 q 142 -19 176 -28 q 72 22 99 -8 q 45 88 49 50 q 44 161 42 126 q 58 297 49 231 q 74 433 68 364 q 81 595 81 515 q 79 757 81 675 q 76 800 79 775 q 71 850 74 825 q 67 898 68 875 q 67 936 65 921 q 103 999 71 976 q 178 1025 136 1021 q 260 1016 219 1029 q 321 972 300 1003 q 453 999 382 996 q 613 972 544 1000 q 727 894 681 943 q 798 783 774 846 q 825 655 822 721 q 810 524 828 589 q 756 408 793 460 q 661 321 718 356 q 528 281 604 286 q 455 278 492 278 q 382 288 418 278 m 360 567 q 373 524 364 546 q 397 484 382 501 q 431 456 411 467 q 475 447 450 444 q 558 491 525 451 q 602 584 590 531 q 606 692 614 638 q 567 782 597 747 q 513 817 540 811 q 460 809 485 822 q 414 769 435 796 q 379 708 393 742 q 360 638 365 675 q 360 567 354 600 z "},"Q":{"ha":967,"x_min":24,"x_max":981,"o":"m 813 154 q 849 103 821 140 q 906 27 876 67 q 958 -46 936 -12 q 979 -87 981 -79 q 972 -102 978 -94 q 957 -116 965 -110 q 940 -128 949 -122 q 926 -137 932 -133 q 908 -149 919 -142 q 883 -163 896 -156 q 857 -176 869 -171 q 839 -182 844 -182 q 783 -160 810 -185 q 735 -99 757 -135 q 698 -25 714 -62 q 674 35 682 13 q 581 3 629 13 q 482 -7 532 -7 q 280 35 365 -6 q 138 142 194 75 q 53 296 81 208 q 24 478 25 383 q 50 667 24 572 q 129 846 76 763 q 166 897 146 872 q 211 940 186 921 q 279 977 243 964 q 354 999 315 990 q 382 1006 369 1001 q 410 1014 394 1011 q 492 1019 447 1022 q 583 1008 538 1017 q 672 983 629 999 q 747 947 715 967 q 851 850 811 908 q 912 721 892 792 q 933 572 932 650 q 921 419 935 494 q 879 276 907 344 q 813 154 851 207 m 728 326 q 778 450 767 383 q 783 580 790 517 q 749 698 775 643 q 687 785 724 753 q 603 823 650 818 q 507 793 557 828 q 438 710 464 763 q 403 595 413 657 q 403 471 394 533 q 435 358 411 408 q 501 276 460 307 q 597 246 542 244 q 586 283 593 260 q 575 332 579 307 q 572 380 571 357 q 583 417 572 403 q 636 439 606 444 q 686 408 667 433 q 709 369 700 390 q 728 326 718 347 z "},"R":{"ha":929,"x_min":36,"x_max":903,"o":"m 613 436 q 666 349 640 393 q 728 268 692 304 q 766 235 742 253 q 814 200 790 218 q 858 165 838 182 q 888 136 879 149 q 896 89 901 113 q 874 52 892 69 q 831 22 856 35 q 782 -1 807 8 q 740 -15 757 -11 q 663 -9 701 -25 q 590 38 625 7 q 522 110 554 68 q 461 196 489 153 q 412 279 433 239 q 376 349 390 319 q 390 254 382 308 q 394 148 397 200 q 369 53 390 96 q 297 -4 349 11 q 213 -15 257 -15 q 126 -3 168 -14 q 85 13 106 3 q 54 43 65 24 q 38 96 39 67 q 39 153 36 125 q 54 343 46 250 q 70 528 63 436 q 83 714 78 619 q 88 908 88 808 q 90 940 88 924 q 100 972 93 957 q 151 1010 114 997 q 228 1019 188 1024 q 303 992 268 1015 q 349 918 338 968 q 531 991 446 978 q 683 986 615 1004 q 801 924 751 968 q 877 824 851 881 q 903 705 903 767 q 872 588 903 643 q 778 491 842 532 q 613 436 714 450 m 367 799 q 375 760 372 792 q 379 692 378 729 q 381 622 381 656 q 382 574 382 588 q 462 583 414 575 q 556 606 510 590 q 638 648 601 622 q 682 711 674 674 q 683 760 688 736 q 664 803 678 783 q 630 838 650 824 q 586 857 610 851 q 534 859 565 863 q 472 847 503 856 q 412 825 440 838 q 367 799 383 813 z "},"S":{"ha":742,"x_min":26,"x_max":718,"o":"m 519 46 q 460 32 499 39 q 376 21 422 25 q 281 16 331 17 q 188 20 232 15 q 110 36 144 25 q 63 67 76 47 q 31 160 35 106 q 42 260 26 215 q 63 302 49 282 q 97 333 78 322 q 147 348 118 346 q 210 348 176 350 q 277 342 243 346 q 340 336 311 338 q 392 338 369 335 q 422 357 414 342 q 408 394 432 374 q 347 435 383 415 q 274 470 310 454 q 224 493 238 486 q 131 570 174 521 q 65 677 89 619 q 44 795 42 735 q 85 908 46 856 q 159 974 117 951 q 249 1006 201 996 q 346 1015 296 1015 q 443 1014 396 1015 q 504 1010 472 1013 q 567 1001 536 1008 q 626 981 599 993 q 675 946 654 968 q 701 903 692 928 q 708 855 710 879 q 694 810 707 831 q 656 778 682 789 q 627 776 647 774 q 582 781 607 778 q 529 785 557 783 q 478 785 501 788 q 441 772 456 782 q 426 742 426 763 q 457 690 426 721 q 528 620 488 658 q 608 540 568 582 q 669 458 649 499 q 710 328 703 392 q 700 212 718 265 q 637 115 682 158 q 519 46 592 72 z "},"T":{"ha":726,"x_min":-14,"x_max":736,"o":"m 500 843 q 503 743 500 808 q 508 599 506 678 q 514 435 511 521 q 517 274 517 350 q 514 142 517 199 q 504 61 511 85 q 472 19 496 36 q 418 -6 449 3 q 353 -15 388 -14 q 288 -12 318 -17 q 233 -1 257 -8 q 203 17 210 7 q 190 51 192 31 q 188 92 188 71 q 192 132 189 113 q 210 342 201 238 q 221 553 219 447 q 222 707 222 631 q 218 861 222 783 q 167 859 196 861 q 110 857 139 857 q 55 860 81 857 q 13 876 29 864 q -9 912 -4 889 q -1 974 -14 935 q 6 989 1 985 q 19 999 10 993 q 63 1006 29 1004 q 144 1008 97 1008 q 244 1005 190 1007 q 349 1001 299 1003 q 440 997 400 999 q 499 994 479 994 q 549 997 517 994 q 616 999 582 999 q 679 994 650 999 q 719 975 708 989 q 735 923 736 956 q 717 871 735 890 q 674 849 703 856 q 614 840 646 842 q 551 841 582 839 q 500 843 519 843 z "},"U":{"ha":1028,"x_min":43,"x_max":989,"o":"m 776 114 q 585 12 683 42 q 368 -1 486 -18 q 215 54 275 11 q 119 160 156 97 q 68 301 83 224 q 48 458 53 378 q 45 618 43 539 q 47 765 47 697 q 47 804 47 782 q 46 849 46 826 q 49 893 46 872 q 60 929 51 914 q 83 959 68 946 q 114 983 99 972 q 171 1011 140 1001 q 233 1020 201 1021 q 294 1009 264 1019 q 351 979 325 999 q 397 921 383 954 q 410 844 408 893 q 408 735 411 796 q 401 608 406 675 q 397 476 397 542 q 403 352 396 411 q 429 250 410 293 q 483 184 449 207 q 574 167 518 161 q 683 226 646 175 q 736 351 721 276 q 751 513 751 425 q 747 682 751 600 q 740 830 742 764 q 750 926 738 896 q 769 957 757 943 q 800 978 782 971 q 838 983 815 983 q 883 979 860 983 q 927 966 907 975 q 958 944 947 957 q 974 915 969 932 q 982 881 979 897 q 981 810 985 846 q 974 742 978 775 q 945 509 958 625 q 944 275 932 393 q 956 220 947 251 q 972 156 964 189 q 984 94 979 124 q 985 46 989 64 q 948 -1 978 15 q 883 -11 918 -17 q 816 24 847 -6 q 776 114 785 54 z "},"Ù":{"ha":1028,"x_min":43,"x_max":989,"o":"m 776 114 q 585 12 683 42 q 368 -1 486 -18 q 215 54 275 11 q 119 160 156 97 q 68 301 83 224 q 48 458 53 378 q 45 618 43 539 q 47 765 47 697 q 47 804 47 782 q 46 849 46 826 q 49 893 46 872 q 60 929 51 914 q 83 959 68 946 q 114 983 99 972 q 171 1011 140 1001 q 233 1020 201 1021 q 294 1009 264 1019 q 351 979 325 999 q 397 921 383 954 q 410 844 408 893 q 408 735 411 796 q 401 608 406 675 q 397 476 397 542 q 403 352 396 411 q 429 250 410 293 q 483 184 449 207 q 574 167 518 161 q 683 226 646 175 q 736 351 721 276 q 751 513 751 425 q 747 682 751 600 q 740 830 742 764 q 750 926 738 896 q 769 957 757 943 q 800 978 782 971 q 838 983 815 983 q 883 979 860 983 q 927 966 907 975 q 958 944 947 957 q 974 915 969 932 q 982 881 979 897 q 981 810 985 846 q 974 742 978 775 q 945 509 958 625 q 944 275 932 393 q 956 220 947 251 q 972 156 964 189 q 984 94 979 124 q 985 46 989 64 q 948 -1 978 15 q 883 -11 918 -17 q 816 24 847 -6 q 776 114 785 54 z "},"Ú":{"ha":1028,"x_min":43,"x_max":989,"o":"m 776 114 q 585 12 683 42 q 368 -1 486 -18 q 215 54 275 11 q 119 160 156 97 q 68 301 83 224 q 48 458 53 378 q 45 618 43 539 q 47 765 47 697 q 47 804 47 782 q 46 849 46 826 q 49 893 46 872 q 60 929 51 914 q 83 959 68 946 q 114 983 99 972 q 171 1011 140 1001 q 233 1020 201 1021 q 294 1009 264 1019 q 351 979 325 999 q 397 921 383 954 q 410 844 408 893 q 408 735 411 796 q 401 608 406 675 q 397 476 397 542 q 403 352 396 411 q 429 250 410 293 q 483 184 449 207 q 574 167 518 161 q 683 226 646 175 q 736 351 721 276 q 751 513 751 425 q 747 682 751 600 q 740 830 742 764 q 750 926 738 896 q 769 957 757 943 q 800 978 782 971 q 838 983 815 983 q 883 979 860 983 q 927 966 907 975 q 958 944 947 957 q 974 915 969 932 q 982 881 979 897 q 981 810 985 846 q 974 742 978 775 q 945 509 958 625 q 944 275 932 393 q 956 220 947 251 q 972 156 964 189 q 984 94 979 124 q 985 46 989 64 q 948 -1 978 15 q 883 -11 918 -17 q 816 24 847 -6 q 776 114 785 54 z "},"Û":{"ha":1028,"x_min":43,"x_max":989,"o":"m 776 114 q 585 12 683 42 q 368 -1 486 -18 q 215 54 275 11 q 119 160 156 97 q 68 301 83 224 q 48 458 53 378 q 45 618 43 539 q 47 765 47 697 q 47 804 47 782 q 46 849 46 826 q 49 893 46 872 q 60 929 51 914 q 83 959 68 946 q 114 983 99 972 q 171 1011 140 1001 q 233 1020 201 1021 q 294 1009 264 1019 q 351 979 325 999 q 397 921 383 954 q 410 844 408 893 q 408 735 411 796 q 401 608 406 675 q 397 476 397 542 q 403 352 396 411 q 429 250 410 293 q 483 184 449 207 q 574 167 518 161 q 683 226 646 175 q 736 351 721 276 q 751 513 751 425 q 747 682 751 600 q 740 830 742 764 q 750 926 738 896 q 769 957 757 943 q 800 978 782 971 q 838 983 815 983 q 883 979 860 983 q 927 966 907 975 q 958 944 947 957 q 974 915 969 932 q 982 881 979 897 q 981 810 985 846 q 974 742 978 775 q 945 509 958 625 q 944 275 932 393 q 956 220 947 251 q 972 156 964 189 q 984 94 979 124 q 985 46 989 64 q 948 -1 978 15 q 883 -11 918 -17 q 816 24 847 -6 q 776 114 785 54 z "},"Ü":{"ha":1028,"x_min":43,"x_max":989,"o":"m 776 114 q 585 12 683 42 q 368 -1 486 -18 q 215 54 275 11 q 119 160 156 97 q 68 301 83 224 q 48 458 53 378 q 45 618 43 539 q 47 765 47 697 q 47 804 47 782 q 46 849 46 826 q 49 893 46 872 q 60 929 51 914 q 83 959 68 946 q 114 983 99 972 q 171 1011 140 1001 q 233 1020 201 1021 q 294 1009 264 1019 q 351 979 325 999 q 397 921 383 954 q 410 844 408 893 q 408 735 411 796 q 401 608 406 675 q 397 476 397 542 q 403 352 396 411 q 429 250 410 293 q 483 184 449 207 q 574 167 518 161 q 683 226 646 175 q 736 351 721 276 q 751 513 751 425 q 747 682 751 600 q 740 830 742 764 q 750 926 738 896 q 769 957 757 943 q 800 978 782 971 q 838 983 815 983 q 883 979 860 983 q 927 966 907 975 q 958 944 947 957 q 974 915 969 932 q 982 881 979 897 q 981 810 985 846 q 974 742 978 775 q 945 509 958 625 q 944 275 932 393 q 956 220 947 251 q 972 156 964 189 q 984 94 979 124 q 985 46 989 64 q 948 -1 978 15 q 883 -11 918 -17 q 816 24 847 -6 q 776 114 785 54 z "},"V":{"ha":858,"x_min":1,"x_max":851,"o":"m 531 285 q 565 381 547 319 q 603 515 583 443 q 641 663 622 588 q 676 803 660 739 q 707 914 693 868 q 731 972 721 960 q 773 996 746 992 q 821 990 800 1000 q 843 972 836 983 q 851 946 850 960 q 849 917 851 932 q 843 889 846 901 q 777 615 813 750 q 710 342 742 479 q 689 244 699 293 q 665 147 679 196 q 646 91 658 119 q 615 40 633 63 q 547 -1 592 13 q 454 -14 503 -14 q 361 0 406 -14 q 296 40 317 14 q 281 70 289 49 q 267 117 274 92 q 256 165 261 142 q 246 201 250 189 q 203 335 228 269 q 152 467 179 401 q 97 597 125 532 q 43 728 68 663 q 21 789 32 757 q 4 853 10 821 q 2 875 1 867 q 5 891 3 883 q 11 906 7 899 q 19 924 15 913 q 75 949 46 935 q 135 974 104 964 q 198 988 167 985 q 258 981 229 990 q 332 921 297 967 q 396 811 367 875 q 449 672 425 747 q 490 524 472 596 q 517 388 507 451 q 531 285 528 325 z "},"W":{"ha":1344,"x_min":39,"x_max":1308,"o":"m 650 188 q 574 103 615 143 q 484 35 532 63 q 381 1 436 8 q 267 14 326 -7 q 139 105 186 43 q 69 248 92 167 q 42 424 46 329 q 44 611 39 518 q 61 789 50 704 q 78 938 72 874 q 81 962 79 951 q 89 985 82 972 q 118 1003 96 997 q 171 1010 140 1010 q 235 1008 201 1011 q 300 999 269 1006 q 354 984 331 993 q 388 964 378 975 q 408 922 403 946 q 414 875 413 899 q 406 722 417 799 q 383 571 394 646 q 377 526 381 556 q 372 461 374 496 q 371 391 369 426 q 380 326 372 356 q 404 280 388 297 q 449 265 421 263 q 476 274 464 267 q 499 290 488 281 q 564 396 546 335 q 587 519 582 457 q 592 636 592 581 q 607 725 593 692 q 624 759 614 742 q 651 783 635 776 q 706 795 672 793 q 764 794 740 797 q 838 764 814 790 q 869 698 861 738 q 876 609 878 658 q 872 510 874 560 q 873 413 869 460 q 896 332 876 367 q 924 298 907 313 q 960 276 940 283 q 1002 270 981 268 q 1043 286 1024 272 q 1106 368 1086 317 q 1128 480 1125 419 q 1125 607 1132 540 q 1109 735 1118 674 q 1094 847 1100 796 q 1093 932 1088 899 q 1110 967 1097 954 q 1140 983 1122 979 q 1176 983 1157 988 q 1211 965 1196 978 q 1240 928 1228 951 q 1260 878 1251 906 q 1274 824 1268 851 q 1283 776 1279 797 q 1300 648 1293 717 q 1308 508 1307 579 q 1301 369 1308 438 q 1278 242 1294 300 q 1209 111 1256 167 q 1103 24 1163 56 q 978 -15 1044 -7 q 849 -3 911 -22 q 734 63 786 15 q 650 188 682 110 z "},"X":{"ha":783,"x_min":4,"x_max":774,"o":"m 558 615 q 649 424 603 519 q 738 232 696 329 q 763 165 751 200 q 767 96 774 131 q 731 38 760 64 q 666 -4 703 11 q 590 -22 629 -19 q 525 -8 551 -25 q 478 55 500 7 q 434 160 456 103 q 390 275 413 218 q 344 364 368 332 q 304 279 329 333 q 249 169 279 225 q 189 65 219 113 q 132 3 158 18 q 90 -8 113 -8 q 47 1 67 -7 q 28 11 38 6 q 13 25 19 17 q 8 52 4 36 q 20 85 11 68 q 40 116 29 101 q 57 139 50 131 q 174 311 118 225 q 274 493 229 397 q 258 519 264 504 q 246 547 253 533 q 199 626 226 586 q 142 706 171 667 q 88 782 114 746 q 47 849 63 818 q 35 880 40 864 q 36 913 31 896 q 62 950 42 933 q 108 979 82 967 q 161 1000 135 992 q 207 1011 188 1008 q 308 995 267 1019 q 378 929 349 971 q 431 838 408 888 q 476 744 453 788 q 508 803 489 765 q 547 879 526 840 q 589 951 568 918 q 626 994 610 983 q 668 1006 649 1010 q 701 988 688 1003 q 721 952 715 974 q 722 908 726 931 q 696 842 717 882 q 650 761 675 803 q 599 681 625 719 q 558 615 574 642 z "},"Y":{"ha":746,"x_min":1,"x_max":750,"o":"m 474 372 q 484 300 476 347 q 499 203 492 253 q 509 108 506 153 q 507 43 513 64 q 469 -10 497 4 q 406 -31 442 -25 q 358 -34 386 -33 q 301 -31 331 -35 q 247 -17 272 -26 q 210 8 222 -8 q 196 50 199 24 q 197 110 193 76 q 207 180 200 143 q 220 251 214 217 q 231 317 226 286 q 235 368 236 347 q 94 588 154 468 q 11 833 35 707 q 4 887 7 857 q 18 936 1 917 q 39 953 26 947 q 63 965 51 958 q 110 985 83 975 q 164 999 136 994 q 217 1000 192 1003 q 263 981 243 997 q 292 939 278 968 q 319 871 306 910 q 344 787 332 832 q 370 699 357 742 q 396 620 383 657 q 421 560 408 583 q 488 670 457 613 q 542 788 518 728 q 559 833 549 804 q 582 894 569 863 q 608 951 594 925 q 633 989 621 978 q 669 1006 649 1003 q 708 1003 690 1010 q 738 980 725 996 q 749 940 750 964 q 731 873 747 918 q 688 772 714 828 q 629 654 661 715 q 567 538 597 593 q 512 438 538 482 q 474 372 486 393 z "},"Ý":{"ha":746,"x_min":1,"x_max":750,"o":"m 474 372 q 484 300 476 347 q 499 203 492 253 q 509 108 506 153 q 507 43 513 64 q 469 -10 497 4 q 406 -31 442 -25 q 358 -34 386 -33 q 301 -31 331 -35 q 247 -17 272 -26 q 210 8 222 -8 q 196 50 199 24 q 197 110 193 76 q 207 180 200 143 q 220 251 214 217 q 231 317 226 286 q 235 368 236 347 q 94 588 154 468 q 11 833 35 707 q 4 887 7 857 q 18 936 1 917 q 39 953 26 947 q 63 965 51 958 q 110 985 83 975 q 164 999 136 994 q 217 1000 192 1003 q 263 981 243 997 q 292 939 278 968 q 319 871 306 910 q 344 787 332 832 q 370 699 357 742 q 396 620 383 657 q 421 560 408 583 q 488 670 457 613 q 542 788 518 728 q 559 833 549 804 q 582 894 569 863 q 608 951 594 925 q 633 989 621 978 q 669 1006 649 1003 q 708 1003 690 1010 q 738 980 725 996 q 749 940 750 964 q 731 873 747 918 q 688 772 714 828 q 629 654 661 715 q 567 538 597 593 q 512 438 538 482 q 474 372 486 393 z "},"Ÿ":{"ha":746,"x_min":1,"x_max":750,"o":"m 474 372 q 484 300 476 347 q 499 203 492 253 q 509 108 506 153 q 507 43 513 64 q 469 -10 497 4 q 406 -31 442 -25 q 358 -34 386 -33 q 301 -31 331 -35 q 247 -17 272 -26 q 210 8 222 -8 q 196 50 199 24 q 197 110 193 76 q 207 180 200 143 q 220 251 214 217 q 231 317 226 286 q 235 368 236 347 q 94 588 154 468 q 11 833 35 707 q 4 887 7 857 q 18 936 1 917 q 39 953 26 947 q 63 965 51 958 q 110 985 83 975 q 164 999 136 994 q 217 1000 192 1003 q 263 981 243 997 q 292 939 278 968 q 319 871 306 910 q 344 787 332 832 q 370 699 357 742 q 396 620 383 657 q 421 560 408 583 q 488 670 457 613 q 542 788 518 728 q 559 833 549 804 q 582 894 569 863 q 608 951 594 925 q 633 989 621 978 q 669 1006 649 1003 q 708 1003 690 1010 q 738 980 725 996 q 749 940 750 964 q 731 873 747 918 q 688 772 714 828 q 629 654 661 715 q 567 538 597 593 q 512 438 538 482 q 474 372 486 393 z "},"Z":{"ha":835,"x_min":8,"x_max":825,"o":"m 378 279 q 461 302 408 289 q 570 323 514 315 q 678 327 626 331 q 756 301 729 324 q 789 239 778 282 q 797 149 800 196 q 778 63 794 103 q 733 7 763 22 q 678 -6 710 -6 q 612 -3 646 -7 q 544 6 578 0 q 485 14 511 11 q 351 18 418 21 q 217 8 283 15 q 166 5 190 6 q 119 9 142 4 q 78 26 97 14 q 43 64 58 39 q 15 183 8 118 q 56 315 22 247 q 140 451 89 383 q 243 581 190 519 q 344 695 296 643 q 419 785 392 747 q 299 772 358 779 q 178 761 239 764 q 96 788 121 758 q 72 855 71 817 q 94 931 72 893 q 154 985 117 969 q 226 1005 189 1000 q 301 1010 264 1010 q 356 1010 318 1010 q 441 1009 393 1010 q 540 1006 489 1008 q 638 1001 592 1004 q 717 994 683 999 q 763 985 751 990 q 783 972 774 979 q 799 956 792 965 q 811 864 825 914 q 765 765 797 814 q 693 673 732 717 q 629 603 654 629 q 497 446 560 526 q 378 279 435 365 z "},"[":{"ha":451,"x_min":53,"x_max":444,"o":"m 321 7 q 342 7 326 7 q 375 6 358 7 q 406 4 392 6 q 425 1 421 3 q 440 -9 435 -3 q 443 -22 444 -15 q 436 -35 442 -29 q 422 -40 431 -40 q 319 -38 371 -43 q 214 -37 267 -33 q 184 -41 203 -39 q 145 -44 165 -43 q 107 -44 125 -46 q 81 -33 89 -42 q 72 -17 72 -25 q 72 97 69 39 q 78 210 75 154 q 78 619 86 414 q 68 774 75 697 q 56 929 61 851 q 54 947 56 936 q 54 967 53 957 q 60 985 56 978 q 75 993 64 993 q 137 1004 92 1001 q 234 1006 182 1007 q 335 1002 286 1004 q 408 1000 383 1000 q 425 994 419 1000 q 431 979 431 988 q 425 965 431 971 q 408 958 419 958 q 360 958 385 958 q 313 960 336 958 q 310 925 310 953 q 313 864 311 897 q 317 800 315 831 q 319 758 319 769 q 328 274 332 517 q 325 140 326 207 q 321 7 324 74 z "},"\\":{"ha":513,"x_min":-31,"x_max":526,"o":"m 467 -62 q 426 -83 450 -74 q 378 -97 403 -93 q 330 -97 353 -101 q 293 -75 307 -93 q 275 -32 285 -65 q 256 41 265 1 q 239 117 246 81 q 228 171 232 154 q 186 369 207 268 q 133 564 165 471 q 112 625 126 586 q 79 710 97 664 q 43 808 61 757 q 10 903 25 858 q -16 984 -6 949 q -28 1036 -26 1019 q -8 1099 -31 1076 q 49 1135 15 1121 q 126 1149 88 1150 q 188 1106 164 1147 q 206 1056 200 1082 q 218 1006 211 1031 q 315 657 261 828 q 429 313 369 486 q 476 188 450 250 q 517 63 503 125 q 515 -10 526 19 q 467 -62 504 -39 z "},"]":{"ha":451,"x_min":8,"x_max":397,"o":"m 376 994 q 386 990 381 993 q 394 983 392 988 q 397 951 397 978 q 394 884 396 924 q 388 798 392 844 q 382 709 385 751 q 376 634 379 667 q 374 589 374 601 q 374 222 367 406 q 381 105 376 164 q 381 -12 385 46 q 370 -33 379 -26 q 349 -42 361 -40 q 323 -43 336 -44 q 300 -42 310 -42 q 183 -34 242 -37 q 67 -36 124 -31 q 49 -39 58 -37 q 31 -40 39 -40 q 17 -35 22 -40 q 10 -24 11 -31 q 12 -10 8 -17 q 26 1 15 -3 q 45 3 31 3 q 77 5 60 4 q 110 6 94 6 q 132 7 125 7 q 125 356 125 183 q 132 706 125 529 q 134 758 132 718 q 138 840 136 797 q 141 917 140 882 q 140 960 142 953 q 92 958 117 958 q 44 958 68 958 q 27 965 33 958 q 21 979 21 971 q 27 994 21 988 q 44 1000 33 1000 q 85 1001 57 1000 q 147 1002 113 1001 q 219 1003 182 1003 q 290 1003 257 1004 q 347 1001 324 1003 q 376 994 369 999 z "},"^":{"ha":611,"x_min":19,"x_max":585,"o":"m 346 756 q 323 687 338 731 q 290 599 308 643 q 249 520 271 556 q 201 475 226 485 q 167 469 188 469 q 125 473 146 469 q 85 483 104 476 q 53 497 65 489 q 33 516 42 506 q 21 542 24 526 q 31 581 19 553 q 60 643 42 608 q 103 718 79 678 q 148 794 126 758 q 188 860 169 831 q 214 907 206 890 q 225 932 221 919 q 236 957 229 944 q 267 989 246 979 q 305 999 281 996 q 354 1001 329 1003 q 401 993 379 1000 q 433 972 422 986 q 447 938 435 971 q 475 858 458 906 q 511 754 492 810 q 547 651 531 699 q 574 569 563 603 q 585 533 585 536 q 557 489 582 504 q 535 479 549 483 q 508 474 522 475 q 481 473 494 472 q 460 479 468 474 q 432 523 449 485 q 399 607 415 561 q 367 696 382 653 q 346 756 353 739 z "},"_":{"ha":779,"x_min":-21,"x_max":800,"o":"m 761 -190 q 706 -219 738 -212 q 643 -222 674 -225 q 525 -211 583 -218 q 407 -203 467 -204 q 325 -206 367 -203 q 242 -214 283 -210 q 158 -219 200 -218 q 76 -214 117 -221 q 16 -190 40 -208 q -17 -136 -8 -172 q -20 -94 -21 -117 q -12 -49 -19 -71 q 7 -8 -6 -26 q 39 19 19 10 q 97 28 49 24 q 212 35 144 32 q 356 40 279 39 q 503 42 433 42 q 624 42 572 43 q 690 39 675 42 q 724 31 707 36 q 754 14 740 25 q 792 -47 782 -8 q 794 -123 800 -82 q 761 -190 788 -164 z "},"a":{"ha":846,"x_min":18,"x_max":829,"o":"m 478 643 q 561 726 506 706 q 681 724 617 746 q 751 660 732 706 q 774 558 771 614 q 771 443 776 501 q 767 343 765 385 q 778 266 768 303 q 798 196 788 229 q 817 133 808 163 q 828 82 826 104 q 810 27 829 47 q 764 1 792 7 q 706 1 736 -6 q 656 26 676 8 q 631 53 646 35 q 601 93 615 72 q 574 134 586 114 q 558 167 563 154 q 459 85 510 124 q 346 22 408 46 q 223 10 285 0 q 113 63 161 21 q 44 165 67 101 q 19 299 21 228 q 37 442 18 369 q 93 574 56 515 q 185 671 131 633 q 310 711 239 708 q 400 693 357 713 q 478 643 443 674 m 278 271 q 319 193 293 210 q 370 190 344 176 q 418 242 396 204 q 450 326 440 279 q 453 424 460 374 q 417 515 447 475 q 374 544 394 543 q 335 529 353 546 q 303 481 317 513 q 281 414 289 450 q 271 340 272 378 q 278 271 269 301 z "},"à":{"ha":846,"x_min":18,"x_max":829,"o":"m 478 643 q 561 726 506 706 q 681 724 617 746 q 751 660 732 706 q 774 558 771 614 q 771 443 776 501 q 767 343 765 385 q 778 266 768 303 q 798 196 788 229 q 817 133 808 163 q 828 82 826 104 q 810 27 829 47 q 764 1 792 7 q 706 1 736 -6 q 656 26 676 8 q 631 53 646 35 q 601 93 615 72 q 574 134 586 114 q 558 167 563 154 q 459 85 510 124 q 346 22 408 46 q 223 10 285 0 q 113 63 161 21 q 44 165 67 101 q 19 299 21 228 q 37 442 18 369 q 93 574 56 515 q 185 671 131 633 q 310 711 239 708 q 400 693 357 713 q 478 643 443 674 m 278 271 q 319 193 293 210 q 370 190 344 176 q 418 242 396 204 q 450 326 440 279 q 453 424 460 374 q 417 515 447 475 q 374 544 394 543 q 335 529 353 546 q 303 481 317 513 q 281 414 289 450 q 271 340 272 378 q 278 271 269 301 z "},"á":{"ha":846,"x_min":18,"x_max":829,"o":"m 478 643 q 561 726 506 706 q 681 724 617 746 q 751 660 732 706 q 774 558 771 614 q 771 443 776 501 q 767 343 765 385 q 778 266 768 303 q 798 196 788 229 q 817 133 808 163 q 828 82 826 104 q 810 27 829 47 q 764 1 792 7 q 706 1 736 -6 q 656 26 676 8 q 631 53 646 35 q 601 93 615 72 q 574 134 586 114 q 558 167 563 154 q 459 85 510 124 q 346 22 408 46 q 223 10 285 0 q 113 63 161 21 q 44 165 67 101 q 19 299 21 228 q 37 442 18 369 q 93 574 56 515 q 185 671 131 633 q 310 711 239 708 q 400 693 357 713 q 478 643 443 674 m 278 271 q 319 193 293 210 q 370 190 344 176 q 418 242 396 204 q 450 326 440 279 q 453 424 460 374 q 417 515 447 475 q 374 544 394 543 q 335 529 353 546 q 303 481 317 513 q 281 414 289 450 q 271 340 272 378 q 278 271 269 301 z "},"â":{"ha":846,"x_min":18,"x_max":829,"o":"m 478 643 q 561 726 506 706 q 681 724 617 746 q 751 660 732 706 q 774 558 771 614 q 771 443 776 501 q 767 343 765 385 q 778 266 768 303 q 798 196 788 229 q 817 133 808 163 q 828 82 826 104 q 810 27 829 47 q 764 1 792 7 q 706 1 736 -6 q 656 26 676 8 q 631 53 646 35 q 601 93 615 72 q 574 134 586 114 q 558 167 563 154 q 459 85 510 124 q 346 22 408 46 q 223 10 285 0 q 113 63 161 21 q 44 165 67 101 q 19 299 21 228 q 37 442 18 369 q 93 574 56 515 q 185 671 131 633 q 310 711 239 708 q 400 693 357 713 q 478 643 443 674 m 278 271 q 319 193 293 210 q 370 190 344 176 q 418 242 396 204 q 450 326 440 279 q 453 424 460 374 q 417 515 447 475 q 374 544 394 543 q 335 529 353 546 q 303 481 317 513 q 281 414 289 450 q 271 340 272 378 q 278 271 269 301 z "},"ã":{"ha":846,"x_min":18,"x_max":829,"o":"m 478 643 q 561 726 506 706 q 681 724 617 746 q 751 660 732 706 q 774 558 771 614 q 771 443 776 501 q 767 343 765 385 q 778 266 768 303 q 798 196 788 229 q 817 133 808 163 q 828 82 826 104 q 810 27 829 47 q 764 1 792 7 q 706 1 736 -6 q 656 26 676 8 q 631 53 646 35 q 601 93 615 72 q 574 134 586 114 q 558 167 563 154 q 459 85 510 124 q 346 22 408 46 q 223 10 285 0 q 113 63 161 21 q 44 165 67 101 q 19 299 21 228 q 37 442 18 369 q 93 574 56 515 q 185 671 131 633 q 310 711 239 708 q 400 693 357 713 q 478 643 443 674 m 278 271 q 319 193 293 210 q 370 190 344 176 q 418 242 396 204 q 450 326 440 279 q 453 424 460 374 q 417 515 447 475 q 374 544 394 543 q 335 529 353 546 q 303 481 317 513 q 281 414 289 450 q 271 340 272 378 q 278 271 269 301 z "},"ä":{"ha":846,"x_min":18,"x_max":829,"o":"m 478 643 q 561 726 506 706 q 681 724 617 746 q 751 660 732 706 q 774 558 771 614 q 771 443 776 501 q 767 343 765 385 q 778 266 768 303 q 798 196 788 229 q 817 133 808 163 q 828 82 826 104 q 810 27 829 47 q 764 1 792 7 q 706 1 736 -6 q 656 26 676 8 q 631 53 646 35 q 601 93 615 72 q 574 134 586 114 q 558 167 563 154 q 459 85 510 124 q 346 22 408 46 q 223 10 285 0 q 113 63 161 21 q 44 165 67 101 q 19 299 21 228 q 37 442 18 369 q 93 574 56 515 q 185 671 131 633 q 310 711 239 708 q 400 693 357 713 q 478 643 443 674 m 278 271 q 319 193 293 210 q 370 190 344 176 q 418 242 396 204 q 450 326 440 279 q 453 424 460 374 q 417 515 447 475 q 374 544 394 543 q 335 529 353 546 q 303 481 317 513 q 281 414 289 450 q 271 340 272 378 q 278 271 269 301 z "},"å":{"ha":846,"x_min":18,"x_max":829,"o":"m 478 643 q 561 726 506 706 q 681 724 617 746 q 751 660 732 706 q 774 558 771 614 q 771 443 776 501 q 767 343 765 385 q 778 266 768 303 q 798 196 788 229 q 817 133 808 163 q 828 82 826 104 q 810 27 829 47 q 764 1 792 7 q 706 1 736 -6 q 656 26 676 8 q 631 53 646 35 q 601 93 615 72 q 574 134 586 114 q 558 167 563 154 q 459 85 510 124 q 346 22 408 46 q 223 10 285 0 q 113 63 161 21 q 44 165 67 101 q 19 299 21 228 q 37 442 18 369 q 93 574 56 515 q 185 671 131 633 q 310 711 239 708 q 400 693 357 713 q 478 643 443 674 m 278 271 q 319 193 293 210 q 370 190 344 176 q 418 242 396 204 q 450 326 440 279 q 453 424 460 374 q 417 515 447 475 q 374 544 394 543 q 335 529 353 546 q 303 481 317 513 q 281 414 289 450 q 271 340 272 378 q 278 271 269 301 z "},"b":{"ha":826,"x_min":35,"x_max":811,"o":"m 372 71 q 315 6 356 28 q 228 -17 275 -15 q 138 -3 181 -19 q 75 44 96 13 q 58 101 60 69 q 58 161 56 133 q 70 501 72 335 q 43 842 68 668 q 38 887 40 864 q 42 931 35 910 q 94 981 53 965 q 183 997 135 997 q 276 981 232 996 q 340 938 321 965 q 367 865 358 910 q 378 771 375 821 q 378 674 381 721 q 374 593 376 626 q 465 670 414 646 q 583 679 515 694 q 708 619 658 664 q 782 513 757 574 q 809 383 807 453 q 793 249 811 314 q 738 131 775 185 q 647 49 701 78 q 524 22 593 19 q 372 71 454 24 m 467 168 q 528 172 501 153 q 574 231 556 192 q 602 320 593 269 q 607 417 611 371 q 585 499 603 464 q 536 540 568 533 q 497 532 517 544 q 465 507 478 519 q 419 428 436 478 q 399 326 401 378 q 413 229 397 274 q 467 168 429 185 z "},"c":{"ha":672,"x_min":14,"x_max":649,"o":"m 500 -17 q 365 -25 435 -26 q 232 0 294 -24 q 102 95 151 29 q 33 244 53 161 q 24 417 14 326 q 69 586 33 507 q 165 723 104 665 q 311 799 226 781 q 436 803 369 811 q 553 760 503 794 q 604 707 583 739 q 635 640 625 675 q 647 570 646 604 q 639 510 649 536 q 609 472 629 485 q 558 469 589 460 q 528 501 539 475 q 506 554 517 528 q 478 597 494 581 q 432 601 461 614 q 397 574 411 592 q 374 535 382 556 q 356 470 364 513 q 344 380 347 428 q 343 285 340 332 q 360 203 346 238 q 399 155 374 169 q 468 160 425 140 q 502 181 486 168 q 534 203 518 194 q 568 213 550 213 q 607 194 586 213 q 637 156 626 178 q 648 110 647 133 q 640 64 649 86 q 610 25 631 42 q 558 -3 586 6 q 500 -17 529 -12 z "},"ç":{"ha":672,"x_min":14,"x_max":649,"o":"m 500 -17 q 365 -25 435 -26 q 232 0 294 -24 q 102 95 151 29 q 33 244 53 161 q 24 417 14 326 q 69 586 33 507 q 165 723 104 665 q 311 799 226 781 q 436 803 369 811 q 553 760 503 794 q 604 707 583 739 q 635 640 625 675 q 647 570 646 604 q 639 510 649 536 q 609 472 629 485 q 558 469 589 460 q 528 501 539 475 q 506 554 517 528 q 478 597 494 581 q 432 601 461 614 q 397 574 411 592 q 374 535 382 556 q 356 470 364 513 q 344 380 347 428 q 343 285 340 332 q 360 203 346 238 q 399 155 374 169 q 468 160 425 140 q 502 181 486 168 q 534 203 518 194 q 568 213 550 213 q 607 194 586 213 q 637 156 626 178 q 648 110 647 133 q 640 64 649 86 q 610 25 631 42 q 558 -3 586 6 q 500 -17 529 -12 z "},"d":{"ha":849,"x_min":17,"x_max":821,"o":"m 415 664 q 410 732 413 690 q 409 817 407 774 q 419 899 411 861 q 446 958 426 938 q 512 995 467 982 q 606 1008 557 1008 q 697 994 654 1008 q 758 950 740 981 q 790 853 783 908 q 792 732 796 797 q 781 595 789 667 q 769 451 774 524 q 768 308 764 378 q 793 175 772 238 q 808 133 800 154 q 818 90 817 113 q 803 39 821 63 q 770 15 790 24 q 726 3 750 6 q 680 2 703 0 q 640 11 657 4 q 599 35 617 19 q 567 70 581 50 q 542 112 553 90 q 522 154 532 133 q 473 97 500 125 q 415 49 446 69 q 348 16 383 28 q 274 6 313 4 q 197 24 233 7 q 131 67 161 42 q 44 192 71 117 q 18 350 17 268 q 48 508 19 432 q 128 633 76 583 q 252 696 179 683 q 415 664 325 708 m 294 193 q 355 202 328 185 q 400 251 382 219 q 426 324 418 283 q 428 403 433 365 q 405 469 424 440 q 353 508 386 499 q 292 501 319 518 q 247 451 265 483 q 220 378 228 419 q 217 298 213 336 q 241 231 222 260 q 294 193 260 201 z "},"e":{"ha":678,"x_min":14,"x_max":654,"o":"m 258 307 q 278 255 258 271 q 328 235 297 239 q 397 234 358 231 q 472 242 435 238 q 540 249 508 247 q 589 240 571 250 q 635 181 622 222 q 636 106 649 140 q 565 20 615 50 q 448 -15 514 -10 q 310 -3 382 -21 q 176 51 238 14 q 71 143 114 88 q 19 271 28 199 q 22 367 14 317 q 49 467 31 418 q 96 558 68 515 q 158 631 124 600 q 253 690 197 664 q 370 726 310 717 q 488 724 431 736 q 586 671 546 713 q 633 594 617 639 q 653 506 650 549 q 647 453 654 479 q 628 404 640 428 q 556 326 599 353 q 464 289 514 299 q 361 285 414 279 q 258 307 308 292 m 319 461 q 351 436 328 442 q 399 435 374 431 q 447 453 425 440 q 475 481 469 465 q 470 508 482 497 q 438 524 458 519 q 394 526 418 528 q 350 517 369 525 q 321 495 331 510 q 319 461 311 481 z "},"è":{"ha":678,"x_min":14,"x_max":654,"o":"m 258 307 q 278 255 258 271 q 328 235 297 239 q 397 234 358 231 q 472 242 435 238 q 540 249 508 247 q 589 240 571 250 q 635 181 622 222 q 636 106 649 140 q 565 20 615 50 q 448 -15 514 -10 q 310 -3 382 -21 q 176 51 238 14 q 71 143 114 88 q 19 271 28 199 q 22 367 14 317 q 49 467 31 418 q 96 558 68 515 q 158 631 124 600 q 253 690 197 664 q 370 726 310 717 q 488 724 431 736 q 586 671 546 713 q 633 594 617 639 q 653 506 650 549 q 647 453 654 479 q 628 404 640 428 q 556 326 599 353 q 464 289 514 299 q 361 285 414 279 q 258 307 308 292 m 319 461 q 351 436 328 442 q 399 435 374 431 q 447 453 425 440 q 475 481 469 465 q 470 508 482 497 q 438 524 458 519 q 394 526 418 528 q 350 517 369 525 q 321 495 331 510 q 319 461 311 481 z "},"é":{"ha":678,"x_min":14,"x_max":654,"o":"m 258 307 q 278 255 258 271 q 328 235 297 239 q 397 234 358 231 q 472 242 435 238 q 540 249 508 247 q 589 240 571 250 q 635 181 622 222 q 636 106 649 140 q 565 20 615 50 q 448 -15 514 -10 q 310 -3 382 -21 q 176 51 238 14 q 71 143 114 88 q 19 271 28 199 q 22 367 14 317 q 49 467 31 418 q 96 558 68 515 q 158 631 124 600 q 253 690 197 664 q 370 726 310 717 q 488 724 431 736 q 586 671 546 713 q 633 594 617 639 q 653 506 650 549 q 647 453 654 479 q 628 404 640 428 q 556 326 599 353 q 464 289 514 299 q 361 285 414 279 q 258 307 308 292 m 319 461 q 351 436 328 442 q 399 435 374 431 q 447 453 425 440 q 475 481 469 465 q 470 508 482 497 q 438 524 458 519 q 394 526 418 528 q 350 517 369 525 q 321 495 331 510 q 319 461 311 481 z "},"ê":{"ha":678,"x_min":14,"x_max":654,"o":"m 258 307 q 278 255 258 271 q 328 235 297 239 q 397 234 358 231 q 472 242 435 238 q 540 249 508 247 q 589 240 571 250 q 635 181 622 222 q 636 106 649 140 q 565 20 615 50 q 448 -15 514 -10 q 310 -3 382 -21 q 176 51 238 14 q 71 143 114 88 q 19 271 28 199 q 22 367 14 317 q 49 467 31 418 q 96 558 68 515 q 158 631 124 600 q 253 690 197 664 q 370 726 310 717 q 488 724 431 736 q 586 671 546 713 q 633 594 617 639 q 653 506 650 549 q 647 453 654 479 q 628 404 640 428 q 556 326 599 353 q 464 289 514 299 q 361 285 414 279 q 258 307 308 292 m 319 461 q 351 436 328 442 q 399 435 374 431 q 447 453 425 440 q 475 481 469 465 q 470 508 482 497 q 438 524 458 519 q 394 526 418 528 q 350 517 369 525 q 321 495 331 510 q 319 461 311 481 z "},"ë":{"ha":678,"x_min":14,"x_max":654,"o":"m 258 307 q 278 255 258 271 q 328 235 297 239 q 397 234 358 231 q 472 242 435 238 q 540 249 508 247 q 589 240 571 250 q 635 181 622 222 q 636 106 649 140 q 565 20 615 50 q 448 -15 514 -10 q 310 -3 382 -21 q 176 51 238 14 q 71 143 114 88 q 19 271 28 199 q 22 367 14 317 q 49 467 31 418 q 96 558 68 515 q 158 631 124 600 q 253 690 197 664 q 370 726 310 717 q 488 724 431 736 q 586 671 546 713 q 633 594 617 639 q 653 506 650 549 q 647 453 654 479 q 628 404 640 428 q 556 326 599 353 q 464 289 514 299 q 361 285 414 279 q 258 307 308 292 m 319 461 q 351 436 328 442 q 399 435 374 431 q 447 453 425 440 q 475 481 469 465 q 470 508 482 497 q 438 524 458 519 q 394 526 418 528 q 350 517 369 525 q 321 495 331 510 q 319 461 311 481 z "},"f":{"ha":793,"x_min":-1,"x_max":781,"o":"m 496 397 q 511 287 504 342 q 532 176 518 232 q 547 116 539 146 q 558 54 556 86 q 558 14 561 35 q 544 -25 556 -7 q 497 -69 528 -53 q 430 -94 467 -86 q 356 -103 393 -103 q 292 -96 319 -103 q 250 -82 271 -90 q 214 -60 229 -74 q 181 -10 193 -42 q 160 60 168 21 q 150 142 153 99 q 147 228 147 186 q 147 306 146 269 q 150 368 149 342 q 92 373 122 369 q 38 396 61 376 q 10 442 17 413 q 10 516 -1 485 q 45 567 21 547 q 104 598 69 588 q 175 611 139 608 q 179 636 176 619 q 185 670 182 653 q 193 703 189 688 q 201 722 197 718 q 233 818 213 771 q 290 901 254 865 q 363 957 322 935 q 449 988 404 979 q 527 997 483 993 q 615 997 571 1001 q 696 975 658 992 q 756 925 733 958 q 774 883 767 907 q 781 833 781 858 q 775 783 781 807 q 756 742 769 758 q 703 710 735 714 q 638 707 671 706 q 575 707 606 708 q 525 685 544 706 q 499 641 508 665 q 486 592 490 617 q 535 592 504 592 q 599 592 567 593 q 660 586 631 590 q 703 574 689 582 q 721 554 715 565 q 729 524 728 542 q 728 490 731 507 q 718 458 725 474 q 700 433 711 443 q 658 410 683 418 q 603 400 632 403 q 545 397 574 397 q 496 397 517 397 z "},"g":{"ha":764,"x_min":14,"x_max":739,"o":"m 446 193 q 347 101 404 138 q 215 76 290 65 q 94 138 139 88 q 31 258 49 188 q 22 410 14 329 q 60 565 31 492 q 137 697 89 639 q 247 778 185 754 q 403 801 322 806 q 553 754 483 797 q 607 703 586 733 q 632 644 628 672 q 624 595 636 615 q 578 574 611 575 q 542 584 561 572 q 501 611 522 596 q 456 640 479 626 q 410 656 433 653 q 365 647 388 660 q 322 599 343 635 q 285 491 294 549 q 279 376 276 433 q 281 353 279 368 q 284 323 282 339 q 290 294 286 307 q 300 275 293 281 q 345 267 322 256 q 387 303 368 278 q 419 358 406 328 q 435 404 432 388 q 449 460 442 433 q 482 507 456 488 q 532 533 503 522 q 592 544 561 543 q 650 537 622 546 q 694 504 678 528 q 715 457 707 488 q 726 393 722 426 q 732 328 731 360 q 735 274 733 296 q 738 135 738 208 q 728 -12 739 61 q 693 -151 718 -85 q 618 -267 668 -217 q 565 -312 594 -292 q 500 -343 535 -333 q 403 -350 447 -357 q 328 -322 360 -343 q 275 -272 296 -301 q 249 -210 254 -242 q 253 -149 243 -178 q 290 -101 263 -121 q 328 -87 307 -90 q 370 -79 350 -83 q 408 -65 390 -75 q 435 -32 425 -56 q 447 18 443 -11 q 450 78 450 47 q 449 140 450 110 q 446 193 447 169 z "},"h":{"ha":889,"x_min":44,"x_max":868,"o":"m 388 540 q 460 626 422 583 q 547 696 499 668 q 617 718 579 714 q 690 710 656 722 q 770 638 736 692 q 826 513 804 585 q 858 359 849 440 q 867 206 868 278 q 853 81 865 135 q 819 11 842 28 q 784 -5 806 0 q 738 -10 763 -10 q 691 -8 714 -11 q 653 0 668 -6 q 609 33 624 11 q 589 83 594 54 q 585 144 583 111 q 592 210 588 176 q 599 273 596 243 q 600 326 601 303 q 593 363 599 343 q 578 401 588 383 q 555 433 569 419 q 522 449 540 446 q 487 442 503 451 q 458 417 471 432 q 437 383 446 401 q 422 351 428 365 q 403 260 408 313 q 389 156 399 207 q 359 63 379 104 q 296 4 339 21 q 247 -7 276 -4 q 188 -6 218 -10 q 132 6 158 -3 q 89 31 106 15 q 60 96 64 56 q 60 182 54 139 q 67 268 65 225 q 63 356 67 300 q 56 478 60 411 q 49 617 53 546 q 45 753 44 689 q 51 867 46 818 q 68 940 56 917 q 117 983 82 967 q 192 1005 151 999 q 272 1007 232 1011 q 335 989 311 1003 q 373 943 358 975 q 394 869 388 911 q 401 781 400 828 q 399 688 401 733 q 394 604 397 643 q 388 540 390 565 z "},"i":{"ha":417,"x_min":28,"x_max":381,"o":"m 203 744 q 126 747 163 732 q 66 791 90 761 q 35 860 42 821 q 47 935 28 899 q 88 975 60 960 q 148 997 115 990 q 214 1005 181 1004 q 272 1000 247 1006 q 339 963 313 992 q 373 898 365 933 q 367 828 381 863 q 314 774 353 793 q 259 756 288 760 q 203 744 231 753 m 294 7 q 196 5 247 -11 q 114 61 144 21 q 78 120 93 89 q 54 183 64 151 q 38 283 43 221 q 36 411 32 346 q 57 534 40 476 q 107 617 74 592 q 154 635 128 632 q 206 640 181 639 q 245 641 224 640 q 288 638 267 642 q 326 624 308 633 q 356 597 344 615 q 367 545 363 585 q 375 452 372 506 q 377 338 378 399 q 374 223 376 278 q 366 126 371 168 q 354 68 361 85 q 331 31 346 49 q 294 7 315 14 z "},"ì":{"ha":417,"x_min":28,"x_max":381,"o":"m 203 744 q 126 747 163 732 q 66 791 90 761 q 35 860 42 821 q 47 935 28 899 q 88 975 60 960 q 148 997 115 990 q 214 1005 181 1004 q 272 1000 247 1006 q 339 963 313 992 q 373 898 365 933 q 367 828 381 863 q 314 774 353 793 q 259 756 288 760 q 203 744 231 753 m 294 7 q 196 5 247 -11 q 114 61 144 21 q 78 120 93 89 q 54 183 64 151 q 38 283 43 221 q 36 411 32 346 q 57 534 40 476 q 107 617 74 592 q 154 635 128 632 q 206 640 181 639 q 245 641 224 640 q 288 638 267 642 q 326 624 308 633 q 356 597 344 615 q 367 545 363 585 q 375 452 372 506 q 377 338 378 399 q 374 223 376 278 q 366 126 371 168 q 354 68 361 85 q 331 31 346 49 q 294 7 315 14 z "},"í":{"ha":417,"x_min":28,"x_max":381,"o":"m 203 744 q 126 747 163 732 q 66 791 90 761 q 35 860 42 821 q 47 935 28 899 q 88 975 60 960 q 148 997 115 990 q 214 1005 181 1004 q 272 1000 247 1006 q 339 963 313 992 q 373 898 365 933 q 367 828 381 863 q 314 774 353 793 q 259 756 288 760 q 203 744 231 753 m 294 7 q 196 5 247 -11 q 114 61 144 21 q 78 120 93 89 q 54 183 64 151 q 38 283 43 221 q 36 411 32 346 q 57 534 40 476 q 107 617 74 592 q 154 635 128 632 q 206 640 181 639 q 245 641 224 640 q 288 638 267 642 q 326 624 308 633 q 356 597 344 615 q 367 545 363 585 q 375 452 372 506 q 377 338 378 399 q 374 223 376 278 q 366 126 371 168 q 354 68 361 85 q 331 31 346 49 q 294 7 315 14 z "},"î":{"ha":417,"x_min":28,"x_max":381,"o":"m 203 744 q 126 747 163 732 q 66 791 90 761 q 35 860 42 821 q 47 935 28 899 q 88 975 60 960 q 148 997 115 990 q 214 1005 181 1004 q 272 1000 247 1006 q 339 963 313 992 q 373 898 365 933 q 367 828 381 863 q 314 774 353 793 q 259 756 288 760 q 203 744 231 753 m 294 7 q 196 5 247 -11 q 114 61 144 21 q 78 120 93 89 q 54 183 64 151 q 38 283 43 221 q 36 411 32 346 q 57 534 40 476 q 107 617 74 592 q 154 635 128 632 q 206 640 181 639 q 245 641 224 640 q 288 638 267 642 q 326 624 308 633 q 356 597 344 615 q 367 545 363 585 q 375 452 372 506 q 377 338 378 399 q 374 223 376 278 q 366 126 371 168 q 354 68 361 85 q 331 31 346 49 q 294 7 315 14 z "},"ï":{"ha":417,"x_min":28,"x_max":381,"o":"m 203 744 q 126 747 163 732 q 66 791 90 761 q 35 860 42 821 q 47 935 28 899 q 88 975 60 960 q 148 997 115 990 q 214 1005 181 1004 q 272 1000 247 1006 q 339 963 313 992 q 373 898 365 933 q 367 828 381 863 q 314 774 353 793 q 259 756 288 760 q 203 744 231 753 m 294 7 q 196 5 247 -11 q 114 61 144 21 q 78 120 93 89 q 54 183 64 151 q 38 283 43 221 q 36 411 32 346 q 57 534 40 476 q 107 617 74 592 q 154 635 128 632 q 206 640 181 639 q 245 641 224 640 q 288 638 267 642 q 326 624 308 633 q 356 597 344 615 q 367 545 363 585 q 375 452 372 506 q 377 338 378 399 q 374 223 376 278 q 366 126 371 168 q 354 68 361 85 q 331 31 346 49 q 294 7 315 14 z "},"j":{"ha":556,"x_min":-33,"x_max":522,"o":"m 417 781 q 367 767 396 769 q 310 767 339 764 q 254 780 281 769 q 211 807 228 790 q 187 847 194 822 q 180 899 179 872 q 189 949 181 925 q 214 989 197 974 q 266 1010 231 1004 q 340 1013 301 1015 q 411 998 378 1010 q 458 968 444 986 q 478 920 474 947 q 477 866 483 893 q 456 816 471 839 q 417 781 440 793 m 238 -268 q 123 -265 179 -283 q 28 -206 67 -246 q -22 -112 -11 -167 q -1 0 -33 -57 q 40 46 17 33 q 88 65 64 58 q 135 79 113 72 q 172 108 157 86 q 186 155 183 124 q 188 226 189 186 q 183 313 188 267 q 177 403 179 358 q 175 486 175 447 q 182 551 175 525 q 222 615 192 588 q 286 651 251 642 q 333 659 307 657 q 386 657 360 661 q 435 642 413 653 q 474 614 458 632 q 505 549 497 585 q 515 476 513 513 q 521 344 519 417 q 517 194 522 271 q 494 44 511 118 q 446 -94 478 -31 q 363 -203 414 -157 q 238 -268 313 -249 z "},"k":{"ha":758,"x_min":43,"x_max":751,"o":"m 392 263 q 392 179 392 221 q 383 101 393 138 q 349 38 374 65 q 272 -1 324 11 q 208 -8 242 -8 q 142 3 174 -7 q 86 35 111 14 q 50 90 61 57 q 43 150 43 113 q 47 228 43 188 q 54 309 50 269 q 60 375 58 349 q 63 551 64 464 q 60 728 63 639 q 56 774 60 749 q 50 826 53 800 q 48 877 47 853 q 57 921 49 901 q 110 983 74 963 q 188 1008 146 1004 q 272 1002 229 1013 q 346 971 314 992 q 385 922 371 954 q 406 848 400 889 q 413 761 413 807 q 408 672 413 715 q 399 589 404 628 q 388 524 393 550 q 422 558 399 533 q 474 613 444 583 q 535 670 503 642 q 596 716 567 699 q 649 735 625 733 q 688 714 674 738 q 697 686 694 701 q 696 656 700 671 q 663 613 692 642 q 600 553 635 585 q 531 495 565 522 q 483 457 497 468 q 516 422 493 447 q 567 363 539 396 q 627 292 596 329 q 685 221 658 254 q 728 163 711 188 q 747 129 746 138 q 743 86 751 107 q 723 56 736 71 q 693 31 710 42 q 658 14 676 19 q 624 13 640 8 q 574 49 607 17 q 507 124 542 82 q 440 205 472 165 q 392 263 408 244 z "},"l":{"ha":479,"x_min":36,"x_max":460,"o":"m 397 -4 q 295 -6 346 -11 q 201 19 244 0 q 123 74 157 39 q 68 160 89 108 q 46 260 54 197 q 37 399 38 324 q 41 555 36 474 q 58 710 46 636 q 88 842 69 783 q 129 935 106 901 q 167 969 144 956 q 214 990 190 983 q 269 998 239 997 q 328 991 299 999 q 381 967 357 983 q 418 925 406 950 q 433 847 432 897 q 428 733 435 796 q 410 602 422 671 q 387 469 399 533 q 365 349 375 404 q 350 257 354 293 q 347 224 349 244 q 346 182 344 203 q 352 142 347 161 q 368 115 357 124 q 399 100 382 104 q 432 89 417 96 q 458 50 457 76 q 438 8 460 24 q 418 0 431 3 q 397 -4 406 -3 z "},"m":{"ha":1276,"x_min":33,"x_max":1254,"o":"m 757 588 q 839 681 793 638 q 950 732 885 724 q 1070 713 1010 740 q 1168 640 1131 686 q 1206 564 1189 614 q 1235 452 1224 514 q 1250 324 1246 390 q 1249 197 1254 257 q 1227 88 1243 136 q 1182 18 1211 40 q 1112 -13 1151 -6 q 1036 -14 1072 -21 q 967 24 989 -4 q 938 90 944 51 q 938 176 932 129 q 949 273 943 224 q 956 370 954 322 q 947 458 958 418 q 933 490 943 474 q 907 513 924 506 q 867 509 888 519 q 836 483 847 499 q 804 398 808 447 q 803 296 800 349 q 808 193 806 243 q 797 104 811 143 q 742 44 782 65 q 622 29 703 24 q 551 57 575 32 q 516 120 526 82 q 506 204 506 158 q 509 297 506 250 q 514 385 513 343 q 508 457 515 428 q 499 483 506 468 q 484 510 493 497 q 463 531 475 522 q 438 538 451 539 q 407 524 419 536 q 388 496 394 511 q 360 366 358 438 q 367 224 361 294 q 365 95 372 154 q 313 3 358 36 q 237 -26 281 -21 q 154 -22 193 -32 q 81 17 113 -11 q 42 89 49 44 q 39 147 38 118 q 43 206 40 176 q 50 425 51 318 q 36 643 49 532 q 34 668 35 654 q 38 693 33 682 q 84 749 49 729 q 162 770 119 768 q 244 755 204 772 q 306 700 285 738 q 320 665 315 683 q 331 626 325 646 q 440 701 383 679 q 553 718 497 724 q 662 679 610 713 q 757 588 714 646 z "},"n":{"ha":1000,"x_min":31,"x_max":981,"o":"m 389 629 q 457 681 424 660 q 526 715 490 701 q 602 733 563 728 q 688 736 642 738 q 811 688 757 733 q 903 572 865 642 q 960 417 940 501 q 980 254 979 333 q 963 111 981 175 q 906 18 944 47 q 820 -15 869 -10 q 726 -10 771 -21 q 647 28 674 3 q 613 85 621 53 q 608 156 604 118 q 619 234 613 194 q 632 313 626 274 q 633 389 638 353 q 623 426 631 407 q 603 462 615 446 q 575 488 592 478 q 538 499 558 499 q 503 491 519 499 q 474 472 488 483 q 420 398 435 442 q 401 305 406 354 q 397 204 397 256 q 390 108 397 153 q 361 30 383 64 q 290 -19 339 -4 q 157 -26 222 -42 q 112 -10 133 -21 q 75 18 90 0 q 41 83 50 46 q 32 157 32 121 q 39 256 31 207 q 51 354 47 306 q 58 505 58 429 q 49 656 58 581 q 47 672 47 664 q 50 688 46 681 q 72 742 50 718 q 126 779 93 767 q 201 792 160 792 q 279 775 242 792 q 347 723 317 758 q 389 629 376 688 z "},"ñ":{"ha":1000,"x_min":31,"x_max":981,"o":"m 389 629 q 457 681 424 660 q 526 715 490 701 q 602 733 563 728 q 688 736 642 738 q 811 688 757 733 q 903 572 865 642 q 960 417 940 501 q 980 254 979 333 q 963 111 981 175 q 906 18 944 47 q 820 -15 869 -10 q 726 -10 771 -21 q 647 28 674 3 q 613 85 621 53 q 608 156 604 118 q 619 234 613 194 q 632 313 626 274 q 633 389 638 353 q 623 426 631 407 q 603 462 615 446 q 575 488 592 478 q 538 499 558 499 q 503 491 519 499 q 474 472 488 483 q 420 398 435 442 q 401 305 406 354 q 397 204 397 256 q 390 108 397 153 q 361 30 383 64 q 290 -19 339 -4 q 157 -26 222 -42 q 112 -10 133 -21 q 75 18 90 0 q 41 83 50 46 q 32 157 32 121 q 39 256 31 207 q 51 354 47 306 q 58 505 58 429 q 49 656 58 581 q 47 672 47 664 q 50 688 46 681 q 72 742 50 718 q 126 779 93 767 q 201 792 160 792 q 279 775 242 792 q 347 723 317 758 q 389 629 376 688 z "},"o":{"ha":775,"x_min":11,"x_max":758,"o":"m 661 114 q 557 29 615 61 q 435 -14 499 -3 q 306 -17 371 -25 q 178 21 240 -8 q 129 47 153 32 q 86 83 106 63 q 23 214 35 140 q 27 362 11 288 q 81 504 43 436 q 167 621 118 572 q 286 698 221 675 q 418 717 351 721 q 547 685 485 714 q 656 610 608 657 q 731 499 703 564 q 757 360 758 435 q 730 228 754 293 q 661 114 706 164 m 360 219 q 403 205 381 208 q 450 201 426 201 q 561 242 525 201 q 601 338 597 282 q 579 453 604 394 q 507 550 554 513 q 431 574 468 581 q 363 539 393 568 q 314 465 333 510 q 291 372 294 419 q 303 283 288 325 q 360 219 319 242 z "},"ò":{"ha":775,"x_min":11,"x_max":758,"o":"m 661 114 q 557 29 615 61 q 435 -14 499 -3 q 306 -17 371 -25 q 178 21 240 -8 q 129 47 153 32 q 86 83 106 63 q 23 214 35 140 q 27 362 11 288 q 81 504 43 436 q 167 621 118 572 q 286 698 221 675 q 418 717 351 721 q 547 685 485 714 q 656 610 608 657 q 731 499 703 564 q 757 360 758 435 q 730 228 754 293 q 661 114 706 164 m 360 219 q 403 205 381 208 q 450 201 426 201 q 561 242 525 201 q 601 338 597 282 q 579 453 604 394 q 507 550 554 513 q 431 574 468 581 q 363 539 393 568 q 314 465 333 510 q 291 372 294 419 q 303 283 288 325 q 360 219 319 242 z "},"ó":{"ha":775,"x_min":11,"x_max":758,"o":"m 661 114 q 557 29 615 61 q 435 -14 499 -3 q 306 -17 371 -25 q 178 21 240 -8 q 129 47 153 32 q 86 83 106 63 q 23 214 35 140 q 27 362 11 288 q 81 504 43 436 q 167 621 118 572 q 286 698 221 675 q 418 717 351 721 q 547 685 485 714 q 656 610 608 657 q 731 499 703 564 q 757 360 758 435 q 730 228 754 293 q 661 114 706 164 m 360 219 q 403 205 381 208 q 450 201 426 201 q 561 242 525 201 q 601 338 597 282 q 579 453 604 394 q 507 550 554 513 q 431 574 468 581 q 363 539 393 568 q 314 465 333 510 q 291 372 294 419 q 303 283 288 325 q 360 219 319 242 z "},"ô":{"ha":775,"x_min":11,"x_max":758,"o":"m 661 114 q 557 29 615 61 q 435 -14 499 -3 q 306 -17 371 -25 q 178 21 240 -8 q 129 47 153 32 q 86 83 106 63 q 23 214 35 140 q 27 362 11 288 q 81 504 43 436 q 167 621 118 572 q 286 698 221 675 q 418 717 351 721 q 547 685 485 714 q 656 610 608 657 q 731 499 703 564 q 757 360 758 435 q 730 228 754 293 q 661 114 706 164 m 360 219 q 403 205 381 208 q 450 201 426 201 q 561 242 525 201 q 601 338 597 282 q 579 453 604 394 q 507 550 554 513 q 431 574 468 581 q 363 539 393 568 q 314 465 333 510 q 291 372 294 419 q 303 283 288 325 q 360 219 319 242 z "},"õ":{"ha":775,"x_min":11,"x_max":758,"o":"m 661 114 q 557 29 615 61 q 435 -14 499 -3 q 306 -17 371 -25 q 178 21 240 -8 q 129 47 153 32 q 86 83 106 63 q 23 214 35 140 q 27 362 11 288 q 81 504 43 436 q 167 621 118 572 q 286 698 221 675 q 418 717 351 721 q 547 685 485 714 q 656 610 608 657 q 731 499 703 564 q 757 360 758 435 q 730 228 754 293 q 661 114 706 164 m 360 219 q 403 205 381 208 q 450 201 426 201 q 561 242 525 201 q 601 338 597 282 q 579 453 604 394 q 507 550 554 513 q 431 574 468 581 q 363 539 393 568 q 314 465 333 510 q 291 372 294 419 q 303 283 288 325 q 360 219 319 242 z "},"ö":{"ha":775,"x_min":11,"x_max":758,"o":"m 661 114 q 557 29 615 61 q 435 -14 499 -3 q 306 -17 371 -25 q 178 21 240 -8 q 129 47 153 32 q 86 83 106 63 q 23 214 35 140 q 27 362 11 288 q 81 504 43 436 q 167 621 118 572 q 286 698 221 675 q 418 717 351 721 q 547 685 485 714 q 656 610 608 657 q 731 499 703 564 q 757 360 758 435 q 730 228 754 293 q 661 114 706 164 m 360 219 q 403 205 381 208 q 450 201 426 201 q 561 242 525 201 q 601 338 597 282 q 579 453 604 394 q 507 550 554 513 q 431 574 468 581 q 363 539 393 568 q 314 465 333 510 q 291 372 294 419 q 303 283 288 325 q 360 219 319 242 z "},"ø":{"ha":775,"x_min":11,"x_max":758,"o":"m 661 114 q 557 29 615 61 q 435 -14 499 -3 q 306 -17 371 -25 q 178 21 240 -8 q 129 47 153 32 q 86 83 106 63 q 23 214 35 140 q 27 362 11 288 q 81 504 43 436 q 167 621 118 572 q 286 698 221 675 q 418 717 351 721 q 547 685 485 714 q 656 610 608 657 q 731 499 703 564 q 757 360 758 435 q 730 228 754 293 q 661 114 706 164 m 360 219 q 403 205 381 208 q 450 201 426 201 q 561 242 525 201 q 601 338 597 282 q 579 453 604 394 q 507 550 554 513 q 431 574 468 581 q 363 539 393 568 q 314 465 333 510 q 291 372 294 419 q 303 283 288 325 q 360 219 319 242 z "},"p":{"ha":813,"x_min":-4,"x_max":800,"o":"m 358 69 q 369 -19 367 28 q 372 -110 371 -67 q 347 -233 374 -186 q 278 -303 319 -281 q 189 -324 238 -325 q 99 -303 140 -322 q 28 -248 57 -283 q -3 -165 -1 -212 q 5 -82 -4 -124 q 22 0 14 -40 q 43 127 36 64 q 56 256 50 190 q 65 399 61 328 q 69 543 69 471 q 67 570 69 557 q 67 597 65 583 q 109 690 71 656 q 195 733 147 724 q 288 730 243 743 q 350 682 333 717 q 363 648 358 665 q 369 613 367 631 q 476 648 418 643 q 589 640 535 653 q 692 585 649 626 q 763 490 736 544 q 794 374 789 436 q 785 253 800 311 q 730 149 769 196 q 625 78 690 101 q 492 48 554 51 q 358 69 429 44 m 457 215 q 510 219 486 207 q 551 256 535 232 q 576 310 568 279 q 582 371 585 342 q 565 422 579 400 q 522 453 550 444 q 469 448 493 460 q 428 412 444 436 q 403 357 411 388 q 397 297 394 326 q 414 245 400 268 q 457 215 428 222 z "},"q":{"ha":853,"x_min":10,"x_max":829,"o":"m 554 667 q 646 720 593 708 q 751 708 699 732 q 788 685 771 699 q 817 651 806 671 q 828 598 826 632 q 824 522 829 564 q 810 432 819 479 q 792 340 801 385 q 776 256 783 294 q 767 192 768 217 q 765 47 760 119 q 783 -97 769 -26 q 799 -162 790 -129 q 803 -228 807 -194 q 758 -308 796 -279 q 670 -346 719 -337 q 570 -342 621 -354 q 489 -299 519 -331 q 455 -224 463 -271 q 450 -126 447 -178 q 462 -25 453 -75 q 478 60 471 25 q 401 44 439 51 q 324 35 363 38 q 249 38 286 32 q 172 60 211 43 q 65 146 103 92 q 19 264 28 200 q 26 397 10 328 q 78 526 42 465 q 167 632 114 586 q 285 699 219 678 q 423 712 350 718 q 554 667 496 706 m 229 263 q 280 211 243 228 q 351 201 317 194 q 417 235 393 210 q 453 295 440 261 q 471 368 465 329 q 483 440 476 407 q 483 460 485 449 q 478 485 482 472 q 469 508 475 497 q 457 524 464 518 q 416 536 438 539 q 375 529 394 533 q 301 493 335 521 q 246 427 267 465 q 219 345 225 389 q 229 263 214 301 z "},"r":{"ha":751,"x_min":35,"x_max":742,"o":"m 351 606 q 413 659 375 636 q 494 694 450 682 q 581 706 538 706 q 661 690 625 706 q 719 642 697 675 q 742 557 742 610 q 722 488 742 521 q 671 438 703 454 q 626 429 650 426 q 575 439 601 432 q 522 453 549 446 q 472 458 496 460 q 426 440 447 456 q 390 385 406 424 q 376 297 374 343 q 381 204 378 250 q 380 117 385 158 q 346 42 375 75 q 301 8 326 21 q 246 -10 275 -6 q 188 -14 217 -15 q 132 -6 158 -12 q 94 10 113 0 q 61 36 75 21 q 42 90 47 53 q 38 177 38 128 q 41 283 38 226 q 48 392 44 339 q 54 490 51 446 q 56 563 57 535 q 38 647 35 610 q 58 713 40 685 q 106 758 76 740 q 169 781 136 775 q 233 781 201 788 q 285 757 264 775 q 328 688 317 729 q 351 606 340 646 z "},"s":{"ha":619,"x_min":21,"x_max":597,"o":"m 447 11 q 365 -3 417 3 q 258 -10 314 -10 q 152 -3 203 -10 q 75 21 101 4 q 32 71 43 40 q 24 138 21 101 q 40 202 26 169 q 82 253 54 235 q 140 267 106 267 q 209 265 175 268 q 269 260 243 263 q 301 269 296 258 q 292 295 307 282 q 256 319 278 308 q 214 340 235 331 q 186 353 193 349 q 122 399 151 371 q 73 463 93 428 q 45 539 53 499 q 44 619 38 579 q 65 667 49 644 q 103 707 81 689 q 149 739 125 725 q 196 761 174 753 q 257 776 219 769 q 335 783 294 782 q 419 778 376 783 q 498 759 463 772 q 558 724 533 746 q 590 669 583 701 q 588 601 597 638 q 554 543 578 565 q 506 521 535 525 q 449 517 478 517 q 395 517 419 518 q 360 504 371 517 q 358 478 349 492 q 383 451 367 464 q 419 429 400 439 q 444 415 438 419 q 483 390 463 404 q 523 358 504 375 q 557 321 542 340 q 579 281 572 301 q 594 194 596 236 q 574 115 592 151 q 525 52 557 79 q 447 11 493 25 z "},"t":{"ha":708,"x_min":4,"x_max":692,"o":"m 483 508 q 472 472 479 497 q 456 414 464 446 q 439 347 447 382 q 426 280 431 311 q 420 224 421 249 q 428 192 419 200 q 446 197 433 185 q 472 226 458 208 q 498 261 486 243 q 515 285 510 279 q 563 306 536 306 q 613 294 589 307 q 653 260 636 282 q 676 214 671 238 q 667 101 690 151 q 597 17 643 50 q 490 -28 551 -15 q 369 -26 429 -40 q 255 33 308 -11 q 171 157 201 76 q 151 244 156 199 q 148 336 146 289 q 156 429 150 383 q 168 518 163 475 q 138 515 156 517 q 101 514 119 514 q 64 515 82 514 q 36 524 46 517 q 13 553 21 533 q 5 597 4 574 q 15 644 6 621 q 46 684 25 668 q 99 705 67 700 q 175 697 131 710 q 211 839 182 786 q 280 917 240 892 q 365 943 319 942 q 449 931 410 944 q 518 892 489 917 q 554 840 547 868 q 557 805 558 824 q 551 767 556 786 q 540 731 546 749 q 529 696 533 713 q 565 700 544 697 q 606 703 585 703 q 644 698 626 703 q 674 679 663 693 q 689 641 686 664 q 687 595 692 618 q 670 553 682 572 q 640 525 658 533 q 606 515 626 518 q 564 510 586 511 q 521 508 542 508 q 483 508 500 508 z "},"u":{"ha":899,"x_min":22,"x_max":886,"o":"m 579 239 q 535 166 561 203 q 477 97 508 129 q 409 38 446 64 q 333 -1 372 13 q 274 -12 306 -11 q 213 -6 243 -12 q 156 14 183 0 q 107 49 128 28 q 68 99 85 71 q 40 156 51 126 q 24 247 26 196 q 28 350 22 297 q 44 453 33 403 q 67 544 56 504 q 90 610 76 578 q 131 667 103 643 q 189 697 153 686 q 263 706 225 707 q 332 690 300 704 q 379 646 364 675 q 395 540 403 597 q 372 426 388 482 q 345 324 356 371 q 354 250 335 276 q 388 238 367 233 q 424 253 410 243 q 478 322 458 275 q 512 422 497 368 q 542 526 526 475 q 586 610 558 576 q 663 650 617 646 q 746 622 710 654 q 794 547 779 593 q 813 468 807 508 q 822 386 818 428 q 833 301 826 344 q 857 211 840 257 q 876 160 867 186 q 883 106 886 133 q 849 29 881 58 q 775 -8 817 0 q 692 0 733 -15 q 628 56 650 15 q 594 144 604 97 q 579 239 585 192 z "},"ù":{"ha":899,"x_min":22,"x_max":886,"o":"m 579 239 q 535 166 561 203 q 477 97 508 129 q 409 38 446 64 q 333 -1 372 13 q 274 -12 306 -11 q 213 -6 243 -12 q 156 14 183 0 q 107 49 128 28 q 68 99 85 71 q 40 156 51 126 q 24 247 26 196 q 28 350 22 297 q 44 453 33 403 q 67 544 56 504 q 90 610 76 578 q 131 667 103 643 q 189 697 153 686 q 263 706 225 707 q 332 690 300 704 q 379 646 364 675 q 395 540 403 597 q 372 426 388 482 q 345 324 356 371 q 354 250 335 276 q 388 238 367 233 q 424 253 410 243 q 478 322 458 275 q 512 422 497 368 q 542 526 526 475 q 586 610 558 576 q 663 650 617 646 q 746 622 710 654 q 794 547 779 593 q 813 468 807 508 q 822 386 818 428 q 833 301 826 344 q 857 211 840 257 q 876 160 867 186 q 883 106 886 133 q 849 29 881 58 q 775 -8 817 0 q 692 0 733 -15 q 628 56 650 15 q 594 144 604 97 q 579 239 585 192 z "},"ú":{"ha":899,"x_min":22,"x_max":886,"o":"m 579 239 q 535 166 561 203 q 477 97 508 129 q 409 38 446 64 q 333 -1 372 13 q 274 -12 306 -11 q 213 -6 243 -12 q 156 14 183 0 q 107 49 128 28 q 68 99 85 71 q 40 156 51 126 q 24 247 26 196 q 28 350 22 297 q 44 453 33 403 q 67 544 56 504 q 90 610 76 578 q 131 667 103 643 q 189 697 153 686 q 263 706 225 707 q 332 690 300 704 q 379 646 364 675 q 395 540 403 597 q 372 426 388 482 q 345 324 356 371 q 354 250 335 276 q 388 238 367 233 q 424 253 410 243 q 478 322 458 275 q 512 422 497 368 q 542 526 526 475 q 586 610 558 576 q 663 650 617 646 q 746 622 710 654 q 794 547 779 593 q 813 468 807 508 q 822 386 818 428 q 833 301 826 344 q 857 211 840 257 q 876 160 867 186 q 883 106 886 133 q 849 29 881 58 q 775 -8 817 0 q 692 0 733 -15 q 628 56 650 15 q 594 144 604 97 q 579 239 585 192 z "},"û":{"ha":899,"x_min":22,"x_max":886,"o":"m 579 239 q 535 166 561 203 q 477 97 508 129 q 409 38 446 64 q 333 -1 372 13 q 274 -12 306 -11 q 213 -6 243 -12 q 156 14 183 0 q 107 49 128 28 q 68 99 85 71 q 40 156 51 126 q 24 247 26 196 q 28 350 22 297 q 44 453 33 403 q 67 544 56 504 q 90 610 76 578 q 131 667 103 643 q 189 697 153 686 q 263 706 225 707 q 332 690 300 704 q 379 646 364 675 q 395 540 403 597 q 372 426 388 482 q 345 324 356 371 q 354 250 335 276 q 388 238 367 233 q 424 253 410 243 q 478 322 458 275 q 512 422 497 368 q 542 526 526 475 q 586 610 558 576 q 663 650 617 646 q 746 622 710 654 q 794 547 779 593 q 813 468 807 508 q 822 386 818 428 q 833 301 826 344 q 857 211 840 257 q 876 160 867 186 q 883 106 886 133 q 849 29 881 58 q 775 -8 817 0 q 692 0 733 -15 q 628 56 650 15 q 594 144 604 97 q 579 239 585 192 z "},"ü":{"ha":899,"x_min":22,"x_max":886,"o":"m 579 239 q 535 166 561 203 q 477 97 508 129 q 409 38 446 64 q 333 -1 372 13 q 274 -12 306 -11 q 213 -6 243 -12 q 156 14 183 0 q 107 49 128 28 q 68 99 85 71 q 40 156 51 126 q 24 247 26 196 q 28 350 22 297 q 44 453 33 403 q 67 544 56 504 q 90 610 76 578 q 131 667 103 643 q 189 697 153 686 q 263 706 225 707 q 332 690 300 704 q 379 646 364 675 q 395 540 403 597 q 372 426 388 482 q 345 324 356 371 q 354 250 335 276 q 388 238 367 233 q 424 253 410 243 q 478 322 458 275 q 512 422 497 368 q 542 526 526 475 q 586 610 558 576 q 663 650 617 646 q 746 622 710 654 q 794 547 779 593 q 813 468 807 508 q 822 386 818 428 q 833 301 826 344 q 857 211 840 257 q 876 160 867 186 q 883 106 886 133 q 849 29 881 58 q 775 -8 817 0 q 692 0 733 -15 q 628 56 650 15 q 594 144 604 97 q 579 239 585 192 z "},"v":{"ha":740,"x_min":21,"x_max":721,"o":"m 492 28 q 398 -2 450 4 q 299 1 346 -8 q 176 65 222 17 q 103 178 131 114 q 63 316 76 243 q 40 453 50 389 q 31 516 36 482 q 23 585 25 550 q 24 652 21 619 q 38 713 26 685 q 53 740 44 728 q 76 758 61 751 q 133 774 94 768 q 213 778 171 779 q 290 769 254 778 q 340 744 325 761 q 361 708 354 728 q 371 667 368 688 q 385 519 382 592 q 399 371 388 446 q 403 342 400 361 q 410 305 406 324 q 422 269 415 286 q 436 247 428 253 q 463 247 450 239 q 485 265 476 254 q 527 360 514 300 q 548 484 540 419 q 564 610 556 549 q 593 711 572 671 q 613 737 600 726 q 642 751 626 747 q 674 752 658 756 q 703 736 690 749 q 719 677 718 721 q 713 574 721 633 q 690 448 704 515 q 658 319 675 381 q 625 210 642 258 q 597 140 608 161 q 552 76 578 106 q 492 28 526 47 z "},"w":{"ha":1321,"x_min":29,"x_max":1293,"o":"m 714 608 q 785 580 760 603 q 823 523 810 557 q 842 449 836 489 q 855 369 847 408 q 877 294 863 329 q 924 236 892 258 q 963 219 942 224 q 1006 221 985 214 q 1073 278 1051 235 q 1100 377 1094 321 q 1100 497 1106 433 q 1087 615 1094 560 q 1074 712 1079 671 q 1072 764 1068 753 q 1094 792 1079 781 q 1128 810 1110 804 q 1165 814 1146 815 q 1200 803 1185 813 q 1237 763 1222 789 q 1261 708 1251 738 q 1276 647 1271 678 q 1283 593 1281 617 q 1292 440 1290 517 q 1281 286 1293 363 q 1218 118 1264 188 q 1111 11 1172 49 q 980 -33 1050 -26 q 844 -11 910 -39 q 723 79 778 17 q 638 242 668 142 q 574 121 608 174 q 493 35 539 68 q 388 -11 447 1 q 250 -11 329 -24 q 177 15 211 -4 q 119 67 143 35 q 59 188 78 124 q 35 319 40 251 q 33 455 29 386 q 40 589 36 524 q 42 625 40 600 q 46 676 43 650 q 53 725 49 703 q 65 754 58 747 q 97 782 72 771 q 153 797 121 793 q 224 798 186 800 q 295 788 261 796 q 355 767 329 781 q 392 733 381 753 q 409 656 408 704 q 403 553 410 608 q 388 442 397 499 q 376 339 379 386 q 378 260 372 292 q 407 224 383 229 q 444 236 426 219 q 477 282 463 253 q 504 347 492 311 q 525 419 517 383 q 538 483 533 454 q 543 525 542 511 q 558 563 544 547 q 592 590 572 579 q 635 606 613 600 q 676 613 658 611 q 696 615 686 614 q 714 608 706 615 z "},"x":{"ha":715,"x_min":7,"x_max":703,"o":"m 524 399 q 559 349 540 374 q 597 301 578 325 q 633 253 617 278 q 663 200 650 228 q 676 118 681 157 q 650 49 671 79 q 597 -3 629 18 q 530 -31 565 -24 q 460 -28 494 -37 q 403 13 426 -18 q 360 93 374 49 q 329 178 347 138 q 294 132 314 160 q 253 76 275 104 q 210 24 232 49 q 171 -12 189 0 q 118 -28 147 -28 q 66 -17 89 -29 q 31 18 43 -4 q 28 71 18 40 q 56 118 32 86 q 108 185 79 150 q 166 253 138 221 q 208 306 194 286 q 154 378 192 340 q 82 456 117 415 q 27 540 47 497 q 24 626 7 582 q 56 674 33 653 q 101 708 78 694 q 231 753 181 757 q 315 716 281 750 q 376 626 350 682 q 433 514 401 569 q 457 555 443 529 q 489 609 471 581 q 527 666 507 638 q 569 713 547 694 q 613 739 590 732 q 658 733 636 746 q 690 701 678 722 q 699 657 703 681 q 673 608 696 642 q 621 534 650 574 q 564 457 592 494 q 524 399 536 419 z "},"y":{"ha":746,"x_min":18,"x_max":719,"o":"m 454 185 q 388 125 424 151 q 310 85 353 99 q 170 84 226 60 q 79 161 114 108 q 31 286 44 214 q 22 429 18 358 q 43 559 25 500 q 92 647 61 618 q 126 669 107 663 q 167 679 146 676 q 266 668 235 688 q 304 615 297 649 q 303 535 311 581 q 288 444 296 489 q 278 358 279 399 q 297 294 276 318 q 328 276 313 276 q 356 285 343 275 q 378 311 369 294 q 389 344 386 328 q 392 428 393 381 q 394 524 390 476 q 415 611 399 571 q 471 671 431 651 q 522 683 492 681 q 581 681 551 686 q 638 665 611 676 q 682 635 665 653 q 698 611 693 624 q 706 583 703 599 q 716 440 719 515 q 711 296 713 365 q 708 128 711 221 q 683 -54 704 35 q 617 -216 663 -143 q 486 -324 571 -289 q 409 -341 450 -339 q 329 -336 368 -343 q 244 -303 285 -328 q 176 -243 203 -279 q 156 -203 165 -226 q 142 -156 146 -181 q 142 -109 138 -132 q 163 -69 146 -86 q 214 -45 183 -49 q 278 -42 244 -42 q 344 -42 311 -43 q 404 -25 378 -42 q 443 16 431 -8 q 459 69 456 40 q 460 128 463 99 q 454 185 457 158 z "},"ý":{"ha":746,"x_min":18,"x_max":719,"o":"m 454 185 q 388 125 424 151 q 310 85 353 99 q 170 84 226 60 q 79 161 114 108 q 31 286 44 214 q 22 429 18 358 q 43 559 25 500 q 92 647 61 618 q 126 669 107 663 q 167 679 146 676 q 266 668 235 688 q 304 615 297 649 q 303 535 311 581 q 288 444 296 489 q 278 358 279 399 q 297 294 276 318 q 328 276 313 276 q 356 285 343 275 q 378 311 369 294 q 389 344 386 328 q 392 428 393 381 q 394 524 390 476 q 415 611 399 571 q 471 671 431 651 q 522 683 492 681 q 581 681 551 686 q 638 665 611 676 q 682 635 665 653 q 698 611 693 624 q 706 583 703 599 q 716 440 719 515 q 711 296 713 365 q 708 128 711 221 q 683 -54 704 35 q 617 -216 663 -143 q 486 -324 571 -289 q 409 -341 450 -339 q 329 -336 368 -343 q 244 -303 285 -328 q 176 -243 203 -279 q 156 -203 165 -226 q 142 -156 146 -181 q 142 -109 138 -132 q 163 -69 146 -86 q 214 -45 183 -49 q 278 -42 244 -42 q 344 -42 311 -43 q 404 -25 378 -42 q 443 16 431 -8 q 459 69 456 40 q 460 128 463 99 q 454 185 457 158 z "},"ÿ":{"ha":746,"x_min":18,"x_max":719,"o":"m 454 185 q 388 125 424 151 q 310 85 353 99 q 170 84 226 60 q 79 161 114 108 q 31 286 44 214 q 22 429 18 358 q 43 559 25 500 q 92 647 61 618 q 126 669 107 663 q 167 679 146 676 q 266 668 235 688 q 304 615 297 649 q 303 535 311 581 q 288 444 296 489 q 278 358 279 399 q 297 294 276 318 q 328 276 313 276 q 356 285 343 275 q 378 311 369 294 q 389 344 386 328 q 392 428 393 381 q 394 524 390 476 q 415 611 399 571 q 471 671 431 651 q 522 683 492 681 q 581 681 551 686 q 638 665 611 676 q 682 635 665 653 q 698 611 693 624 q 706 583 703 599 q 716 440 719 515 q 711 296 713 365 q 708 128 711 221 q 683 -54 704 35 q 617 -216 663 -143 q 486 -324 571 -289 q 409 -341 450 -339 q 329 -336 368 -343 q 244 -303 285 -328 q 176 -243 203 -279 q 156 -203 165 -226 q 142 -156 146 -181 q 142 -109 138 -132 q 163 -69 146 -86 q 214 -45 183 -49 q 278 -42 244 -42 q 344 -42 311 -43 q 404 -25 378 -42 q 443 16 431 -8 q 459 69 456 40 q 460 128 463 99 q 454 185 457 158 z "},"z":{"ha":778,"x_min":19,"x_max":756,"o":"m 479 246 q 529 257 503 250 q 583 270 556 264 q 635 278 610 276 q 683 272 661 279 q 739 228 722 260 q 756 160 756 197 q 742 85 756 122 q 708 24 729 49 q 597 -28 665 -31 q 458 -13 526 -25 q 317 -4 389 -1 q 236 -10 276 -7 q 156 -11 196 -14 q 123 -7 139 -10 q 92 6 107 -4 q 54 53 64 24 q 45 111 43 81 q 57 169 47 142 q 115 263 75 225 q 202 329 154 300 q 302 383 250 358 q 397 439 354 407 q 416 453 404 443 q 439 474 428 463 q 458 497 450 485 q 467 517 467 508 q 453 537 465 529 q 431 547 442 544 q 351 544 386 560 q 286 506 317 529 q 226 461 256 483 q 164 438 197 439 q 76 465 110 435 q 31 538 43 494 q 28 631 19 582 q 67 714 38 679 q 140 769 101 754 q 218 786 178 783 q 301 788 258 789 q 386 793 343 786 q 481 803 429 800 q 580 796 532 806 q 665 760 628 786 q 717 682 701 733 q 713 508 742 592 q 617 363 683 425 q 582 334 600 347 q 545 307 564 321 q 509 278 526 293 q 479 246 492 264 z "},"{":{"ha":522,"x_min":4,"x_max":547,"o":"m 251 467 q 283 451 265 460 q 316 431 300 442 q 346 406 332 419 q 367 379 360 393 q 383 298 381 351 q 387 189 386 244 q 392 88 388 133 q 414 31 396 43 q 442 17 429 19 q 468 15 456 14 q 494 18 481 15 q 522 21 507 21 q 543 5 539 21 q 532 -19 547 -11 q 449 -51 493 -42 q 358 -58 404 -60 q 269 -41 313 -56 q 190 -1 226 -26 q 131 73 144 31 q 117 163 117 115 q 123 259 117 210 q 125 356 129 308 q 99 415 121 396 q 53 443 76 433 q 17 460 31 453 q 21 485 4 467 q 48 501 31 494 q 84 517 65 507 q 119 545 103 528 q 143 596 136 563 q 145 648 149 622 q 139 700 142 674 q 177 925 121 838 q 382 1028 233 1013 q 452 1028 418 1031 q 522 1025 486 1025 q 542 1012 536 1025 q 536 989 547 999 q 514 981 529 982 q 480 976 499 981 q 440 960 461 972 q 400 922 419 949 q 368 844 375 885 q 363 762 361 804 q 366 678 364 719 q 360 598 368 636 q 328 526 353 560 q 251 467 304 493 z "},"}":{"ha":522,"x_min":-25,"x_max":514,"o":"m 269 507 q 238 523 256 514 q 205 543 221 532 q 175 567 189 554 q 154 594 161 579 q 141 643 144 613 q 136 710 138 674 q 134 784 135 746 q 131 855 133 822 q 124 911 129 888 q 107 943 118 935 q 78 957 92 954 q 53 959 65 960 q 27 956 40 958 q -1 953 14 953 q -22 969 -18 953 q -10 993 -25 985 q 74 1025 29 1015 q 163 1032 118 1035 q 251 1015 208 1029 q 331 975 294 1001 q 392 900 378 942 q 405 812 406 858 q 397 716 404 765 q 396 618 390 667 q 422 559 400 578 q 467 531 444 540 q 501 515 489 522 q 500 490 514 508 q 478 477 496 483 q 441 460 461 471 q 402 429 421 449 q 378 378 383 410 q 376 326 372 351 q 382 274 379 300 q 343 48 400 135 q 139 -54 286 -39 q 69 -54 103 -57 q -1 -51 35 -51 q -21 -38 -17 -51 q -14 -15 -25 -25 q 9 -8 -6 -8 q 42 -3 24 -7 q 81 13 61 1 q 121 51 101 24 q 153 128 147 88 q 159 210 160 169 q 156 293 158 251 q 160 373 153 335 q 192 445 168 411 q 269 507 217 479 z "},"~":{"ha":935,"x_min":24,"x_max":908,"o":"m 576 385 q 592 415 588 390 q 603 469 596 439 q 628 529 611 499 q 679 579 644 560 q 715 590 694 588 q 754 590 736 593 q 863 545 828 581 q 903 463 897 510 q 889 362 908 415 q 835 263 869 308 q 758 188 801 218 q 672 156 715 157 q 585 171 625 154 q 512 212 546 188 q 449 264 478 236 q 397 312 421 292 q 351 340 372 332 q 311 333 329 347 q 292 300 299 324 q 275 251 285 276 q 248 203 265 225 q 197 178 231 182 q 157 178 179 175 q 113 190 135 182 q 72 211 90 199 q 43 239 53 224 q 31 320 24 271 q 63 419 39 369 q 120 508 86 468 q 188 560 154 547 q 266 567 229 575 q 336 540 303 560 q 400 492 369 519 q 460 441 431 465 q 518 400 489 417 q 576 385 547 383 z "}," ":{"ha":417,"x_min":0,"x_max":0,"o":""},"¢":{"ha":613,"x_min":29,"x_max":585,"o":"m 399 150 q 399 122 399 140 q 399 85 399 104 q 397 49 399 65 q 393 25 396 32 q 364 3 386 10 q 318 -3 342 -4 q 275 7 294 -3 q 256 36 256 17 q 258 89 256 63 q 261 142 261 115 q 147 181 193 146 q 73 270 100 217 q 38 389 46 324 q 36 518 29 454 q 65 636 43 582 q 121 724 88 690 q 188 769 151 753 q 265 796 225 785 q 265 828 265 810 q 265 865 264 846 q 269 900 265 883 q 281 928 272 917 q 314 947 292 942 q 375 945 354 957 q 406 910 396 933 q 415 858 415 888 q 414 803 415 829 q 488 780 453 803 q 545 724 522 757 q 576 656 568 692 q 571 593 585 619 q 551 572 564 579 q 523 563 538 564 q 495 568 508 563 q 474 588 482 574 q 461 615 468 597 q 443 647 454 633 q 415 663 432 660 q 374 647 399 667 q 345 610 356 633 q 328 559 335 586 q 319 505 322 532 q 317 457 317 478 q 322 391 317 426 q 342 329 326 356 q 359 308 347 318 q 383 293 371 299 q 408 290 396 288 q 431 306 421 292 q 440 326 435 313 q 451 356 446 340 q 460 384 456 371 q 469 401 465 397 q 494 416 479 413 q 523 416 508 419 q 549 403 538 413 q 565 381 561 394 q 568 342 571 365 q 558 296 565 319 q 542 251 551 272 q 522 217 532 229 q 466 174 503 193 q 399 150 429 154 z "},"£":{"ha":835,"x_min":35,"x_max":811,"o":"m 461 281 q 497 265 476 267 q 536 261 517 263 q 597 272 565 260 q 660 293 629 283 q 720 303 692 303 q 768 281 749 304 q 790 244 781 265 q 803 198 799 222 q 810 149 808 174 q 807 107 811 125 q 769 35 797 58 q 701 6 740 13 q 616 6 663 0 q 524 22 569 13 q 435 41 478 32 q 363 50 393 50 q 297 40 331 50 q 228 20 263 29 q 160 8 193 11 q 100 21 128 6 q 69 47 82 29 q 50 87 57 65 q 42 131 43 108 q 44 171 40 153 q 76 220 54 207 q 124 240 99 233 q 173 253 149 246 q 213 282 197 260 q 219 308 218 290 q 217 345 219 325 q 210 383 214 365 q 201 411 206 401 q 169 410 189 411 q 128 408 149 408 q 88 412 107 408 q 60 424 69 415 q 41 460 47 435 q 37 513 35 486 q 51 561 39 540 q 86 585 63 582 q 127 586 107 588 q 168 583 147 585 q 156 732 149 660 q 194 860 163 804 q 284 954 226 917 q 426 1000 342 992 q 515 994 471 1004 q 600 965 560 985 q 650 924 626 953 q 688 860 674 894 q 705 790 703 826 q 693 728 707 754 q 654 699 681 704 q 610 717 628 694 q 594 749 599 731 q 586 787 590 768 q 574 823 582 806 q 546 853 565 840 q 506 861 525 865 q 472 844 488 857 q 447 812 457 831 q 432 775 436 793 q 429 740 429 763 q 432 692 429 717 q 439 646 435 668 q 449 611 443 624 q 538 613 493 608 q 626 610 583 617 q 663 585 653 606 q 672 538 674 564 q 658 485 669 511 q 633 446 647 458 q 601 427 619 433 q 561 419 582 421 q 519 419 540 418 q 481 419 499 419 q 473 349 483 382 q 461 281 463 317 z "},"¤":{"ha":638,"x_min":31,"x_max":606,"o":"m 518 279 q 537 258 526 271 q 556 232 547 246 q 567 203 564 218 q 564 176 571 189 q 549 160 560 169 q 526 144 539 151 q 501 132 514 138 q 479 126 488 126 q 436 146 456 125 q 413 183 421 163 q 397 224 406 204 l 242 225 q 209 196 225 211 q 174 169 193 181 q 128 162 154 158 q 79 178 101 165 q 44 211 57 192 q 39 253 31 231 q 49 266 40 258 q 67 282 57 274 q 88 297 78 290 q 103 308 97 304 q 85 371 92 336 q 78 441 79 406 q 83 510 76 476 q 107 571 90 544 q 88 586 100 576 q 64 608 75 596 q 47 631 53 619 q 44 654 40 643 q 60 676 49 664 q 88 700 72 689 q 119 721 104 711 q 144 735 135 731 q 174 733 160 742 q 200 710 188 725 q 222 679 213 696 q 239 653 232 663 q 283 656 257 654 q 337 657 310 657 q 389 654 364 657 q 429 643 414 651 q 448 667 438 653 q 470 692 458 681 q 496 710 482 703 q 525 715 510 717 q 553 703 539 713 q 580 681 568 694 q 599 652 592 668 q 603 622 606 636 q 583 588 600 603 q 550 560 565 572 q 565 494 563 532 q 562 417 567 457 q 546 341 557 378 q 518 279 535 304 m 267 393 q 288 383 275 386 q 314 378 300 379 q 342 378 328 376 q 364 385 356 381 q 384 404 376 390 q 394 435 392 418 q 392 466 396 451 q 375 486 388 481 q 310 497 339 503 q 266 473 282 490 q 249 433 250 456 q 267 393 247 410 z "},"¥":{"ha":832,"x_min":22,"x_max":793,"o":"m 603 150 q 603 117 603 136 q 603 79 604 99 q 596 43 601 60 q 578 17 590 26 q 526 -3 563 4 q 450 -12 490 -10 q 374 -9 410 -14 q 321 7 338 -4 q 304 35 310 15 q 297 77 299 54 q 294 122 294 100 q 294 157 294 143 q 233 156 264 157 q 171 158 201 154 q 125 182 142 163 q 104 226 108 201 q 109 274 100 250 q 140 313 118 299 q 175 324 154 321 q 217 325 196 326 q 260 320 239 324 q 297 314 281 317 q 295 334 296 325 q 294 354 294 343 q 258 354 282 354 q 208 356 233 354 q 160 360 182 357 q 128 369 138 363 q 108 393 115 378 q 105 413 106 401 q 106 435 104 424 q 110 458 107 447 q 119 475 114 468 q 149 492 129 488 q 192 499 169 497 q 238 498 215 500 q 274 494 260 496 q 241 545 263 514 q 193 613 219 576 q 138 687 167 649 q 86 758 110 725 q 47 813 63 790 q 29 844 31 836 q 47 908 22 876 q 111 963 72 939 q 192 999 150 986 q 258 1007 233 1013 q 304 978 279 1003 q 353 917 329 953 q 401 839 378 882 q 446 755 425 796 q 482 679 467 714 q 506 625 497 644 q 526 676 513 642 q 556 751 539 710 q 594 835 574 792 q 635 915 614 878 q 675 976 656 951 q 713 1004 694 1000 q 756 999 739 1010 q 782 972 774 989 q 792 931 790 954 q 788 889 793 908 q 754 794 775 843 q 710 694 733 744 q 662 594 686 643 q 619 499 638 544 q 649 503 631 500 q 688 506 668 506 q 724 505 707 507 q 750 494 742 503 q 765 463 761 483 q 763 422 768 443 q 747 385 758 401 q 715 367 735 369 q 648 365 683 363 q 581 367 613 367 q 581 341 581 354 q 583 315 582 328 q 616 319 594 317 q 660 322 638 321 q 704 321 683 322 q 733 314 725 319 q 752 287 746 306 q 759 246 758 268 q 754 203 760 224 q 739 174 749 183 q 711 157 728 163 q 675 150 694 151 q 636 149 656 149 q 603 150 617 150 z "},"­":{"ha":0,"x_min":0,"x_max":0,"o":""},"±":{"ha":774,"x_min":31,"x_max":750,"o":"m 472 521 q 478 478 474 503 q 484 428 482 454 q 485 379 486 403 q 475 340 485 356 q 449 317 467 325 q 412 304 432 308 q 372 299 392 300 q 336 301 351 299 q 304 309 321 304 q 276 328 288 314 q 265 369 267 340 q 267 429 264 397 q 273 492 269 461 q 276 542 276 524 q 235 537 261 540 q 183 531 210 533 q 133 528 157 528 q 97 536 110 529 q 76 556 85 543 q 64 583 68 569 q 59 671 47 643 q 101 708 71 699 q 173 716 132 718 q 256 714 214 714 q 246 764 251 735 q 240 822 240 793 q 249 877 240 851 q 278 918 257 903 q 317 934 292 928 q 368 942 342 940 q 419 942 394 944 q 460 931 444 939 q 482 911 474 924 q 494 883 490 899 q 497 845 499 868 q 492 797 496 822 q 482 749 488 772 q 472 710 476 725 q 522 716 490 713 q 584 719 553 719 q 642 710 615 718 q 679 683 668 703 q 685 662 683 676 q 685 631 686 647 q 682 601 685 615 q 676 578 679 586 q 654 547 669 561 q 617 531 640 536 q 567 523 593 525 q 516 521 542 521 q 472 521 490 521 m 671 -7 q 623 -10 654 -11 q 556 -6 592 -10 q 488 3 521 -1 q 433 8 454 7 q 352 7 400 11 q 256 -1 304 3 q 163 -6 207 -6 q 94 4 119 -6 q 45 54 60 18 q 33 129 31 90 q 57 200 36 168 q 115 238 78 232 q 176 243 135 240 q 269 248 217 246 q 379 251 321 250 q 490 253 438 253 q 583 252 542 253 q 643 249 624 251 q 676 241 660 246 q 706 225 692 236 q 740 171 731 206 q 746 99 750 136 q 723 33 742 63 q 671 -7 704 3 z "},"×":{"ha":688,"x_min":29,"x_max":654,"o":"m 467 435 q 517 392 486 418 q 576 335 547 365 q 626 274 606 306 q 647 217 647 243 q 638 185 647 201 q 616 153 629 168 q 588 127 603 139 q 558 110 572 115 q 483 114 519 96 q 440 151 460 125 q 403 207 421 176 q 370 269 386 238 q 339 321 354 300 q 254 244 294 285 q 168 171 214 203 q 106 156 136 150 q 58 182 76 161 q 34 233 39 203 q 47 289 29 263 q 83 326 58 306 q 137 367 108 346 q 193 406 165 388 q 239 438 221 425 q 193 480 222 454 q 135 535 164 506 q 85 593 107 564 q 60 644 63 622 q 79 703 57 674 q 133 753 101 733 q 201 777 165 772 q 260 763 236 782 q 290 722 276 749 q 317 665 304 696 q 340 603 329 633 q 361 554 350 574 q 399 599 374 569 q 455 657 425 628 q 514 708 485 686 q 563 729 543 729 q 599 715 581 729 q 630 681 617 701 q 649 639 643 661 q 646 600 654 617 q 612 558 635 579 q 562 515 589 536 q 509 473 535 493 q 467 435 483 453 z "},"÷":{"ha":750,"x_min":15,"x_max":735,"o":"m 460 607 q 410 585 438 590 q 354 581 382 579 q 268 610 300 583 q 228 674 236 638 q 238 745 221 710 q 299 800 256 781 q 338 808 314 807 q 389 807 363 810 q 439 797 415 804 q 475 781 463 790 q 499 742 493 765 q 501 692 504 718 q 488 643 499 667 q 460 607 476 619 m 656 282 q 606 278 636 276 q 540 283 575 279 q 473 290 506 286 q 418 296 440 294 q 302 294 360 300 q 186 283 244 289 q 132 281 160 281 q 79 292 104 282 q 30 342 44 306 q 18 417 15 378 q 42 489 21 457 q 100 525 63 521 q 165 531 124 528 q 258 535 207 533 q 366 539 310 538 q 473 540 422 540 q 565 540 524 540 q 628 536 606 539 q 660 528 644 533 q 690 513 676 524 q 725 458 715 493 q 731 388 735 424 q 708 322 726 351 q 656 282 689 292 m 467 50 q 408 19 442 26 q 340 15 374 11 q 276 36 306 19 q 232 78 247 53 q 219 136 217 103 q 253 208 222 169 q 297 233 265 225 q 365 240 329 240 q 433 231 401 239 q 476 206 464 222 q 499 126 501 172 q 467 50 497 79 z "},"‘":{"ha":314,"x_min":33,"x_max":285,"o":"m 156 629 q 139 625 149 626 q 119 623 129 624 q 99 624 108 622 q 83 629 89 625 q 76 651 81 632 q 65 697 71 669 q 54 756 60 724 q 44 817 49 788 q 36 868 39 846 q 33 897 33 890 q 50 957 33 929 q 75 984 60 972 q 106 1004 90 996 q 150 1017 128 1017 q 196 1007 172 1017 q 253 961 233 992 q 279 892 274 931 q 278 812 285 853 q 253 733 271 771 q 211 668 236 696 q 156 629 186 640 z "},"’":{"ha":314,"x_min":33,"x_max":285,"o":"m 156 629 q 139 625 149 626 q 119 623 129 624 q 99 624 108 622 q 83 629 89 625 q 76 651 81 632 q 65 697 71 669 q 54 756 60 724 q 44 817 49 788 q 36 868 39 846 q 33 897 33 890 q 50 957 33 929 q 75 984 60 972 q 106 1004 90 996 q 150 1017 128 1017 q 196 1007 172 1017 q 253 961 233 992 q 279 892 274 931 q 278 812 285 853 q 253 733 271 771 q 211 668 236 696 q 156 629 186 640 z "},"“":{"ha":626,"x_min":33,"x_max":597,"o":"m 468 626 q 451 622 461 624 q 431 619 442 619 q 411 620 421 618 q 396 626 401 622 q 388 647 393 628 q 378 693 383 665 q 366 753 372 721 q 356 814 360 785 q 349 865 351 843 q 346 894 346 888 q 351 925 347 910 q 363 953 354 940 q 418 1000 382 982 q 508 1004 463 1024 q 565 957 544 988 q 591 888 585 926 q 591 808 597 850 q 568 731 585 767 q 526 666 551 694 q 468 626 500 638 m 156 621 q 139 617 149 618 q 119 615 129 615 q 99 615 108 614 q 83 621 89 617 q 76 642 81 624 q 65 688 71 661 q 54 747 60 715 q 44 808 49 779 q 36 860 39 838 q 33 889 33 882 q 50 949 33 921 q 75 976 60 964 q 106 996 90 988 q 150 1008 128 1008 q 196 999 172 1008 q 253 953 233 983 q 279 883 274 922 q 278 803 285 844 q 253 725 271 763 q 211 660 236 688 q 156 621 186 632 z "},"”":{"ha":626,"x_min":33,"x_max":597,"o":"m 468 626 q 451 622 461 624 q 431 619 442 619 q 411 620 421 618 q 396 626 401 622 q 388 647 393 628 q 378 693 383 665 q 366 753 372 721 q 356 814 360 785 q 349 865 351 843 q 346 894 346 888 q 351 925 347 910 q 363 953 354 940 q 418 1000 382 982 q 508 1004 463 1024 q 565 957 544 988 q 591 888 585 926 q 591 808 597 850 q 568 731 585 767 q 526 666 551 694 q 468 626 500 638 m 156 621 q 139 617 149 618 q 119 615 129 615 q 99 615 108 614 q 83 621 89 617 q 76 642 81 624 q 65 688 71 661 q 54 747 60 715 q 44 808 49 779 q 36 860 39 838 q 33 889 33 882 q 50 949 33 921 q 75 976 60 964 q 106 996 90 988 q 150 1008 128 1008 q 196 999 172 1008 q 253 953 233 983 q 279 883 274 922 q 278 803 285 844 q 253 725 271 763 q 211 660 236 688 q 156 621 186 632 z "},"‹":{"ha":0,"x_min":-999,"x_max":1288,"o":"m -874 -458 q -954 -435 -924 -460 q -992 -378 -985 -411 q -981 -310 -999 -344 q -915 -257 -962 -275 q -737 -206 -832 -225 q -553 -171 -642 -186 q -242 -124 -399 -146 q 70 -90 -86 -101 q 383 -84 226 -79 q 694 -118 539 -89 q 747 -128 713 -122 q 816 -146 782 -135 q 876 -173 850 -157 q 906 -212 903 -189 q 900 -242 907 -229 q 881 -264 893 -254 q 855 -279 869 -274 q 828 -286 840 -285 q 773 -287 803 -289 q 713 -281 743 -285 q 652 -272 682 -276 q 596 -264 622 -267 q 347 -258 472 -253 q 99 -275 222 -264 q -86 -299 3 -283 q -262 -334 -175 -315 q -437 -372 -350 -353 q -615 -407 -524 -392 q -647 -412 -631 -410 q -679 -419 -664 -415 q -776 -444 -728 -432 q -874 -458 -824 -457 m 1186 -385 q 1128 -381 1161 -387 q 1063 -360 1094 -374 q 1006 -328 1032 -346 q 971 -290 981 -310 q 973 -251 961 -271 q 1028 -217 985 -232 q 1073 -210 1044 -211 q 1133 -215 1101 -210 q 1196 -229 1165 -219 q 1249 -254 1226 -239 q 1279 -290 1271 -269 q 1275 -335 1288 -310 q 1238 -372 1261 -361 q 1186 -385 1214 -382 z "},"€":{"ha":753,"x_min":19,"x_max":721,"o":"m 451 350 q 449 314 450 338 q 450 265 449 290 q 456 217 451 240 q 468 185 460 194 q 500 171 481 168 q 535 185 519 174 q 563 219 551 199 q 583 259 574 239 q 601 296 592 279 q 626 321 611 313 q 676 324 650 333 q 708 288 701 314 q 705 196 721 243 q 656 108 689 149 q 581 37 624 67 q 497 -3 538 7 q 395 -6 450 -14 q 296 24 340 3 q 216 83 246 47 q 170 162 186 119 q 148 253 154 204 q 139 350 142 301 q 114 348 131 350 q 81 346 97 346 q 51 351 64 346 q 36 368 38 356 q 26 425 19 396 q 38 449 24 442 q 70 458 51 456 q 109 459 89 460 q 139 458 129 458 l 140 483 q 104 485 122 485 q 69 492 86 486 q 38 516 49 497 q 27 556 28 535 q 35 594 26 576 q 65 619 44 613 q 110 625 88 626 q 154 622 132 624 q 173 755 157 685 q 223 883 189 825 q 311 977 257 942 q 444 1006 365 1013 q 502 995 474 1003 q 557 974 531 988 q 618 924 583 960 q 678 844 653 888 q 710 758 703 801 q 693 685 718 714 q 649 663 676 665 q 607 685 622 660 q 594 717 599 699 q 586 753 590 735 q 574 788 582 772 q 553 815 567 804 q 530 822 542 824 q 507 814 518 821 q 488 797 496 807 q 474 776 479 786 q 450 706 456 744 q 444 632 444 668 q 481 633 458 632 q 526 633 503 633 q 568 627 549 632 q 597 610 588 622 q 611 582 607 597 q 613 552 615 567 q 600 526 610 538 q 574 511 590 515 q 515 504 546 504 q 457 501 485 504 l 454 485 q 508 491 481 488 q 557 490 535 494 q 595 470 579 486 q 617 418 611 454 q 618 392 619 406 q 608 368 617 379 q 579 354 600 358 q 534 349 558 350 q 487 349 510 349 q 451 350 464 350 z "},"™":{"ha":904,"x_min":21,"x_max":872,"o":"m 467 747 q 465 712 465 732 q 462 671 464 692 q 455 631 460 650 q 440 600 450 611 q 410 578 426 582 q 379 582 393 575 q 356 605 365 589 q 347 642 347 621 q 354 767 347 704 q 363 892 361 829 q 326 889 343 889 q 289 890 308 889 q 294 831 290 868 q 301 753 299 793 q 301 676 303 713 q 289 624 299 640 q 256 595 279 606 q 205 583 232 585 q 155 589 178 581 q 125 618 132 597 q 124 662 124 624 q 126 747 125 700 q 128 836 126 793 q 129 893 129 879 q 104 895 119 894 q 74 898 89 896 q 47 906 60 900 q 28 921 33 911 q 22 944 24 929 q 24 975 21 960 q 33 1002 26 990 q 53 1015 40 1014 q 74 1013 60 1017 q 96 1008 88 1010 q 187 1004 140 1001 q 278 1012 233 1007 q 367 1020 324 1017 q 450 1018 410 1024 q 508 985 485 1014 q 556 898 538 947 q 596 804 575 849 q 619 851 607 824 q 647 906 632 879 q 678 956 661 933 q 714 990 694 979 q 747 1002 729 999 q 782 1002 765 1006 q 813 989 799 999 q 835 961 826 979 q 842 928 839 950 q 845 880 844 906 q 847 830 846 854 q 849 792 847 806 q 858 722 851 756 q 871 651 865 688 q 871 628 872 640 q 861 610 869 617 q 840 601 854 604 q 810 596 826 597 q 778 594 793 594 q 754 596 763 594 q 727 618 736 597 q 713 665 718 639 q 707 717 708 690 q 704 757 706 743 q 649 648 678 686 q 590 607 619 610 q 528 638 560 604 q 467 747 497 672 z "},"−":{"ha":768,"x_min":25,"x_max":744,"o":"m 665 282 q 615 278 646 276 q 550 283 585 279 q 483 290 515 286 q 428 296 450 294 q 312 294 369 300 q 196 283 254 289 q 142 281 169 281 q 89 292 114 282 q 40 342 54 306 q 28 417 25 378 q 51 489 31 457 q 110 525 72 521 q 175 531 133 528 q 268 535 217 533 q 376 539 319 538 q 483 540 432 540 q 574 540 533 540 q 638 536 615 539 q 670 528 654 533 q 700 513 686 524 q 735 458 725 493 q 740 388 744 424 q 717 322 736 351 q 665 282 699 292 z "},"`":{"ha":411,"x_min":21,"x_max":390,"o":"m 386 756 q 364 688 390 715 q 297 663 338 660 q 217 691 263 664 q 131 756 172 718 q 59 836 89 793 q 25 914 29 879 q 39 974 21 946 q 84 1019 57 999 q 144 1029 111 1039 q 181 1007 158 1025 q 231 963 204 989 q 284 906 257 936 q 333 846 311 875 q 370 792 356 817 q 386 756 385 768 z "},"|":{"ha":435,"x_min":56,"x_max":383,"o":"m 292 -160 q 243 -165 271 -164 q 188 -163 215 -167 q 135 -150 160 -160 q 94 -124 110 -140 q 72 -85 79 -107 q 63 -40 65 -62 q 56 62 56 10 q 60 167 56 114 q 68 274 64 221 q 74 378 72 326 q 73 520 75 449 q 69 663 71 592 q 65 805 67 733 q 67 947 64 876 q 71 1004 68 975 q 89 1057 74 1033 q 129 1093 106 1085 q 182 1107 153 1101 q 228 1115 203 1111 q 277 1116 253 1118 q 322 1104 301 1114 q 356 1071 343 1094 q 369 1004 365 1050 q 372 905 372 958 q 368 802 371 851 q 364 726 365 753 q 357 560 360 643 q 357 393 354 476 q 365 280 358 338 q 376 165 371 222 q 382 49 381 107 q 378 -64 383 -8 q 354 -128 374 -107 q 292 -160 335 -150 z "},"\n":{"ha":0,"x_min":0,"x_max":0,"o":""},"":{"ha":6647,"x_min":44,"x_max":6558,"o":"m 535 983 q 567 1007 542 997 q 628 1022 593 1017 q 702 1028 663 1028 q 777 1022 742 1028 q 838 1006 813 1017 q 872 979 864 996 q 878 949 878 967 q 877 913 879 932 q 872 875 875 893 q 868 844 869 857 q 848 569 849 706 q 854 293 847 432 q 865 188 860 242 q 865 79 871 135 q 851 18 865 47 q 797 -19 836 -8 q 713 -30 758 -31 q 626 -20 668 -29 q 563 3 583 -11 q 540 37 547 14 q 530 90 532 60 q 530 153 528 119 q 535 218 532 186 q 540 278 538 250 q 543 325 543 306 q 486 323 517 322 q 424 326 456 324 q 361 330 393 328 q 301 331 329 332 q 308 265 303 308 q 317 176 313 222 q 322 90 321 131 q 315 33 322 50 q 287 -3 306 8 q 244 -18 268 -14 q 201 -22 228 -21 q 146 -19 174 -22 q 94 -10 118 -17 q 58 11 69 -3 q 44 55 44 32 q 47 100 44 78 q 63 267 54 183 q 72 435 71 350 q 73 623 75 528 q 68 813 71 718 q 65 885 68 849 q 63 953 61 921 q 68 973 63 961 q 78 990 74 985 q 92 995 85 994 q 107 996 100 996 q 194 998 154 996 q 263 990 235 1000 q 306 953 290 981 q 321 865 321 925 q 315 727 319 796 q 307 592 311 658 q 411 597 360 594 q 515 592 463 600 q 517 640 517 607 q 519 714 518 674 q 520 798 519 754 q 523 880 521 842 q 528 946 525 918 q 535 983 531 974 m 969 936 q 1010 976 982 961 q 1071 999 1038 992 q 1138 1007 1104 1007 q 1196 1003 1171 1007 q 1263 965 1238 994 q 1296 901 1289 936 q 1289 830 1303 865 q 1236 775 1275 794 q 1183 759 1213 763 q 1124 747 1153 756 q 1049 749 1085 735 q 989 793 1013 764 q 958 860 965 822 q 969 936 950 899 m 1038 63 q 1001 122 1015 90 q 978 188 988 154 q 961 286 967 224 q 960 414 956 349 q 981 536 964 479 q 1032 619 999 593 q 1077 639 1051 636 q 1129 643 1103 642 q 1169 644 1147 643 q 1211 640 1190 644 q 1249 627 1232 636 q 1278 600 1267 618 q 1291 548 1286 588 q 1299 455 1296 508 q 1301 341 1301 401 q 1297 226 1300 281 q 1289 129 1294 171 q 1276 71 1283 88 q 1253 34 1268 51 q 1218 10 1238 17 q 1119 8 1169 -8 q 1038 63 1069 24 m 1713 -106 q 1687 -230 1714 -183 q 1619 -299 1660 -276 q 1529 -319 1578 -321 q 1438 -299 1481 -318 q 1367 -244 1396 -279 q 1338 -162 1339 -208 q 1345 -79 1336 -119 q 1363 1 1354 -39 q 1383 131 1375 68 q 1394 258 1390 194 q 1404 403 1399 332 q 1410 546 1410 474 q 1408 572 1410 558 q 1407 600 1406 586 q 1427 667 1408 639 q 1474 711 1446 694 q 1534 735 1501 728 q 1598 738 1567 742 q 1653 721 1629 735 q 1689 683 1678 707 q 1701 650 1697 667 q 1710 615 1704 633 q 1816 651 1757 646 q 1928 643 1875 656 q 2031 589 1988 629 q 2101 494 2075 549 q 2134 377 2128 439 q 2124 258 2140 315 q 2069 153 2108 200 q 1965 82 2031 106 q 1831 51 1894 54 q 1697 74 1768 49 q 1709 -17 1707 31 q 1713 -106 1711 -65 m 1864 456 q 1809 451 1833 463 q 1767 415 1785 439 q 1742 360 1750 390 q 1735 300 1733 329 q 1752 248 1738 271 q 1796 218 1767 225 q 1849 222 1825 210 q 1890 259 1874 235 q 1915 314 1907 283 q 1922 374 1924 344 q 1906 425 1919 403 q 1864 456 1892 447 m 3104 983 q 3137 1007 3111 997 q 3197 1022 3163 1017 q 3272 1028 3232 1028 q 3346 1022 3311 1028 q 3406 1006 3381 1017 q 3439 979 3432 996 q 3445 949 3444 967 q 3444 913 3446 932 q 3440 875 3442 893 q 3436 844 3438 857 q 3417 569 3417 706 q 3424 293 3417 432 q 3432 188 3426 242 q 3435 79 3438 135 q 3430 49 3433 64 q 3419 18 3426 33 q 3367 -19 3406 -8 q 3282 -30 3328 -31 q 3194 -20 3236 -29 q 3131 3 3151 -11 q 3101 61 3107 19 q 3097 152 3094 103 q 3104 249 3099 201 q 3110 325 3110 296 q 3055 323 3085 322 q 2993 326 3025 324 q 2929 330 2961 328 q 2869 331 2897 332 q 2876 265 2871 308 q 2885 176 2882 222 q 2890 90 2889 131 q 2883 33 2890 50 q 2856 -3 2874 8 q 2814 -18 2838 -14 q 2769 -22 2797 -21 q 2714 -19 2742 -22 q 2662 -10 2686 -17 q 2626 11 2638 -3 q 2613 55 2614 32 q 2615 100 2613 78 q 2631 267 2624 183 q 2640 435 2638 350 q 2640 623 2643 528 q 2635 813 2638 718 q 2632 885 2635 849 q 2632 953 2629 921 q 2636 973 2632 961 q 2644 990 2640 985 q 2659 995 2651 994 q 2675 996 2667 996 q 2763 998 2724 996 q 2831 990 2803 1000 q 2874 953 2858 981 q 2889 865 2889 925 q 2883 727 2888 796 q 2876 592 2879 658 q 2980 597 2928 594 q 3085 592 3032 600 q 3085 640 3085 607 q 3087 714 3086 674 q 3089 798 3088 754 q 3092 880 3090 842 q 3097 946 3093 918 q 3104 983 3100 974 m 3668 25 q 3619 51 3643 36 q 3576 86 3596 65 q 3513 217 3525 144 q 3518 364 3501 290 q 3573 506 3535 438 q 3658 622 3611 574 q 3778 700 3713 676 q 3909 719 3843 724 q 4037 688 3975 715 q 4146 613 4099 660 q 4221 501 4193 565 q 4247 363 4249 438 q 4220 232 4244 296 q 4151 115 4196 168 q 4047 31 4106 63 q 3925 -11 3989 0 q 3796 -13 3861 -22 q 3668 25 3731 -4 m 3940 204 q 4051 244 4015 204 q 4091 341 4088 285 q 4069 456 4094 397 q 3997 551 4044 515 q 3920 576 3957 582 q 3853 542 3883 571 q 3804 467 3824 513 q 3781 375 3785 422 q 3794 286 3778 328 q 3850 222 3810 244 q 3894 208 3872 211 q 3940 204 3917 204 m 3331 -254 q 3508 -202 3414 -222 q 3693 -168 3603 -182 q 4002 -121 3847 -143 q 4313 -87 4157 -99 q 4626 -81 4469 -76 q 4939 -114 4783 -85 q 4992 -124 4957 -118 q 5060 -142 5026 -131 q 5122 -169 5094 -153 q 5151 -210 5149 -186 q 5126 -261 5154 -242 q 5071 -283 5099 -281 q 5016 -284 5046 -286 q 4956 -278 4986 -282 q 4895 -268 4925 -274 q 4839 -260 4865 -262 q 4592 -255 4717 -249 q 4343 -272 4467 -261 q 4158 -296 4247 -281 q 3983 -330 4069 -311 q 3809 -368 3896 -349 q 3631 -404 3722 -387 q 3598 -410 3614 -407 q 3565 -415 3582 -412 q 3470 -442 3518 -429 q 3374 -456 3422 -454 q 3292 -432 3322 -457 q 3254 -374 3261 -407 q 3265 -306 3247 -340 q 3331 -254 3283 -272 m 5272 -214 q 5317 -207 5289 -208 q 5377 -210 5346 -206 q 5439 -225 5408 -215 q 5491 -250 5469 -235 q 5521 -285 5513 -265 q 5517 -331 5529 -306 q 5481 -367 5504 -357 q 5431 -382 5457 -378 q 5372 -378 5406 -385 q 5307 -357 5339 -371 q 5249 -325 5275 -343 q 5215 -287 5224 -307 q 5217 -249 5206 -268 q 5272 -214 5229 -229 m 4985 558 q 4965 490 4985 522 q 4914 442 4946 458 q 4869 433 4893 431 q 4819 442 4844 435 q 4766 456 4793 449 q 4715 460 4739 463 q 4669 442 4690 458 q 4635 388 4649 426 q 4622 299 4619 346 q 4626 207 4624 253 q 4625 119 4629 161 q 4592 44 4621 78 q 4491 -8 4551 1 q 4378 -3 4431 -18 q 4306 40 4336 6 q 4287 94 4292 56 q 4282 181 4282 132 q 4285 286 4282 231 q 4293 394 4289 342 q 4299 492 4297 447 q 4299 564 4301 538 q 4281 649 4278 611 q 4302 715 4283 688 q 4351 760 4321 743 q 4415 784 4382 778 q 4478 785 4447 790 q 4529 761 4508 779 q 4573 690 4560 732 q 4597 608 4586 647 q 4657 662 4619 639 q 4738 697 4694 685 q 4825 708 4781 708 q 4905 692 4869 708 q 4963 644 4940 676 q 4985 558 4985 611 m 5676 725 q 5747 661 5728 707 q 5769 559 5767 615 q 5765 445 5771 503 q 5761 344 5760 388 q 5772 269 5763 306 q 5792 199 5781 232 q 5813 136 5803 165 q 5822 85 5822 107 q 5806 29 5824 49 q 5760 3 5788 10 q 5701 4 5732 -3 q 5650 31 5671 11 q 5626 57 5640 39 q 5596 96 5611 75 q 5569 137 5581 117 q 5554 169 5557 157 q 5454 88 5506 126 q 5340 26 5403 49 q 5218 13 5279 3 q 5108 64 5157 24 q 5040 167 5063 104 q 5015 301 5017 231 q 5033 445 5014 372 q 5088 576 5051 518 q 5180 673 5125 635 q 5304 714 5235 711 q 5396 696 5353 715 q 5472 646 5439 676 q 5556 728 5500 708 q 5676 725 5611 747 m 5413 518 q 5369 547 5390 546 q 5331 532 5349 549 q 5298 484 5313 515 q 5276 416 5283 453 q 5267 342 5268 379 q 5274 274 5265 304 q 5314 196 5289 213 q 5365 194 5339 179 q 5413 246 5390 208 q 5445 331 5435 283 q 5449 428 5456 378 q 5413 518 5443 478 m 6150 89 q 6010 88 6067 64 q 5920 164 5954 111 q 5872 289 5886 217 q 5862 432 5858 361 q 5883 562 5865 503 q 5931 650 5901 621 q 5966 672 5946 665 q 6007 681 5986 678 q 6106 670 6075 689 q 6144 617 6136 651 q 6144 538 6151 583 q 6127 448 6136 493 q 6117 363 6118 403 q 6136 300 6115 324 q 6167 280 6151 281 q 6195 288 6182 279 q 6217 314 6208 297 q 6229 347 6226 331 q 6231 431 6233 383 q 6233 526 6229 479 q 6253 613 6238 572 q 6308 672 6269 653 q 6360 685 6331 683 q 6419 683 6389 688 q 6477 666 6450 678 q 6521 638 6504 654 q 6537 614 6532 626 q 6546 588 6542 601 q 6555 442 6558 517 q 6550 300 6551 368 q 6549 191 6550 250 q 6542 71 6549 132 q 6523 -51 6536 10 q 6485 -163 6510 -111 q 6421 -256 6460 -215 q 6326 -321 6382 -297 q 6249 -337 6290 -336 q 6169 -332 6207 -339 q 6084 -300 6126 -324 q 6017 -239 6042 -276 q 5996 -199 6006 -222 q 5983 -153 5986 -176 q 5983 -106 5979 -129 q 6003 -67 5986 -83 q 6054 -42 6024 -46 q 6118 -40 6085 -39 q 6185 -40 6151 -40 q 6244 -22 6218 -39 q 6283 19 6271 -6 q 6299 73 6296 44 q 6299 131 6301 101 q 6293 189 6296 161 q 6228 127 6263 154 q 6150 89 6193 100 z "}}}
